G75*
%MOIN*%
%OFA0B0*%
%FSLAX25Y25*%
%IPPOS*%
%LPD*%
%AMOC8*
5,1,8,0,0,1.08239X$1,22.5*
%
%ADD10C,0.06000*%
%ADD11C,0.05500*%
%ADD12C,0.08858*%
%ADD13C,0.05150*%
%ADD14C,0.16500*%
%ADD15C,0.03378*%
%ADD16C,0.01000*%
%ADD17C,0.00600*%
D10*
X0116500Y0241500D03*
X0126500Y0241500D03*
X0136500Y0241500D03*
X0146500Y0241500D03*
X0156500Y0241500D03*
X0166500Y0241500D03*
X0361500Y0241500D03*
X0371500Y0241500D03*
X0381500Y0241500D03*
X0391500Y0241500D03*
X0401500Y0241500D03*
X0411500Y0241500D03*
D11*
X0414768Y0175398D03*
X0424768Y0175398D03*
X0434768Y0175398D03*
X0444768Y0175398D03*
X0454768Y0175398D03*
X0464768Y0175398D03*
X0474768Y0175398D03*
X0484768Y0175398D03*
X0494768Y0175398D03*
X0504768Y0175398D03*
X0514768Y0175398D03*
X0514768Y0165398D03*
X0504768Y0165398D03*
X0494768Y0165398D03*
X0484768Y0165398D03*
X0474768Y0165398D03*
X0464768Y0165398D03*
X0454768Y0165398D03*
X0444768Y0165398D03*
X0434768Y0165398D03*
X0424768Y0165398D03*
X0414768Y0165398D03*
X0404768Y0165398D03*
X0394768Y0165398D03*
X0394768Y0175398D03*
X0404768Y0175398D03*
X0384768Y0175398D03*
X0374768Y0175398D03*
X0364768Y0175398D03*
X0354768Y0175398D03*
X0344768Y0175398D03*
X0344768Y0165398D03*
X0354768Y0165398D03*
X0364768Y0165398D03*
X0374768Y0165398D03*
X0384768Y0165398D03*
X0384768Y0075398D03*
X0394768Y0075398D03*
X0404768Y0075398D03*
X0414768Y0075398D03*
X0424768Y0075398D03*
X0434768Y0075398D03*
X0444768Y0075398D03*
X0454768Y0075398D03*
X0464768Y0075398D03*
X0474768Y0075398D03*
X0484768Y0075398D03*
X0494768Y0075398D03*
X0504768Y0075398D03*
X0514768Y0075398D03*
X0514768Y0065398D03*
X0504768Y0065398D03*
X0494768Y0065398D03*
X0484768Y0065398D03*
X0474768Y0065398D03*
X0464768Y0065398D03*
X0454768Y0065398D03*
X0444768Y0065398D03*
X0434768Y0065398D03*
X0424768Y0065398D03*
X0414768Y0065398D03*
X0404768Y0065398D03*
X0394768Y0065398D03*
X0384768Y0065398D03*
X0374768Y0065398D03*
X0364768Y0065398D03*
X0364768Y0075398D03*
X0374768Y0075398D03*
X0354768Y0075398D03*
X0344768Y0075398D03*
X0344768Y0065398D03*
X0354768Y0065398D03*
D12*
X0261106Y0086657D03*
X0261106Y0106343D03*
X0211894Y0106343D03*
X0211894Y0086657D03*
X0186106Y0086657D03*
X0186106Y0106343D03*
X0186106Y0151657D03*
X0186106Y0171343D03*
X0136894Y0171343D03*
X0136894Y0151657D03*
X0111106Y0151657D03*
X0111106Y0171343D03*
X0061894Y0171343D03*
X0061894Y0151657D03*
X0061894Y0106343D03*
X0061894Y0086657D03*
X0111106Y0086657D03*
X0111106Y0106343D03*
X0136894Y0106343D03*
X0136894Y0086657D03*
X0471894Y0206657D03*
X0471894Y0226343D03*
X0521106Y0226343D03*
X0521106Y0206657D03*
D13*
X0236500Y0174295D03*
X0236500Y0148705D03*
D14*
X0296500Y0266500D03*
X0326500Y0266500D03*
X0541500Y0266500D03*
X0541500Y0046500D03*
X0081500Y0266500D03*
X0046500Y0266500D03*
X0046500Y0046500D03*
D15*
X0102500Y0060500D03*
X0108500Y0060500D03*
X0114500Y0060500D03*
X0120500Y0060500D03*
X0267500Y0152500D03*
X0277500Y0145500D03*
X0271500Y0138500D03*
X0271500Y0130500D03*
X0271500Y0124500D03*
X0278500Y0118500D03*
X0286500Y0129500D03*
X0282500Y0132500D03*
X0302500Y0137500D03*
X0302500Y0145500D03*
X0307500Y0149500D03*
X0313500Y0152500D03*
X0301500Y0163500D03*
X0280500Y0160500D03*
D16*
X0001500Y0001500D02*
X0586500Y0001500D01*
X0586500Y0311500D01*
X0001500Y0311500D01*
X0001500Y0001500D01*
X0001500Y0001545D02*
X0586500Y0001545D01*
X0586500Y0002543D02*
X0001500Y0002543D01*
X0001500Y0003542D02*
X0586500Y0003542D01*
X0586500Y0004540D02*
X0001500Y0004540D01*
X0001500Y0005539D02*
X0586500Y0005539D01*
X0586500Y0006537D02*
X0001500Y0006537D01*
X0001500Y0007536D02*
X0586500Y0007536D01*
X0586500Y0008534D02*
X0001500Y0008534D01*
X0001500Y0009533D02*
X0586500Y0009533D01*
X0586500Y0010531D02*
X0001500Y0010531D01*
X0001500Y0011530D02*
X0586500Y0011530D01*
X0586500Y0012528D02*
X0001500Y0012528D01*
X0001500Y0013527D02*
X0586500Y0013527D01*
X0586500Y0014525D02*
X0001500Y0014525D01*
X0001500Y0015524D02*
X0586500Y0015524D01*
X0586500Y0016522D02*
X0001500Y0016522D01*
X0001500Y0017521D02*
X0586500Y0017521D01*
X0586500Y0018519D02*
X0001500Y0018519D01*
X0001500Y0019518D02*
X0586500Y0019518D01*
X0586500Y0020516D02*
X0001500Y0020516D01*
X0001500Y0021515D02*
X0586500Y0021515D01*
X0586500Y0022513D02*
X0001500Y0022513D01*
X0001500Y0023512D02*
X0586500Y0023512D01*
X0586500Y0024510D02*
X0001500Y0024510D01*
X0001500Y0025509D02*
X0586500Y0025509D01*
X0586500Y0026507D02*
X0001500Y0026507D01*
X0001500Y0027506D02*
X0586500Y0027506D01*
X0586500Y0028504D02*
X0001500Y0028504D01*
X0001500Y0029503D02*
X0586500Y0029503D01*
X0586500Y0030501D02*
X0557544Y0030501D01*
X0566500Y0030501D01*
X0566500Y0029503D02*
X0021500Y0029503D01*
X0021500Y0030501D02*
X0030377Y0030501D01*
X0001500Y0030501D01*
X0001500Y0031500D02*
X0030000Y0031500D01*
X0021500Y0031500D01*
X0021500Y0032499D02*
X0030000Y0032499D01*
X0001500Y0032499D01*
X0001500Y0033497D02*
X0030000Y0033497D01*
X0021500Y0033497D01*
X0021500Y0034496D02*
X0030000Y0034496D01*
X0001500Y0034496D01*
X0001500Y0035494D02*
X0030000Y0035494D01*
X0021500Y0035494D01*
X0021500Y0036493D02*
X0030000Y0036493D01*
X0001500Y0036493D01*
X0001500Y0037491D02*
X0030000Y0037491D01*
X0021500Y0037491D01*
X0021500Y0038490D02*
X0030000Y0038490D01*
X0001500Y0038490D01*
X0001500Y0039488D02*
X0030000Y0039488D01*
X0021500Y0039488D01*
X0021500Y0040487D02*
X0030000Y0040487D01*
X0001500Y0040487D01*
X0001500Y0041485D02*
X0030000Y0041485D01*
X0021500Y0041485D01*
X0021500Y0042484D02*
X0030000Y0042484D01*
X0001500Y0042484D01*
X0001500Y0043482D02*
X0030000Y0043482D01*
X0021500Y0043482D01*
X0021500Y0044481D02*
X0030000Y0044481D01*
X0001500Y0044481D01*
X0001500Y0045479D02*
X0030000Y0045479D01*
X0021500Y0045479D01*
X0021500Y0046478D02*
X0030000Y0046478D01*
X0001500Y0046478D01*
X0001500Y0047476D02*
X0030000Y0047476D01*
X0021500Y0047476D01*
X0021500Y0048475D02*
X0030000Y0048475D01*
X0001500Y0048475D01*
X0001500Y0049473D02*
X0030000Y0049473D01*
X0021500Y0049473D01*
X0021500Y0050472D02*
X0030000Y0050472D01*
X0001500Y0050472D01*
X0001500Y0051470D02*
X0030000Y0051470D01*
X0021500Y0051470D01*
X0021500Y0052469D02*
X0030000Y0052469D01*
X0001500Y0052469D01*
X0001500Y0053467D02*
X0030000Y0053467D01*
X0021500Y0053467D01*
X0021500Y0054466D02*
X0030000Y0054466D01*
X0001500Y0054466D01*
X0001500Y0055464D02*
X0030000Y0055464D01*
X0021500Y0055464D01*
X0021500Y0056463D02*
X0030000Y0056463D01*
X0001500Y0056463D01*
X0001500Y0057461D02*
X0030000Y0057461D01*
X0021500Y0057461D01*
X0021500Y0058460D02*
X0030000Y0058460D01*
X0001500Y0058460D01*
X0001500Y0059458D02*
X0030000Y0059458D01*
X0021500Y0059458D01*
X0021500Y0060457D02*
X0030000Y0060457D01*
X0001500Y0060457D01*
X0001500Y0061455D02*
X0030000Y0061455D01*
X0021500Y0061455D01*
X0021500Y0062454D02*
X0030000Y0062454D01*
X0001500Y0062454D01*
X0001500Y0063452D02*
X0030000Y0063452D01*
X0021500Y0063452D01*
X0021500Y0064451D02*
X0030000Y0064451D01*
X0001500Y0064451D01*
X0001500Y0065449D02*
X0030000Y0065449D01*
X0021500Y0065449D01*
X0021500Y0066448D02*
X0030000Y0066448D01*
X0001500Y0066448D01*
X0001500Y0067446D02*
X0030000Y0067446D01*
X0021500Y0067446D01*
X0021500Y0068445D02*
X0030000Y0068445D01*
X0001500Y0068445D01*
X0001500Y0069443D02*
X0030000Y0069443D01*
X0021500Y0069443D01*
X0021500Y0070442D02*
X0030000Y0070442D01*
X0001500Y0070442D01*
X0001500Y0071440D02*
X0030000Y0071440D01*
X0021500Y0071440D01*
X0021500Y0072439D02*
X0030000Y0072439D01*
X0001500Y0072439D01*
X0001500Y0073437D02*
X0030000Y0073437D01*
X0021500Y0073437D01*
X0021500Y0074436D02*
X0030000Y0074436D01*
X0001500Y0074436D01*
X0001500Y0075434D02*
X0030000Y0075434D01*
X0021500Y0075434D01*
X0021500Y0076433D02*
X0030000Y0076433D01*
X0001500Y0076433D01*
X0001500Y0077432D02*
X0030000Y0077432D01*
X0021500Y0077432D01*
X0021500Y0078430D02*
X0030000Y0078430D01*
X0001500Y0078430D01*
X0001500Y0079429D02*
X0030000Y0079429D01*
X0021500Y0079429D01*
X0021500Y0080427D02*
X0030000Y0080427D01*
X0001500Y0080427D01*
X0001500Y0081426D02*
X0030000Y0081426D01*
X0021500Y0081426D01*
X0021500Y0082424D02*
X0030000Y0082424D01*
X0001500Y0082424D01*
X0001500Y0083423D02*
X0030000Y0083423D01*
X0021500Y0083423D01*
X0021500Y0084421D02*
X0030000Y0084421D01*
X0001500Y0084421D01*
X0001500Y0085420D02*
X0030000Y0085420D01*
X0021500Y0085420D01*
X0021500Y0086418D02*
X0030000Y0086418D01*
X0001500Y0086418D01*
X0001500Y0087417D02*
X0030000Y0087417D01*
X0021500Y0087417D01*
X0021500Y0088415D02*
X0030000Y0088415D01*
X0001500Y0088415D01*
X0001500Y0089414D02*
X0030000Y0089414D01*
X0021500Y0089414D01*
X0021500Y0090412D02*
X0030000Y0090412D01*
X0001500Y0090412D01*
X0001500Y0091411D02*
X0030000Y0091411D01*
X0021500Y0091411D01*
X0021500Y0092409D02*
X0030000Y0092409D01*
X0001500Y0092409D01*
X0001500Y0093408D02*
X0030000Y0093408D01*
X0021500Y0093408D01*
X0021500Y0094406D02*
X0030000Y0094406D01*
X0001500Y0094406D01*
X0001500Y0095405D02*
X0030000Y0095405D01*
X0021500Y0095405D01*
X0021500Y0096403D02*
X0030000Y0096403D01*
X0001500Y0096403D01*
X0001500Y0097402D02*
X0030000Y0097402D01*
X0021500Y0097402D01*
X0021500Y0098400D02*
X0030000Y0098400D01*
X0001500Y0098400D01*
X0001500Y0099399D02*
X0030000Y0099399D01*
X0021500Y0099399D01*
X0021500Y0100397D02*
X0030000Y0100397D01*
X0001500Y0100397D01*
X0001500Y0101396D02*
X0030000Y0101396D01*
X0021500Y0101396D01*
X0021500Y0102394D02*
X0030000Y0102394D01*
X0001500Y0102394D01*
X0001500Y0103393D02*
X0030000Y0103393D01*
X0021500Y0103393D01*
X0021500Y0104391D02*
X0030000Y0104391D01*
X0001500Y0104391D01*
X0001500Y0105390D02*
X0030000Y0105390D01*
X0021500Y0105390D01*
X0021500Y0106388D02*
X0030000Y0106388D01*
X0001500Y0106388D01*
X0001500Y0107387D02*
X0030000Y0107387D01*
X0021500Y0107387D01*
X0021500Y0108385D02*
X0030000Y0108385D01*
X0001500Y0108385D01*
X0001500Y0109384D02*
X0030000Y0109384D01*
X0021500Y0109384D01*
X0021500Y0110382D02*
X0030000Y0110382D01*
X0001500Y0110382D01*
X0001500Y0111381D02*
X0030000Y0111381D01*
X0021500Y0111381D01*
X0021500Y0112379D02*
X0030000Y0112379D01*
X0001500Y0112379D01*
X0001500Y0113378D02*
X0030000Y0113378D01*
X0021500Y0113378D01*
X0021500Y0114376D02*
X0030000Y0114376D01*
X0001500Y0114376D01*
X0001500Y0115375D02*
X0030000Y0115375D01*
X0021500Y0115375D01*
X0021500Y0116373D02*
X0030000Y0116373D01*
X0001500Y0116373D01*
X0001500Y0117372D02*
X0030000Y0117372D01*
X0021500Y0117372D01*
X0021500Y0118370D02*
X0030000Y0118370D01*
X0001500Y0118370D01*
X0001500Y0119369D02*
X0030000Y0119369D01*
X0021500Y0119369D01*
X0021500Y0120368D02*
X0030000Y0120368D01*
X0001500Y0120368D01*
X0001500Y0121366D02*
X0030000Y0121366D01*
X0021500Y0121366D01*
X0021500Y0122365D02*
X0030000Y0122365D01*
X0001500Y0122365D01*
X0001500Y0123363D02*
X0030000Y0123363D01*
X0021500Y0123363D01*
X0021500Y0124362D02*
X0030000Y0124362D01*
X0001500Y0124362D01*
X0001500Y0125360D02*
X0030000Y0125360D01*
X0021500Y0125360D01*
X0021500Y0126359D02*
X0030000Y0126359D01*
X0001500Y0126359D01*
X0001500Y0127357D02*
X0030000Y0127357D01*
X0021500Y0127357D01*
X0021500Y0128356D02*
X0030000Y0128356D01*
X0001500Y0128356D01*
X0001500Y0129354D02*
X0030000Y0129354D01*
X0021500Y0129354D01*
X0021500Y0130353D02*
X0030000Y0130353D01*
X0001500Y0130353D01*
X0001500Y0131351D02*
X0030000Y0131351D01*
X0021500Y0131351D01*
X0021500Y0132350D02*
X0030000Y0132350D01*
X0001500Y0132350D01*
X0001500Y0133348D02*
X0030000Y0133348D01*
X0021500Y0133348D01*
X0021500Y0134347D02*
X0030000Y0134347D01*
X0001500Y0134347D01*
X0001500Y0135345D02*
X0030000Y0135345D01*
X0021500Y0135345D01*
X0021500Y0136344D02*
X0030000Y0136344D01*
X0001500Y0136344D01*
X0001500Y0137342D02*
X0030000Y0137342D01*
X0021500Y0137342D01*
X0021500Y0138341D02*
X0030000Y0138341D01*
X0001500Y0138341D01*
X0001500Y0139339D02*
X0030000Y0139339D01*
X0021500Y0139339D01*
X0021500Y0140338D02*
X0030000Y0140338D01*
X0001500Y0140338D01*
X0001500Y0141336D02*
X0030000Y0141336D01*
X0021500Y0141336D01*
X0021500Y0142335D02*
X0030000Y0142335D01*
X0001500Y0142335D01*
X0001500Y0143333D02*
X0030000Y0143333D01*
X0021500Y0143333D01*
X0021500Y0144332D02*
X0030000Y0144332D01*
X0001500Y0144332D01*
X0001500Y0145330D02*
X0030000Y0145330D01*
X0021500Y0145330D01*
X0021500Y0146329D02*
X0030000Y0146329D01*
X0001500Y0146329D01*
X0001500Y0147327D02*
X0030000Y0147327D01*
X0021500Y0147327D01*
X0021500Y0148326D02*
X0030000Y0148326D01*
X0001500Y0148326D01*
X0001500Y0149324D02*
X0030000Y0149324D01*
X0021500Y0149324D01*
X0021500Y0150323D02*
X0030000Y0150323D01*
X0001500Y0150323D01*
X0001500Y0151321D02*
X0030000Y0151321D01*
X0021500Y0151321D01*
X0021500Y0152320D02*
X0030000Y0152320D01*
X0001500Y0152320D01*
X0001500Y0153318D02*
X0030000Y0153318D01*
X0021500Y0153318D01*
X0021500Y0154317D02*
X0030000Y0154317D01*
X0001500Y0154317D01*
X0001500Y0155315D02*
X0030000Y0155315D01*
X0021500Y0155315D01*
X0021500Y0156314D02*
X0030000Y0156314D01*
X0001500Y0156314D01*
X0001500Y0157312D02*
X0030000Y0157312D01*
X0030000Y0156500D02*
X0030000Y0030879D01*
X0030879Y0030000D01*
X0032121Y0030000D01*
X0555800Y0030000D01*
X0557043Y0030000D01*
X0557921Y0030879D01*
X0557921Y0156500D01*
X0566500Y0156500D01*
X0566500Y0021500D01*
X0021500Y0021500D01*
X0021500Y0156500D01*
X0030000Y0156500D01*
X0030000Y0158311D02*
X0001500Y0158311D01*
X0001500Y0159309D02*
X0030000Y0159309D01*
X0030000Y0160308D02*
X0001500Y0160308D01*
X0001500Y0161306D02*
X0030000Y0161306D01*
X0030000Y0162305D02*
X0001500Y0162305D01*
X0001500Y0163303D02*
X0030000Y0163303D01*
X0030000Y0164302D02*
X0001500Y0164302D01*
X0001500Y0165301D02*
X0030000Y0165301D01*
X0030000Y0166299D02*
X0001500Y0166299D01*
X0001500Y0167298D02*
X0030000Y0167298D01*
X0030000Y0168296D02*
X0001500Y0168296D01*
X0001500Y0169295D02*
X0030000Y0169295D01*
X0030000Y0170293D02*
X0001500Y0170293D01*
X0001500Y0171292D02*
X0030000Y0171292D01*
X0030000Y0172290D02*
X0001500Y0172290D01*
X0001500Y0173289D02*
X0030000Y0173289D01*
X0030000Y0174287D02*
X0001500Y0174287D01*
X0001500Y0175286D02*
X0030000Y0175286D01*
X0030000Y0176284D02*
X0001500Y0176284D01*
X0001500Y0177283D02*
X0030000Y0177283D01*
X0030000Y0178281D02*
X0001500Y0178281D01*
X0001500Y0179280D02*
X0030000Y0179280D01*
X0030000Y0180278D02*
X0001500Y0180278D01*
X0001500Y0181277D02*
X0030000Y0181277D01*
X0030000Y0182275D02*
X0001500Y0182275D01*
X0001500Y0183274D02*
X0030000Y0183274D01*
X0030000Y0184272D02*
X0001500Y0184272D01*
X0001500Y0185271D02*
X0030000Y0185271D01*
X0030000Y0186269D02*
X0001500Y0186269D01*
X0001500Y0187268D02*
X0030000Y0187268D01*
X0030000Y0188266D02*
X0001500Y0188266D01*
X0001500Y0189265D02*
X0030000Y0189265D01*
X0030000Y0190263D02*
X0001500Y0190263D01*
X0001500Y0191262D02*
X0030000Y0191262D01*
X0030000Y0192260D02*
X0001500Y0192260D01*
X0001500Y0193259D02*
X0030000Y0193259D01*
X0030000Y0194257D02*
X0001500Y0194257D01*
X0001500Y0195256D02*
X0030000Y0195256D01*
X0030000Y0196254D02*
X0001500Y0196254D01*
X0001500Y0197253D02*
X0030000Y0197253D01*
X0030000Y0198251D02*
X0001500Y0198251D01*
X0001500Y0199250D02*
X0030000Y0199250D01*
X0030000Y0200248D02*
X0001500Y0200248D01*
X0001500Y0201247D02*
X0030000Y0201247D01*
X0030000Y0202245D02*
X0001500Y0202245D01*
X0001500Y0203244D02*
X0030000Y0203244D01*
X0030000Y0204242D02*
X0001500Y0204242D01*
X0001500Y0205241D02*
X0030000Y0205241D01*
X0030000Y0206239D02*
X0001500Y0206239D01*
X0001500Y0207238D02*
X0030000Y0207238D01*
X0030000Y0208237D02*
X0001500Y0208237D01*
X0001500Y0209235D02*
X0030000Y0209235D01*
X0030000Y0210234D02*
X0001500Y0210234D01*
X0001500Y0211232D02*
X0030000Y0211232D01*
X0030000Y0212231D02*
X0001500Y0212231D01*
X0001500Y0213229D02*
X0030000Y0213229D01*
X0030000Y0214228D02*
X0001500Y0214228D01*
X0001500Y0215226D02*
X0030000Y0215226D01*
X0030000Y0216225D02*
X0001500Y0216225D01*
X0001500Y0217223D02*
X0030000Y0217223D01*
X0030000Y0218222D02*
X0001500Y0218222D01*
X0001500Y0219220D02*
X0030000Y0219220D01*
X0030000Y0220219D02*
X0001500Y0220219D01*
X0001500Y0221217D02*
X0030000Y0221217D01*
X0030000Y0222216D02*
X0001500Y0222216D01*
X0001500Y0223214D02*
X0030000Y0223214D01*
X0030000Y0224213D02*
X0001500Y0224213D01*
X0001500Y0225211D02*
X0030000Y0225211D01*
X0030000Y0226210D02*
X0001500Y0226210D01*
X0001500Y0227208D02*
X0030000Y0227208D01*
X0030000Y0228207D02*
X0001500Y0228207D01*
X0001500Y0229205D02*
X0030000Y0229205D01*
X0030000Y0230204D02*
X0001500Y0230204D01*
X0001500Y0231202D02*
X0030000Y0231202D01*
X0030000Y0232201D02*
X0001500Y0232201D01*
X0001500Y0233199D02*
X0030000Y0233199D01*
X0030000Y0234198D02*
X0001500Y0234198D01*
X0001500Y0235196D02*
X0030000Y0235196D01*
X0030000Y0236195D02*
X0001500Y0236195D01*
X0001500Y0237193D02*
X0030000Y0237193D01*
X0030000Y0238192D02*
X0001500Y0238192D01*
X0001500Y0239190D02*
X0030000Y0239190D01*
X0030000Y0240189D02*
X0001500Y0240189D01*
X0001500Y0241187D02*
X0030000Y0241187D01*
X0030000Y0242186D02*
X0001500Y0242186D01*
X0001500Y0243184D02*
X0030000Y0243184D01*
X0030000Y0244183D02*
X0001500Y0244183D01*
X0001500Y0245181D02*
X0030000Y0245181D01*
X0030000Y0246180D02*
X0001500Y0246180D01*
X0001500Y0247178D02*
X0030000Y0247178D01*
X0030000Y0248177D02*
X0001500Y0248177D01*
X0001500Y0249175D02*
X0030000Y0249175D01*
X0030000Y0250174D02*
X0001500Y0250174D01*
X0001500Y0251172D02*
X0030000Y0251172D01*
X0030000Y0252171D02*
X0001500Y0252171D01*
X0001500Y0253170D02*
X0030000Y0253170D01*
X0030000Y0254168D02*
X0001500Y0254168D01*
X0001500Y0255167D02*
X0030000Y0255167D01*
X0030000Y0256165D02*
X0001500Y0256165D01*
X0001500Y0257164D02*
X0030000Y0257164D01*
X0030000Y0258162D02*
X0001500Y0258162D01*
X0001500Y0259161D02*
X0030000Y0259161D01*
X0030000Y0260159D02*
X0001500Y0260159D01*
X0001500Y0261158D02*
X0030000Y0261158D01*
X0030000Y0262156D02*
X0001500Y0262156D01*
X0001500Y0263155D02*
X0030000Y0263155D01*
X0030000Y0264153D02*
X0001500Y0264153D01*
X0001500Y0265152D02*
X0030000Y0265152D01*
X0030000Y0266150D02*
X0001500Y0266150D01*
X0001500Y0267149D02*
X0030000Y0267149D01*
X0030000Y0268147D02*
X0001500Y0268147D01*
X0001500Y0269146D02*
X0030000Y0269146D01*
X0030000Y0270144D02*
X0001500Y0270144D01*
X0001500Y0271143D02*
X0030000Y0271143D01*
X0030000Y0272141D02*
X0001500Y0272141D01*
X0001500Y0273140D02*
X0030000Y0273140D01*
X0030000Y0274138D02*
X0001500Y0274138D01*
X0001500Y0275137D02*
X0030000Y0275137D01*
X0030000Y0276135D02*
X0001500Y0276135D01*
X0001500Y0277134D02*
X0030000Y0277134D01*
X0030000Y0278132D02*
X0001500Y0278132D01*
X0001500Y0279131D02*
X0030000Y0279131D01*
X0030000Y0280129D02*
X0001500Y0280129D01*
X0001500Y0281128D02*
X0030000Y0281128D01*
X0030000Y0282121D02*
X0030000Y0030879D01*
X0030879Y0030000D01*
X0032121Y0030000D01*
X0555800Y0030000D01*
X0557043Y0030000D01*
X0557921Y0030879D01*
X0557921Y0282121D01*
X0557043Y0283000D01*
X0030879Y0283000D01*
X0030000Y0282121D01*
X0030005Y0282126D02*
X0001500Y0282126D01*
X0001500Y0283125D02*
X0586500Y0283125D01*
X0586500Y0284123D02*
X0001500Y0284123D01*
X0001500Y0285122D02*
X0586500Y0285122D01*
X0586500Y0286120D02*
X0001500Y0286120D01*
X0001500Y0287119D02*
X0586500Y0287119D01*
X0586500Y0288117D02*
X0001500Y0288117D01*
X0001500Y0289116D02*
X0586500Y0289116D01*
X0586500Y0290114D02*
X0001500Y0290114D01*
X0001500Y0291113D02*
X0586500Y0291113D01*
X0586500Y0292111D02*
X0001500Y0292111D01*
X0001500Y0293110D02*
X0586500Y0293110D01*
X0586500Y0294108D02*
X0001500Y0294108D01*
X0001500Y0295107D02*
X0586500Y0295107D01*
X0586500Y0296105D02*
X0001500Y0296105D01*
X0001500Y0297104D02*
X0586500Y0297104D01*
X0586500Y0298103D02*
X0001500Y0298103D01*
X0001500Y0299101D02*
X0586500Y0299101D01*
X0586500Y0300100D02*
X0001500Y0300100D01*
X0001500Y0301098D02*
X0586500Y0301098D01*
X0586500Y0302097D02*
X0001500Y0302097D01*
X0001500Y0303095D02*
X0586500Y0303095D01*
X0586500Y0304094D02*
X0001500Y0304094D01*
X0001500Y0305092D02*
X0586500Y0305092D01*
X0586500Y0306091D02*
X0001500Y0306091D01*
X0001500Y0307089D02*
X0586500Y0307089D01*
X0586500Y0308088D02*
X0001500Y0308088D01*
X0001500Y0309086D02*
X0586500Y0309086D01*
X0586500Y0310085D02*
X0001500Y0310085D01*
X0001500Y0311083D02*
X0586500Y0311083D01*
X0586500Y0282126D02*
X0557916Y0282126D01*
X0557921Y0281128D02*
X0586500Y0281128D01*
X0586500Y0280129D02*
X0557921Y0280129D01*
X0557921Y0279131D02*
X0586500Y0279131D01*
X0586500Y0278132D02*
X0557921Y0278132D01*
X0557921Y0277134D02*
X0586500Y0277134D01*
X0586500Y0276135D02*
X0557921Y0276135D01*
X0557921Y0275137D02*
X0586500Y0275137D01*
X0586500Y0274138D02*
X0557921Y0274138D01*
X0557921Y0273140D02*
X0586500Y0273140D01*
X0586500Y0272141D02*
X0557921Y0272141D01*
X0557921Y0271143D02*
X0586500Y0271143D01*
X0586500Y0270144D02*
X0557921Y0270144D01*
X0557921Y0269146D02*
X0586500Y0269146D01*
X0586500Y0268147D02*
X0557921Y0268147D01*
X0557921Y0267149D02*
X0586500Y0267149D01*
X0586500Y0266150D02*
X0557921Y0266150D01*
X0557921Y0265152D02*
X0586500Y0265152D01*
X0586500Y0264153D02*
X0557921Y0264153D01*
X0557921Y0263155D02*
X0586500Y0263155D01*
X0586500Y0262156D02*
X0557921Y0262156D01*
X0557921Y0261158D02*
X0586500Y0261158D01*
X0586500Y0260159D02*
X0557921Y0260159D01*
X0557921Y0259161D02*
X0586500Y0259161D01*
X0586500Y0258162D02*
X0557921Y0258162D01*
X0557921Y0257164D02*
X0586500Y0257164D01*
X0586500Y0256165D02*
X0557921Y0256165D01*
X0557921Y0255167D02*
X0586500Y0255167D01*
X0586500Y0254168D02*
X0557921Y0254168D01*
X0557921Y0253170D02*
X0586500Y0253170D01*
X0586500Y0252171D02*
X0557921Y0252171D01*
X0557921Y0251172D02*
X0586500Y0251172D01*
X0586500Y0250174D02*
X0557921Y0250174D01*
X0557921Y0249175D02*
X0586500Y0249175D01*
X0586500Y0248177D02*
X0557921Y0248177D01*
X0557921Y0247178D02*
X0586500Y0247178D01*
X0586500Y0246180D02*
X0557921Y0246180D01*
X0557921Y0245181D02*
X0586500Y0245181D01*
X0586500Y0244183D02*
X0557921Y0244183D01*
X0557921Y0243184D02*
X0586500Y0243184D01*
X0586500Y0242186D02*
X0557921Y0242186D01*
X0557921Y0241187D02*
X0586500Y0241187D01*
X0586500Y0240189D02*
X0557921Y0240189D01*
X0557921Y0239190D02*
X0586500Y0239190D01*
X0586500Y0238192D02*
X0557921Y0238192D01*
X0557921Y0237193D02*
X0586500Y0237193D01*
X0586500Y0236195D02*
X0557921Y0236195D01*
X0557921Y0235196D02*
X0586500Y0235196D01*
X0586500Y0234198D02*
X0557921Y0234198D01*
X0557921Y0233199D02*
X0586500Y0233199D01*
X0586500Y0232201D02*
X0557921Y0232201D01*
X0557921Y0231202D02*
X0586500Y0231202D01*
X0586500Y0230204D02*
X0557921Y0230204D01*
X0557921Y0229205D02*
X0586500Y0229205D01*
X0586500Y0228207D02*
X0557921Y0228207D01*
X0557921Y0227208D02*
X0586500Y0227208D01*
X0586500Y0226210D02*
X0557921Y0226210D01*
X0557921Y0225211D02*
X0586500Y0225211D01*
X0586500Y0224213D02*
X0557921Y0224213D01*
X0557921Y0223214D02*
X0586500Y0223214D01*
X0586500Y0222216D02*
X0557921Y0222216D01*
X0557921Y0221217D02*
X0586500Y0221217D01*
X0586500Y0220219D02*
X0557921Y0220219D01*
X0557921Y0219220D02*
X0586500Y0219220D01*
X0586500Y0218222D02*
X0557921Y0218222D01*
X0557921Y0217223D02*
X0586500Y0217223D01*
X0586500Y0216225D02*
X0557921Y0216225D01*
X0557921Y0215226D02*
X0586500Y0215226D01*
X0586500Y0214228D02*
X0557921Y0214228D01*
X0557921Y0213229D02*
X0586500Y0213229D01*
X0586500Y0212231D02*
X0557921Y0212231D01*
X0557921Y0211232D02*
X0586500Y0211232D01*
X0586500Y0210234D02*
X0557921Y0210234D01*
X0557921Y0209235D02*
X0586500Y0209235D01*
X0586500Y0208237D02*
X0557921Y0208237D01*
X0557921Y0207238D02*
X0586500Y0207238D01*
X0586500Y0206239D02*
X0557921Y0206239D01*
X0557921Y0205241D02*
X0586500Y0205241D01*
X0586500Y0204242D02*
X0557921Y0204242D01*
X0557921Y0203244D02*
X0586500Y0203244D01*
X0586500Y0202245D02*
X0557921Y0202245D01*
X0557921Y0201247D02*
X0586500Y0201247D01*
X0586500Y0200248D02*
X0557921Y0200248D01*
X0557921Y0199250D02*
X0586500Y0199250D01*
X0586500Y0198251D02*
X0557921Y0198251D01*
X0557921Y0197253D02*
X0586500Y0197253D01*
X0586500Y0196254D02*
X0557921Y0196254D01*
X0557921Y0195256D02*
X0586500Y0195256D01*
X0586500Y0194257D02*
X0557921Y0194257D01*
X0557921Y0193259D02*
X0586500Y0193259D01*
X0586500Y0192260D02*
X0557921Y0192260D01*
X0557921Y0191262D02*
X0586500Y0191262D01*
X0586500Y0190263D02*
X0557921Y0190263D01*
X0557921Y0189265D02*
X0586500Y0189265D01*
X0586500Y0188266D02*
X0557921Y0188266D01*
X0557921Y0187268D02*
X0586500Y0187268D01*
X0586500Y0186269D02*
X0557921Y0186269D01*
X0557921Y0185271D02*
X0586500Y0185271D01*
X0586500Y0184272D02*
X0557921Y0184272D01*
X0557921Y0183274D02*
X0586500Y0183274D01*
X0586500Y0182275D02*
X0557921Y0182275D01*
X0557921Y0181277D02*
X0586500Y0181277D01*
X0586500Y0180278D02*
X0557921Y0180278D01*
X0557921Y0179280D02*
X0586500Y0179280D01*
X0586500Y0178281D02*
X0557921Y0178281D01*
X0557921Y0177283D02*
X0586500Y0177283D01*
X0586500Y0176284D02*
X0557921Y0176284D01*
X0557921Y0175286D02*
X0586500Y0175286D01*
X0586500Y0174287D02*
X0557921Y0174287D01*
X0557921Y0173289D02*
X0586500Y0173289D01*
X0586500Y0172290D02*
X0557921Y0172290D01*
X0557921Y0171292D02*
X0586500Y0171292D01*
X0586500Y0170293D02*
X0557921Y0170293D01*
X0557921Y0169295D02*
X0586500Y0169295D01*
X0586500Y0168296D02*
X0557921Y0168296D01*
X0557921Y0167298D02*
X0586500Y0167298D01*
X0586500Y0166299D02*
X0557921Y0166299D01*
X0557921Y0165301D02*
X0586500Y0165301D01*
X0586500Y0164302D02*
X0557921Y0164302D01*
X0557921Y0163303D02*
X0586500Y0163303D01*
X0586500Y0162305D02*
X0557921Y0162305D01*
X0557921Y0161306D02*
X0586500Y0161306D01*
X0586500Y0160308D02*
X0557921Y0160308D01*
X0557921Y0159309D02*
X0586500Y0159309D01*
X0586500Y0158311D02*
X0557921Y0158311D01*
X0557921Y0157312D02*
X0586500Y0157312D01*
X0586500Y0156314D02*
X0557921Y0156314D01*
X0566500Y0156314D01*
X0566500Y0155315D02*
X0557921Y0155315D01*
X0586500Y0155315D01*
X0586500Y0154317D02*
X0557921Y0154317D01*
X0566500Y0154317D01*
X0566500Y0153318D02*
X0557921Y0153318D01*
X0586500Y0153318D01*
X0586500Y0152320D02*
X0557921Y0152320D01*
X0566500Y0152320D01*
X0566500Y0151321D02*
X0557921Y0151321D01*
X0586500Y0151321D01*
X0586500Y0150323D02*
X0557921Y0150323D01*
X0566500Y0150323D01*
X0566500Y0149324D02*
X0557921Y0149324D01*
X0586500Y0149324D01*
X0586500Y0148326D02*
X0557921Y0148326D01*
X0566500Y0148326D01*
X0566500Y0147327D02*
X0557921Y0147327D01*
X0586500Y0147327D01*
X0586500Y0146329D02*
X0557921Y0146329D01*
X0566500Y0146329D01*
X0566500Y0145330D02*
X0557921Y0145330D01*
X0586500Y0145330D01*
X0586500Y0144332D02*
X0557921Y0144332D01*
X0566500Y0144332D01*
X0566500Y0143333D02*
X0557921Y0143333D01*
X0586500Y0143333D01*
X0586500Y0142335D02*
X0557921Y0142335D01*
X0566500Y0142335D01*
X0566500Y0141336D02*
X0557921Y0141336D01*
X0586500Y0141336D01*
X0586500Y0140338D02*
X0557921Y0140338D01*
X0566500Y0140338D01*
X0566500Y0139339D02*
X0557921Y0139339D01*
X0586500Y0139339D01*
X0586500Y0138341D02*
X0557921Y0138341D01*
X0566500Y0138341D01*
X0566500Y0137342D02*
X0557921Y0137342D01*
X0586500Y0137342D01*
X0586500Y0136344D02*
X0557921Y0136344D01*
X0566500Y0136344D01*
X0566500Y0135345D02*
X0557921Y0135345D01*
X0586500Y0135345D01*
X0586500Y0134347D02*
X0557921Y0134347D01*
X0566500Y0134347D01*
X0566500Y0133348D02*
X0557921Y0133348D01*
X0586500Y0133348D01*
X0586500Y0132350D02*
X0557921Y0132350D01*
X0566500Y0132350D01*
X0566500Y0131351D02*
X0557921Y0131351D01*
X0586500Y0131351D01*
X0586500Y0130353D02*
X0557921Y0130353D01*
X0566500Y0130353D01*
X0566500Y0129354D02*
X0557921Y0129354D01*
X0586500Y0129354D01*
X0586500Y0128356D02*
X0557921Y0128356D01*
X0566500Y0128356D01*
X0566500Y0127357D02*
X0557921Y0127357D01*
X0586500Y0127357D01*
X0586500Y0126359D02*
X0557921Y0126359D01*
X0566500Y0126359D01*
X0566500Y0125360D02*
X0557921Y0125360D01*
X0586500Y0125360D01*
X0586500Y0124362D02*
X0557921Y0124362D01*
X0566500Y0124362D01*
X0566500Y0123363D02*
X0557921Y0123363D01*
X0586500Y0123363D01*
X0586500Y0122365D02*
X0557921Y0122365D01*
X0566500Y0122365D01*
X0566500Y0121366D02*
X0557921Y0121366D01*
X0586500Y0121366D01*
X0586500Y0120368D02*
X0557921Y0120368D01*
X0566500Y0120368D01*
X0566500Y0119369D02*
X0557921Y0119369D01*
X0586500Y0119369D01*
X0586500Y0118370D02*
X0557921Y0118370D01*
X0566500Y0118370D01*
X0566500Y0117372D02*
X0557921Y0117372D01*
X0586500Y0117372D01*
X0586500Y0116373D02*
X0557921Y0116373D01*
X0566500Y0116373D01*
X0566500Y0115375D02*
X0557921Y0115375D01*
X0586500Y0115375D01*
X0586500Y0114376D02*
X0557921Y0114376D01*
X0566500Y0114376D01*
X0566500Y0113378D02*
X0557921Y0113378D01*
X0586500Y0113378D01*
X0586500Y0112379D02*
X0557921Y0112379D01*
X0566500Y0112379D01*
X0566500Y0111381D02*
X0557921Y0111381D01*
X0586500Y0111381D01*
X0586500Y0110382D02*
X0557921Y0110382D01*
X0566500Y0110382D01*
X0566500Y0109384D02*
X0557921Y0109384D01*
X0586500Y0109384D01*
X0586500Y0108385D02*
X0557921Y0108385D01*
X0566500Y0108385D01*
X0566500Y0107387D02*
X0557921Y0107387D01*
X0586500Y0107387D01*
X0586500Y0106388D02*
X0557921Y0106388D01*
X0566500Y0106388D01*
X0566500Y0105390D02*
X0557921Y0105390D01*
X0586500Y0105390D01*
X0586500Y0104391D02*
X0557921Y0104391D01*
X0566500Y0104391D01*
X0566500Y0103393D02*
X0557921Y0103393D01*
X0586500Y0103393D01*
X0586500Y0102394D02*
X0557921Y0102394D01*
X0566500Y0102394D01*
X0566500Y0101396D02*
X0557921Y0101396D01*
X0586500Y0101396D01*
X0586500Y0100397D02*
X0557921Y0100397D01*
X0566500Y0100397D01*
X0566500Y0099399D02*
X0557921Y0099399D01*
X0586500Y0099399D01*
X0586500Y0098400D02*
X0557921Y0098400D01*
X0566500Y0098400D01*
X0566500Y0097402D02*
X0557921Y0097402D01*
X0586500Y0097402D01*
X0586500Y0096403D02*
X0557921Y0096403D01*
X0566500Y0096403D01*
X0566500Y0095405D02*
X0557921Y0095405D01*
X0586500Y0095405D01*
X0586500Y0094406D02*
X0557921Y0094406D01*
X0566500Y0094406D01*
X0566500Y0093408D02*
X0557921Y0093408D01*
X0586500Y0093408D01*
X0586500Y0092409D02*
X0557921Y0092409D01*
X0566500Y0092409D01*
X0566500Y0091411D02*
X0557921Y0091411D01*
X0586500Y0091411D01*
X0586500Y0090412D02*
X0557921Y0090412D01*
X0566500Y0090412D01*
X0566500Y0089414D02*
X0557921Y0089414D01*
X0586500Y0089414D01*
X0586500Y0088415D02*
X0557921Y0088415D01*
X0566500Y0088415D01*
X0566500Y0087417D02*
X0557921Y0087417D01*
X0586500Y0087417D01*
X0586500Y0086418D02*
X0557921Y0086418D01*
X0566500Y0086418D01*
X0566500Y0085420D02*
X0557921Y0085420D01*
X0586500Y0085420D01*
X0586500Y0084421D02*
X0557921Y0084421D01*
X0566500Y0084421D01*
X0566500Y0083423D02*
X0557921Y0083423D01*
X0586500Y0083423D01*
X0586500Y0082424D02*
X0557921Y0082424D01*
X0566500Y0082424D01*
X0566500Y0081426D02*
X0557921Y0081426D01*
X0586500Y0081426D01*
X0586500Y0080427D02*
X0557921Y0080427D01*
X0566500Y0080427D01*
X0566500Y0079429D02*
X0557921Y0079429D01*
X0586500Y0079429D01*
X0586500Y0078430D02*
X0557921Y0078430D01*
X0566500Y0078430D01*
X0566500Y0077432D02*
X0557921Y0077432D01*
X0586500Y0077432D01*
X0586500Y0076433D02*
X0557921Y0076433D01*
X0566500Y0076433D01*
X0566500Y0075434D02*
X0557921Y0075434D01*
X0586500Y0075434D01*
X0586500Y0074436D02*
X0557921Y0074436D01*
X0566500Y0074436D01*
X0566500Y0073437D02*
X0557921Y0073437D01*
X0586500Y0073437D01*
X0586500Y0072439D02*
X0557921Y0072439D01*
X0566500Y0072439D01*
X0566500Y0071440D02*
X0557921Y0071440D01*
X0586500Y0071440D01*
X0586500Y0070442D02*
X0557921Y0070442D01*
X0566500Y0070442D01*
X0566500Y0069443D02*
X0557921Y0069443D01*
X0586500Y0069443D01*
X0586500Y0068445D02*
X0557921Y0068445D01*
X0566500Y0068445D01*
X0566500Y0067446D02*
X0557921Y0067446D01*
X0586500Y0067446D01*
X0586500Y0066448D02*
X0557921Y0066448D01*
X0566500Y0066448D01*
X0566500Y0065449D02*
X0557921Y0065449D01*
X0586500Y0065449D01*
X0586500Y0064451D02*
X0557921Y0064451D01*
X0566500Y0064451D01*
X0566500Y0063452D02*
X0557921Y0063452D01*
X0586500Y0063452D01*
X0586500Y0062454D02*
X0557921Y0062454D01*
X0566500Y0062454D01*
X0566500Y0061455D02*
X0557921Y0061455D01*
X0586500Y0061455D01*
X0586500Y0060457D02*
X0557921Y0060457D01*
X0566500Y0060457D01*
X0566500Y0059458D02*
X0557921Y0059458D01*
X0586500Y0059458D01*
X0586500Y0058460D02*
X0557921Y0058460D01*
X0566500Y0058460D01*
X0566500Y0057461D02*
X0557921Y0057461D01*
X0586500Y0057461D01*
X0586500Y0056463D02*
X0557921Y0056463D01*
X0566500Y0056463D01*
X0566500Y0055464D02*
X0557921Y0055464D01*
X0586500Y0055464D01*
X0586500Y0054466D02*
X0557921Y0054466D01*
X0566500Y0054466D01*
X0566500Y0053467D02*
X0557921Y0053467D01*
X0586500Y0053467D01*
X0586500Y0052469D02*
X0557921Y0052469D01*
X0566500Y0052469D01*
X0566500Y0051470D02*
X0557921Y0051470D01*
X0586500Y0051470D01*
X0586500Y0050472D02*
X0557921Y0050472D01*
X0566500Y0050472D01*
X0566500Y0049473D02*
X0557921Y0049473D01*
X0586500Y0049473D01*
X0586500Y0048475D02*
X0557921Y0048475D01*
X0566500Y0048475D01*
X0566500Y0047476D02*
X0557921Y0047476D01*
X0586500Y0047476D01*
X0586500Y0046478D02*
X0557921Y0046478D01*
X0566500Y0046478D01*
X0566500Y0045479D02*
X0557921Y0045479D01*
X0586500Y0045479D01*
X0586500Y0044481D02*
X0557921Y0044481D01*
X0566500Y0044481D01*
X0566500Y0043482D02*
X0557921Y0043482D01*
X0586500Y0043482D01*
X0586500Y0042484D02*
X0557921Y0042484D01*
X0566500Y0042484D01*
X0566500Y0041485D02*
X0557921Y0041485D01*
X0586500Y0041485D01*
X0586500Y0040487D02*
X0557921Y0040487D01*
X0566500Y0040487D01*
X0566500Y0039488D02*
X0557921Y0039488D01*
X0586500Y0039488D01*
X0586500Y0038490D02*
X0557921Y0038490D01*
X0566500Y0038490D01*
X0566500Y0037491D02*
X0557921Y0037491D01*
X0586500Y0037491D01*
X0586500Y0036493D02*
X0557921Y0036493D01*
X0566500Y0036493D01*
X0566500Y0035494D02*
X0557921Y0035494D01*
X0586500Y0035494D01*
X0586500Y0034496D02*
X0557921Y0034496D01*
X0566500Y0034496D01*
X0566500Y0033497D02*
X0557921Y0033497D01*
X0586500Y0033497D01*
X0586500Y0032499D02*
X0557921Y0032499D01*
X0566500Y0032499D01*
X0566500Y0031500D02*
X0557921Y0031500D01*
X0586500Y0031500D01*
X0566500Y0028504D02*
X0021500Y0028504D01*
X0021500Y0027506D02*
X0566500Y0027506D01*
X0566500Y0026507D02*
X0021500Y0026507D01*
X0021500Y0025509D02*
X0566500Y0025509D01*
X0566500Y0024510D02*
X0021500Y0024510D01*
X0021500Y0023512D02*
X0566500Y0023512D01*
X0566500Y0022513D02*
X0021500Y0022513D01*
X0021500Y0021515D02*
X0566500Y0021515D01*
X0554921Y0033000D02*
X0033000Y0033000D01*
X0033000Y0156500D01*
X0041500Y0156500D01*
X0041500Y0061500D01*
X0061500Y0061500D01*
X0061500Y0041500D01*
X0091500Y0041500D01*
X0091500Y0046500D01*
X0131500Y0046500D01*
X0131500Y0041500D01*
X0526500Y0041500D01*
X0526500Y0061500D01*
X0546500Y0061500D01*
X0546500Y0156500D01*
X0554921Y0156500D01*
X0554921Y0033000D01*
X0033000Y0033000D01*
X0033000Y0280000D01*
X0554921Y0280000D01*
X0554921Y0033000D01*
X0554921Y0033497D02*
X0033000Y0033497D01*
X0554921Y0033497D01*
X0554921Y0034496D02*
X0033000Y0034496D01*
X0554921Y0034496D01*
X0554921Y0035494D02*
X0033000Y0035494D01*
X0554921Y0035494D01*
X0554921Y0036493D02*
X0033000Y0036493D01*
X0554921Y0036493D01*
X0554921Y0037491D02*
X0545228Y0037491D01*
X0554921Y0037491D01*
X0554921Y0038490D02*
X0547278Y0038490D01*
X0554921Y0038490D01*
X0554921Y0039488D02*
X0548277Y0039488D01*
X0554921Y0039488D01*
X0554921Y0040487D02*
X0549275Y0040487D01*
X0554921Y0040487D01*
X0554921Y0041485D02*
X0549976Y0041485D01*
X0554921Y0041485D01*
X0554921Y0042484D02*
X0550390Y0042484D01*
X0554921Y0042484D01*
X0554921Y0043482D02*
X0550803Y0043482D01*
X0554921Y0043482D01*
X0554921Y0044481D02*
X0551217Y0044481D01*
X0554921Y0044481D01*
X0554921Y0045479D02*
X0551250Y0045479D01*
X0554921Y0045479D01*
X0554921Y0046478D02*
X0551250Y0046478D01*
X0554921Y0046478D01*
X0554921Y0047476D02*
X0551250Y0047476D01*
X0554921Y0047476D01*
X0554921Y0048475D02*
X0551235Y0048475D01*
X0554921Y0048475D01*
X0554921Y0049473D02*
X0550822Y0049473D01*
X0554921Y0049473D01*
X0554921Y0050472D02*
X0550408Y0050472D01*
X0554921Y0050472D01*
X0554921Y0051470D02*
X0549995Y0051470D01*
X0554921Y0051470D01*
X0554921Y0052469D02*
X0549320Y0052469D01*
X0554921Y0052469D01*
X0554921Y0053467D02*
X0548321Y0053467D01*
X0554921Y0053467D01*
X0554921Y0054466D02*
X0547323Y0054466D01*
X0554921Y0054466D01*
X0554921Y0055464D02*
X0545336Y0055464D01*
X0554921Y0055464D01*
X0554921Y0056463D02*
X0526500Y0056463D01*
X0526500Y0057461D02*
X0554921Y0057461D01*
X0121497Y0057461D01*
X0127500Y0057461D01*
X0127500Y0056463D02*
X0094500Y0056463D01*
X0094500Y0057461D02*
X0101503Y0057461D01*
X0033000Y0057461D01*
X0061500Y0057461D01*
X0061500Y0056463D02*
X0033000Y0056463D01*
X0554921Y0056463D01*
X0554921Y0058460D02*
X0526500Y0058460D01*
X0526500Y0059458D02*
X0554921Y0059458D01*
X0123520Y0059458D01*
X0127500Y0059458D01*
X0127500Y0058460D02*
X0122970Y0058460D01*
X0554921Y0058460D01*
X0554921Y0060457D02*
X0526500Y0060457D01*
X0526500Y0061455D02*
X0554921Y0061455D01*
X0516356Y0061455D01*
X0515613Y0061148D02*
X0517175Y0061795D01*
X0518371Y0062990D01*
X0519018Y0064552D01*
X0519018Y0066243D01*
X0518371Y0067805D01*
X0517175Y0069001D01*
X0515613Y0069648D01*
X0513922Y0069648D01*
X0512360Y0069001D01*
X0511165Y0067805D01*
X0510518Y0066243D01*
X0510518Y0064552D01*
X0511165Y0062990D01*
X0512360Y0061795D01*
X0513922Y0061148D01*
X0515613Y0061148D01*
X0513179Y0061455D02*
X0506356Y0061455D01*
X0505613Y0061148D02*
X0507175Y0061795D01*
X0508371Y0062990D01*
X0509018Y0064552D01*
X0509018Y0066243D01*
X0508371Y0067805D01*
X0507175Y0069001D01*
X0505613Y0069648D01*
X0503922Y0069648D01*
X0502360Y0069001D01*
X0501165Y0067805D01*
X0500518Y0066243D01*
X0500518Y0064552D01*
X0501165Y0062990D01*
X0502360Y0061795D01*
X0503922Y0061148D01*
X0505613Y0061148D01*
X0503179Y0061455D02*
X0496356Y0061455D01*
X0495613Y0061148D02*
X0497175Y0061795D01*
X0498371Y0062990D01*
X0499018Y0064552D01*
X0499018Y0066243D01*
X0498371Y0067805D01*
X0497175Y0069001D01*
X0495613Y0069648D01*
X0493922Y0069648D01*
X0492360Y0069001D01*
X0491165Y0067805D01*
X0490518Y0066243D01*
X0490518Y0064552D01*
X0491165Y0062990D01*
X0492360Y0061795D01*
X0493922Y0061148D01*
X0495613Y0061148D01*
X0493179Y0061455D02*
X0486356Y0061455D01*
X0485613Y0061148D02*
X0487175Y0061795D01*
X0488371Y0062990D01*
X0489018Y0064552D01*
X0489018Y0066243D01*
X0488371Y0067805D01*
X0487175Y0069001D01*
X0485613Y0069648D01*
X0483922Y0069648D01*
X0482360Y0069001D01*
X0481165Y0067805D01*
X0480518Y0066243D01*
X0480518Y0064552D01*
X0481165Y0062990D01*
X0482360Y0061795D01*
X0483922Y0061148D01*
X0485613Y0061148D01*
X0483179Y0061455D02*
X0476356Y0061455D01*
X0475613Y0061148D02*
X0477175Y0061795D01*
X0478371Y0062990D01*
X0479018Y0064552D01*
X0479018Y0066243D01*
X0478371Y0067805D01*
X0477175Y0069001D01*
X0475613Y0069648D01*
X0473922Y0069648D01*
X0472360Y0069001D01*
X0471165Y0067805D01*
X0470518Y0066243D01*
X0470518Y0064552D01*
X0471165Y0062990D01*
X0472360Y0061795D01*
X0473922Y0061148D01*
X0475613Y0061148D01*
X0473179Y0061455D02*
X0466356Y0061455D01*
X0465613Y0061148D02*
X0467175Y0061795D01*
X0468371Y0062990D01*
X0469018Y0064552D01*
X0469018Y0066243D01*
X0468371Y0067805D01*
X0467175Y0069001D01*
X0465613Y0069648D01*
X0463922Y0069648D01*
X0462360Y0069001D01*
X0461165Y0067805D01*
X0460518Y0066243D01*
X0460518Y0064552D01*
X0461165Y0062990D01*
X0462360Y0061795D01*
X0463922Y0061148D01*
X0465613Y0061148D01*
X0463179Y0061455D02*
X0456356Y0061455D01*
X0455613Y0061148D02*
X0457175Y0061795D01*
X0458371Y0062990D01*
X0459018Y0064552D01*
X0459018Y0066243D01*
X0458371Y0067805D01*
X0457175Y0069001D01*
X0455613Y0069648D01*
X0453922Y0069648D01*
X0452360Y0069001D01*
X0451165Y0067805D01*
X0450518Y0066243D01*
X0450518Y0064552D01*
X0451165Y0062990D01*
X0452360Y0061795D01*
X0453922Y0061148D01*
X0455613Y0061148D01*
X0453179Y0061455D02*
X0446356Y0061455D01*
X0445613Y0061148D02*
X0447175Y0061795D01*
X0448371Y0062990D01*
X0449018Y0064552D01*
X0449018Y0066243D01*
X0448371Y0067805D01*
X0447175Y0069001D01*
X0445613Y0069648D01*
X0443922Y0069648D01*
X0442360Y0069001D01*
X0441165Y0067805D01*
X0440518Y0066243D01*
X0440518Y0064552D01*
X0441165Y0062990D01*
X0442360Y0061795D01*
X0443922Y0061148D01*
X0445613Y0061148D01*
X0443179Y0061455D02*
X0436356Y0061455D01*
X0435613Y0061148D02*
X0437175Y0061795D01*
X0438371Y0062990D01*
X0439018Y0064552D01*
X0439018Y0066243D01*
X0438371Y0067805D01*
X0437175Y0069001D01*
X0435613Y0069648D01*
X0433922Y0069648D01*
X0432360Y0069001D01*
X0431165Y0067805D01*
X0430518Y0066243D01*
X0430518Y0064552D01*
X0431165Y0062990D01*
X0432360Y0061795D01*
X0433922Y0061148D01*
X0435613Y0061148D01*
X0433179Y0061455D02*
X0426356Y0061455D01*
X0425613Y0061148D02*
X0427175Y0061795D01*
X0428371Y0062990D01*
X0429018Y0064552D01*
X0429018Y0066243D01*
X0428371Y0067805D01*
X0427175Y0069001D01*
X0425613Y0069648D01*
X0423922Y0069648D01*
X0422360Y0069001D01*
X0421165Y0067805D01*
X0420518Y0066243D01*
X0420518Y0064552D01*
X0421165Y0062990D01*
X0422360Y0061795D01*
X0423922Y0061148D01*
X0425613Y0061148D01*
X0423179Y0061455D02*
X0416356Y0061455D01*
X0415613Y0061148D02*
X0417175Y0061795D01*
X0418371Y0062990D01*
X0419018Y0064552D01*
X0419018Y0066243D01*
X0418371Y0067805D01*
X0417175Y0069001D01*
X0415613Y0069648D01*
X0413922Y0069648D01*
X0412360Y0069001D01*
X0411165Y0067805D01*
X0410518Y0066243D01*
X0410518Y0064552D01*
X0411165Y0062990D01*
X0412360Y0061795D01*
X0413922Y0061148D01*
X0415613Y0061148D01*
X0413179Y0061455D02*
X0406356Y0061455D01*
X0405613Y0061148D02*
X0407175Y0061795D01*
X0408371Y0062990D01*
X0409018Y0064552D01*
X0409018Y0066243D01*
X0408371Y0067805D01*
X0407175Y0069001D01*
X0405613Y0069648D01*
X0403922Y0069648D01*
X0402360Y0069001D01*
X0401165Y0067805D01*
X0400518Y0066243D01*
X0400518Y0064552D01*
X0401165Y0062990D01*
X0402360Y0061795D01*
X0403922Y0061148D01*
X0405613Y0061148D01*
X0403179Y0061455D02*
X0396356Y0061455D01*
X0395613Y0061148D02*
X0397175Y0061795D01*
X0398371Y0062990D01*
X0399018Y0064552D01*
X0399018Y0066243D01*
X0398371Y0067805D01*
X0397175Y0069001D01*
X0395613Y0069648D01*
X0393922Y0069648D01*
X0392360Y0069001D01*
X0391165Y0067805D01*
X0390518Y0066243D01*
X0390518Y0064552D01*
X0391165Y0062990D01*
X0392360Y0061795D01*
X0393922Y0061148D01*
X0395613Y0061148D01*
X0393179Y0061455D02*
X0386356Y0061455D01*
X0385613Y0061148D02*
X0387175Y0061795D01*
X0388371Y0062990D01*
X0389018Y0064552D01*
X0389018Y0066243D01*
X0388371Y0067805D01*
X0387175Y0069001D01*
X0385613Y0069648D01*
X0383922Y0069648D01*
X0382360Y0069001D01*
X0381165Y0067805D01*
X0380518Y0066243D01*
X0380518Y0064552D01*
X0381165Y0062990D01*
X0382360Y0061795D01*
X0383922Y0061148D01*
X0385613Y0061148D01*
X0383179Y0061455D02*
X0376356Y0061455D01*
X0375613Y0061148D02*
X0377175Y0061795D01*
X0378371Y0062990D01*
X0379018Y0064552D01*
X0379018Y0066243D01*
X0378371Y0067805D01*
X0377175Y0069001D01*
X0375613Y0069648D01*
X0373922Y0069648D01*
X0372360Y0069001D01*
X0371165Y0067805D01*
X0370518Y0066243D01*
X0370518Y0064552D01*
X0371165Y0062990D01*
X0372360Y0061795D01*
X0373922Y0061148D01*
X0375613Y0061148D01*
X0373179Y0061455D02*
X0366356Y0061455D01*
X0365613Y0061148D02*
X0367175Y0061795D01*
X0368371Y0062990D01*
X0369018Y0064552D01*
X0369018Y0066243D01*
X0368371Y0067805D01*
X0367175Y0069001D01*
X0365613Y0069648D01*
X0363922Y0069648D01*
X0362360Y0069001D01*
X0361165Y0067805D01*
X0360518Y0066243D01*
X0360518Y0064552D01*
X0361165Y0062990D01*
X0362360Y0061795D01*
X0363922Y0061148D01*
X0365613Y0061148D01*
X0363179Y0061455D02*
X0356356Y0061455D01*
X0355613Y0061148D02*
X0357175Y0061795D01*
X0358371Y0062990D01*
X0359018Y0064552D01*
X0359018Y0066243D01*
X0358371Y0067805D01*
X0357175Y0069001D01*
X0355613Y0069648D01*
X0353922Y0069648D01*
X0352360Y0069001D01*
X0351165Y0067805D01*
X0350518Y0066243D01*
X0350518Y0064552D01*
X0351165Y0062990D01*
X0352360Y0061795D01*
X0353922Y0061148D01*
X0355613Y0061148D01*
X0353179Y0061455D02*
X0346356Y0061455D01*
X0345613Y0061148D02*
X0347175Y0061795D01*
X0348371Y0062990D01*
X0349018Y0064552D01*
X0349018Y0066243D01*
X0348371Y0067805D01*
X0347175Y0069001D01*
X0345613Y0069648D01*
X0343922Y0069648D01*
X0342360Y0069001D01*
X0341165Y0067805D01*
X0340518Y0066243D01*
X0340518Y0064552D01*
X0341165Y0062990D01*
X0342360Y0061795D01*
X0343922Y0061148D01*
X0345613Y0061148D01*
X0343179Y0061455D02*
X0123556Y0061455D01*
X0127500Y0061455D01*
X0127500Y0060457D02*
X0123689Y0060457D01*
X0554921Y0060457D01*
X0554921Y0062454D02*
X0546500Y0062454D01*
X0546500Y0063452D02*
X0554921Y0063452D01*
X0518562Y0063452D01*
X0518976Y0064451D02*
X0554921Y0064451D01*
X0546500Y0064451D01*
X0546500Y0065449D02*
X0554921Y0065449D01*
X0519018Y0065449D01*
X0518933Y0066448D02*
X0554921Y0066448D01*
X0546500Y0066448D01*
X0546500Y0067446D02*
X0554921Y0067446D01*
X0518519Y0067446D01*
X0517731Y0068445D02*
X0554921Y0068445D01*
X0546500Y0068445D01*
X0546500Y0069443D02*
X0554921Y0069443D01*
X0516106Y0069443D01*
X0515613Y0071148D02*
X0517175Y0071795D01*
X0518371Y0072990D01*
X0519018Y0074552D01*
X0519018Y0076243D01*
X0518371Y0077805D01*
X0517175Y0079001D01*
X0515613Y0079648D01*
X0513922Y0079648D01*
X0512360Y0079001D01*
X0511165Y0077805D01*
X0510518Y0076243D01*
X0510518Y0074552D01*
X0511165Y0072990D01*
X0512360Y0071795D01*
X0513922Y0071148D01*
X0515613Y0071148D01*
X0516320Y0071440D02*
X0554921Y0071440D01*
X0546500Y0071440D01*
X0546500Y0070442D02*
X0554921Y0070442D01*
X0033000Y0070442D01*
X0041500Y0070442D01*
X0041500Y0071440D02*
X0033000Y0071440D01*
X0343215Y0071440D01*
X0343922Y0071148D02*
X0345613Y0071148D01*
X0347175Y0071795D01*
X0348371Y0072990D01*
X0349018Y0074552D01*
X0349018Y0076243D01*
X0348371Y0077805D01*
X0347175Y0079001D01*
X0345613Y0079648D01*
X0343922Y0079648D01*
X0342360Y0079001D01*
X0341165Y0077805D01*
X0340518Y0076243D01*
X0340518Y0074552D01*
X0341165Y0072990D01*
X0342360Y0071795D01*
X0343922Y0071148D01*
X0343429Y0069443D02*
X0033000Y0069443D01*
X0041500Y0069443D01*
X0041500Y0068445D02*
X0033000Y0068445D01*
X0341805Y0068445D01*
X0341016Y0067446D02*
X0033000Y0067446D01*
X0041500Y0067446D01*
X0041500Y0066448D02*
X0033000Y0066448D01*
X0340603Y0066448D01*
X0340518Y0065449D02*
X0033000Y0065449D01*
X0041500Y0065449D01*
X0041500Y0064451D02*
X0033000Y0064451D01*
X0340560Y0064451D01*
X0340973Y0063452D02*
X0121706Y0063452D01*
X0127500Y0063452D01*
X0127500Y0062454D02*
X0123056Y0062454D01*
X0341701Y0062454D01*
X0347834Y0062454D02*
X0351701Y0062454D01*
X0350973Y0063452D02*
X0348562Y0063452D01*
X0348976Y0064451D02*
X0350560Y0064451D01*
X0350518Y0065449D02*
X0349018Y0065449D01*
X0348933Y0066448D02*
X0350603Y0066448D01*
X0351016Y0067446D02*
X0348519Y0067446D01*
X0347731Y0068445D02*
X0351805Y0068445D01*
X0353429Y0069443D02*
X0346106Y0069443D01*
X0346320Y0071440D02*
X0353215Y0071440D01*
X0353922Y0071148D02*
X0355613Y0071148D01*
X0357175Y0071795D01*
X0358371Y0072990D01*
X0359018Y0074552D01*
X0359018Y0076243D01*
X0358371Y0077805D01*
X0357175Y0079001D01*
X0355613Y0079648D01*
X0353922Y0079648D01*
X0352360Y0079001D01*
X0351165Y0077805D01*
X0350518Y0076243D01*
X0350518Y0074552D01*
X0351165Y0072990D01*
X0352360Y0071795D01*
X0353922Y0071148D01*
X0356320Y0071440D02*
X0363215Y0071440D01*
X0363922Y0071148D02*
X0365613Y0071148D01*
X0367175Y0071795D01*
X0368371Y0072990D01*
X0369018Y0074552D01*
X0369018Y0076243D01*
X0368371Y0077805D01*
X0367175Y0079001D01*
X0365613Y0079648D01*
X0363922Y0079648D01*
X0362360Y0079001D01*
X0361165Y0077805D01*
X0360518Y0076243D01*
X0360518Y0074552D01*
X0361165Y0072990D01*
X0362360Y0071795D01*
X0363922Y0071148D01*
X0363429Y0069443D02*
X0356106Y0069443D01*
X0357731Y0068445D02*
X0361805Y0068445D01*
X0361016Y0067446D02*
X0358519Y0067446D01*
X0358933Y0066448D02*
X0360603Y0066448D01*
X0360518Y0065449D02*
X0359018Y0065449D01*
X0358976Y0064451D02*
X0360560Y0064451D01*
X0360973Y0063452D02*
X0358562Y0063452D01*
X0357834Y0062454D02*
X0361701Y0062454D01*
X0367834Y0062454D02*
X0371701Y0062454D01*
X0370973Y0063452D02*
X0368562Y0063452D01*
X0368976Y0064451D02*
X0370560Y0064451D01*
X0370518Y0065449D02*
X0369018Y0065449D01*
X0368933Y0066448D02*
X0370603Y0066448D01*
X0371016Y0067446D02*
X0368519Y0067446D01*
X0367731Y0068445D02*
X0371805Y0068445D01*
X0373429Y0069443D02*
X0366106Y0069443D01*
X0366320Y0071440D02*
X0373215Y0071440D01*
X0373922Y0071148D02*
X0375613Y0071148D01*
X0377175Y0071795D01*
X0378371Y0072990D01*
X0379018Y0074552D01*
X0379018Y0076243D01*
X0378371Y0077805D01*
X0377175Y0079001D01*
X0375613Y0079648D01*
X0373922Y0079648D01*
X0372360Y0079001D01*
X0371165Y0077805D01*
X0370518Y0076243D01*
X0370518Y0074552D01*
X0371165Y0072990D01*
X0372360Y0071795D01*
X0373922Y0071148D01*
X0376320Y0071440D02*
X0383215Y0071440D01*
X0383922Y0071148D02*
X0385613Y0071148D01*
X0387175Y0071795D01*
X0388371Y0072990D01*
X0389018Y0074552D01*
X0389018Y0076243D01*
X0388371Y0077805D01*
X0387175Y0079001D01*
X0385613Y0079648D01*
X0383922Y0079648D01*
X0382360Y0079001D01*
X0381165Y0077805D01*
X0380518Y0076243D01*
X0380518Y0074552D01*
X0381165Y0072990D01*
X0382360Y0071795D01*
X0383922Y0071148D01*
X0383429Y0069443D02*
X0376106Y0069443D01*
X0377731Y0068445D02*
X0381805Y0068445D01*
X0381016Y0067446D02*
X0378519Y0067446D01*
X0378933Y0066448D02*
X0380603Y0066448D01*
X0380518Y0065449D02*
X0379018Y0065449D01*
X0378976Y0064451D02*
X0380560Y0064451D01*
X0380973Y0063452D02*
X0378562Y0063452D01*
X0377834Y0062454D02*
X0381701Y0062454D01*
X0387834Y0062454D02*
X0391701Y0062454D01*
X0390973Y0063452D02*
X0388562Y0063452D01*
X0388976Y0064451D02*
X0390560Y0064451D01*
X0390518Y0065449D02*
X0389018Y0065449D01*
X0388933Y0066448D02*
X0390603Y0066448D01*
X0391016Y0067446D02*
X0388519Y0067446D01*
X0387731Y0068445D02*
X0391805Y0068445D01*
X0393429Y0069443D02*
X0386106Y0069443D01*
X0386320Y0071440D02*
X0393215Y0071440D01*
X0393922Y0071148D02*
X0395613Y0071148D01*
X0397175Y0071795D01*
X0398371Y0072990D01*
X0399018Y0074552D01*
X0399018Y0076243D01*
X0398371Y0077805D01*
X0397175Y0079001D01*
X0395613Y0079648D01*
X0393922Y0079648D01*
X0392360Y0079001D01*
X0391165Y0077805D01*
X0390518Y0076243D01*
X0390518Y0074552D01*
X0391165Y0072990D01*
X0392360Y0071795D01*
X0393922Y0071148D01*
X0396320Y0071440D02*
X0403215Y0071440D01*
X0403922Y0071148D02*
X0405613Y0071148D01*
X0407175Y0071795D01*
X0408371Y0072990D01*
X0409018Y0074552D01*
X0409018Y0076243D01*
X0408371Y0077805D01*
X0407175Y0079001D01*
X0405613Y0079648D01*
X0403922Y0079648D01*
X0402360Y0079001D01*
X0401165Y0077805D01*
X0400518Y0076243D01*
X0400518Y0074552D01*
X0401165Y0072990D01*
X0402360Y0071795D01*
X0403922Y0071148D01*
X0403429Y0069443D02*
X0396106Y0069443D01*
X0397731Y0068445D02*
X0401805Y0068445D01*
X0401016Y0067446D02*
X0398519Y0067446D01*
X0398933Y0066448D02*
X0400603Y0066448D01*
X0400518Y0065449D02*
X0399018Y0065449D01*
X0398976Y0064451D02*
X0400560Y0064451D01*
X0400973Y0063452D02*
X0398562Y0063452D01*
X0397834Y0062454D02*
X0401701Y0062454D01*
X0407834Y0062454D02*
X0411701Y0062454D01*
X0410973Y0063452D02*
X0408562Y0063452D01*
X0408976Y0064451D02*
X0410560Y0064451D01*
X0410518Y0065449D02*
X0409018Y0065449D01*
X0408933Y0066448D02*
X0410603Y0066448D01*
X0411016Y0067446D02*
X0408519Y0067446D01*
X0407731Y0068445D02*
X0411805Y0068445D01*
X0413429Y0069443D02*
X0406106Y0069443D01*
X0406320Y0071440D02*
X0413215Y0071440D01*
X0413922Y0071148D02*
X0415613Y0071148D01*
X0417175Y0071795D01*
X0418371Y0072990D01*
X0419018Y0074552D01*
X0419018Y0076243D01*
X0418371Y0077805D01*
X0417175Y0079001D01*
X0415613Y0079648D01*
X0413922Y0079648D01*
X0412360Y0079001D01*
X0411165Y0077805D01*
X0410518Y0076243D01*
X0410518Y0074552D01*
X0411165Y0072990D01*
X0412360Y0071795D01*
X0413922Y0071148D01*
X0416320Y0071440D02*
X0423215Y0071440D01*
X0423922Y0071148D02*
X0422360Y0071795D01*
X0421165Y0072990D01*
X0420518Y0074552D01*
X0420518Y0076243D01*
X0421165Y0077805D01*
X0422360Y0079001D01*
X0423922Y0079648D01*
X0425613Y0079648D01*
X0427175Y0079001D01*
X0428371Y0077805D01*
X0429018Y0076243D01*
X0429018Y0074552D01*
X0428371Y0072990D01*
X0427175Y0071795D01*
X0425613Y0071148D01*
X0423922Y0071148D01*
X0423429Y0069443D02*
X0416106Y0069443D01*
X0417731Y0068445D02*
X0421805Y0068445D01*
X0421016Y0067446D02*
X0418519Y0067446D01*
X0418933Y0066448D02*
X0420603Y0066448D01*
X0420518Y0065449D02*
X0419018Y0065449D01*
X0418976Y0064451D02*
X0420560Y0064451D01*
X0420973Y0063452D02*
X0418562Y0063452D01*
X0417834Y0062454D02*
X0421701Y0062454D01*
X0427834Y0062454D02*
X0431701Y0062454D01*
X0430973Y0063452D02*
X0428562Y0063452D01*
X0428976Y0064451D02*
X0430560Y0064451D01*
X0430518Y0065449D02*
X0429018Y0065449D01*
X0428933Y0066448D02*
X0430603Y0066448D01*
X0431016Y0067446D02*
X0428519Y0067446D01*
X0427731Y0068445D02*
X0431805Y0068445D01*
X0433429Y0069443D02*
X0426106Y0069443D01*
X0426320Y0071440D02*
X0433215Y0071440D01*
X0433922Y0071148D02*
X0435613Y0071148D01*
X0437175Y0071795D01*
X0438371Y0072990D01*
X0439018Y0074552D01*
X0439018Y0076243D01*
X0438371Y0077805D01*
X0437175Y0079001D01*
X0435613Y0079648D01*
X0433922Y0079648D01*
X0432360Y0079001D01*
X0431165Y0077805D01*
X0430518Y0076243D01*
X0430518Y0074552D01*
X0431165Y0072990D01*
X0432360Y0071795D01*
X0433922Y0071148D01*
X0436320Y0071440D02*
X0443215Y0071440D01*
X0443922Y0071148D02*
X0445613Y0071148D01*
X0447175Y0071795D01*
X0448371Y0072990D01*
X0449018Y0074552D01*
X0449018Y0076243D01*
X0448371Y0077805D01*
X0447175Y0079001D01*
X0445613Y0079648D01*
X0443922Y0079648D01*
X0442360Y0079001D01*
X0441165Y0077805D01*
X0440518Y0076243D01*
X0440518Y0074552D01*
X0441165Y0072990D01*
X0442360Y0071795D01*
X0443922Y0071148D01*
X0443429Y0069443D02*
X0436106Y0069443D01*
X0437731Y0068445D02*
X0441805Y0068445D01*
X0441016Y0067446D02*
X0438519Y0067446D01*
X0438933Y0066448D02*
X0440603Y0066448D01*
X0440518Y0065449D02*
X0439018Y0065449D01*
X0438976Y0064451D02*
X0440560Y0064451D01*
X0440973Y0063452D02*
X0438562Y0063452D01*
X0437834Y0062454D02*
X0441701Y0062454D01*
X0447834Y0062454D02*
X0451701Y0062454D01*
X0450973Y0063452D02*
X0448562Y0063452D01*
X0448976Y0064451D02*
X0450560Y0064451D01*
X0450518Y0065449D02*
X0449018Y0065449D01*
X0448933Y0066448D02*
X0450603Y0066448D01*
X0451016Y0067446D02*
X0448519Y0067446D01*
X0447731Y0068445D02*
X0451805Y0068445D01*
X0453429Y0069443D02*
X0446106Y0069443D01*
X0446320Y0071440D02*
X0453215Y0071440D01*
X0453922Y0071148D02*
X0455613Y0071148D01*
X0457175Y0071795D01*
X0458371Y0072990D01*
X0459018Y0074552D01*
X0459018Y0076243D01*
X0458371Y0077805D01*
X0457175Y0079001D01*
X0455613Y0079648D01*
X0453922Y0079648D01*
X0452360Y0079001D01*
X0451165Y0077805D01*
X0450518Y0076243D01*
X0450518Y0074552D01*
X0451165Y0072990D01*
X0452360Y0071795D01*
X0453922Y0071148D01*
X0456320Y0071440D02*
X0463215Y0071440D01*
X0463922Y0071148D02*
X0465613Y0071148D01*
X0467175Y0071795D01*
X0468371Y0072990D01*
X0469018Y0074552D01*
X0469018Y0076243D01*
X0468371Y0077805D01*
X0467175Y0079001D01*
X0465613Y0079648D01*
X0463922Y0079648D01*
X0462360Y0079001D01*
X0461165Y0077805D01*
X0460518Y0076243D01*
X0460518Y0074552D01*
X0461165Y0072990D01*
X0462360Y0071795D01*
X0463922Y0071148D01*
X0463429Y0069443D02*
X0456106Y0069443D01*
X0457731Y0068445D02*
X0461805Y0068445D01*
X0461016Y0067446D02*
X0458519Y0067446D01*
X0458933Y0066448D02*
X0460603Y0066448D01*
X0460518Y0065449D02*
X0459018Y0065449D01*
X0458976Y0064451D02*
X0460560Y0064451D01*
X0460973Y0063452D02*
X0458562Y0063452D01*
X0457834Y0062454D02*
X0461701Y0062454D01*
X0467834Y0062454D02*
X0471701Y0062454D01*
X0470973Y0063452D02*
X0468562Y0063452D01*
X0468976Y0064451D02*
X0470560Y0064451D01*
X0470518Y0065449D02*
X0469018Y0065449D01*
X0468933Y0066448D02*
X0470603Y0066448D01*
X0471016Y0067446D02*
X0468519Y0067446D01*
X0467731Y0068445D02*
X0471805Y0068445D01*
X0473429Y0069443D02*
X0466106Y0069443D01*
X0466320Y0071440D02*
X0473215Y0071440D01*
X0473922Y0071148D02*
X0475613Y0071148D01*
X0477175Y0071795D01*
X0478371Y0072990D01*
X0479018Y0074552D01*
X0479018Y0076243D01*
X0478371Y0077805D01*
X0477175Y0079001D01*
X0475613Y0079648D01*
X0473922Y0079648D01*
X0472360Y0079001D01*
X0471165Y0077805D01*
X0470518Y0076243D01*
X0470518Y0074552D01*
X0471165Y0072990D01*
X0472360Y0071795D01*
X0473922Y0071148D01*
X0476320Y0071440D02*
X0483215Y0071440D01*
X0483922Y0071148D02*
X0485613Y0071148D01*
X0487175Y0071795D01*
X0488371Y0072990D01*
X0489018Y0074552D01*
X0489018Y0076243D01*
X0488371Y0077805D01*
X0487175Y0079001D01*
X0485613Y0079648D01*
X0483922Y0079648D01*
X0482360Y0079001D01*
X0481165Y0077805D01*
X0480518Y0076243D01*
X0480518Y0074552D01*
X0481165Y0072990D01*
X0482360Y0071795D01*
X0483922Y0071148D01*
X0483429Y0069443D02*
X0476106Y0069443D01*
X0477731Y0068445D02*
X0481805Y0068445D01*
X0481016Y0067446D02*
X0478519Y0067446D01*
X0478933Y0066448D02*
X0480603Y0066448D01*
X0480518Y0065449D02*
X0479018Y0065449D01*
X0478976Y0064451D02*
X0480560Y0064451D01*
X0480973Y0063452D02*
X0478562Y0063452D01*
X0477834Y0062454D02*
X0481701Y0062454D01*
X0487834Y0062454D02*
X0491701Y0062454D01*
X0490973Y0063452D02*
X0488562Y0063452D01*
X0488976Y0064451D02*
X0490560Y0064451D01*
X0490518Y0065449D02*
X0489018Y0065449D01*
X0488933Y0066448D02*
X0490603Y0066448D01*
X0491016Y0067446D02*
X0488519Y0067446D01*
X0487731Y0068445D02*
X0491805Y0068445D01*
X0493429Y0069443D02*
X0486106Y0069443D01*
X0486320Y0071440D02*
X0493215Y0071440D01*
X0493922Y0071148D02*
X0492360Y0071795D01*
X0491165Y0072990D01*
X0490518Y0074552D01*
X0490518Y0076243D01*
X0491165Y0077805D01*
X0492360Y0079001D01*
X0493922Y0079648D01*
X0495613Y0079648D01*
X0497175Y0079001D01*
X0498371Y0077805D01*
X0499018Y0076243D01*
X0499018Y0074552D01*
X0498371Y0072990D01*
X0497175Y0071795D01*
X0495613Y0071148D01*
X0493922Y0071148D01*
X0496320Y0071440D02*
X0503215Y0071440D01*
X0503922Y0071148D02*
X0505613Y0071148D01*
X0507175Y0071795D01*
X0508371Y0072990D01*
X0509018Y0074552D01*
X0509018Y0076243D01*
X0508371Y0077805D01*
X0507175Y0079001D01*
X0505613Y0079648D01*
X0503922Y0079648D01*
X0502360Y0079001D01*
X0501165Y0077805D01*
X0500518Y0076243D01*
X0500518Y0074552D01*
X0501165Y0072990D01*
X0502360Y0071795D01*
X0503922Y0071148D01*
X0503429Y0069443D02*
X0496106Y0069443D01*
X0497731Y0068445D02*
X0501805Y0068445D01*
X0501016Y0067446D02*
X0498519Y0067446D01*
X0498933Y0066448D02*
X0500603Y0066448D01*
X0500518Y0065449D02*
X0499018Y0065449D01*
X0498976Y0064451D02*
X0500560Y0064451D01*
X0500973Y0063452D02*
X0498562Y0063452D01*
X0497834Y0062454D02*
X0501701Y0062454D01*
X0507834Y0062454D02*
X0511701Y0062454D01*
X0510973Y0063452D02*
X0508562Y0063452D01*
X0508976Y0064451D02*
X0510560Y0064451D01*
X0510518Y0065449D02*
X0509018Y0065449D01*
X0508933Y0066448D02*
X0510603Y0066448D01*
X0511016Y0067446D02*
X0508519Y0067446D01*
X0507731Y0068445D02*
X0511805Y0068445D01*
X0513429Y0069443D02*
X0506106Y0069443D01*
X0506320Y0071440D02*
X0513215Y0071440D01*
X0511716Y0072439D02*
X0507819Y0072439D01*
X0508556Y0073437D02*
X0510979Y0073437D01*
X0510566Y0074436D02*
X0508970Y0074436D01*
X0509018Y0075434D02*
X0510518Y0075434D01*
X0510596Y0076433D02*
X0508939Y0076433D01*
X0508525Y0077432D02*
X0511010Y0077432D01*
X0511790Y0078430D02*
X0507746Y0078430D01*
X0506142Y0079429D02*
X0513393Y0079429D01*
X0516142Y0079429D02*
X0554921Y0079429D01*
X0546500Y0079429D01*
X0546500Y0080427D02*
X0554921Y0080427D01*
X0033000Y0080427D01*
X0041500Y0080427D01*
X0041500Y0079429D02*
X0033000Y0079429D01*
X0343393Y0079429D01*
X0341790Y0078430D02*
X0033000Y0078430D01*
X0041500Y0078430D01*
X0041500Y0077432D02*
X0033000Y0077432D01*
X0341010Y0077432D01*
X0340596Y0076433D02*
X0033000Y0076433D01*
X0041500Y0076433D01*
X0041500Y0075434D02*
X0033000Y0075434D01*
X0340518Y0075434D01*
X0340566Y0074436D02*
X0033000Y0074436D01*
X0041500Y0074436D01*
X0041500Y0073437D02*
X0033000Y0073437D01*
X0340979Y0073437D01*
X0341716Y0072439D02*
X0033000Y0072439D01*
X0041500Y0072439D01*
X0041500Y0081426D02*
X0033000Y0081426D01*
X0059031Y0081426D01*
X0058535Y0081631D02*
X0060714Y0080728D01*
X0063073Y0080728D01*
X0065252Y0081631D01*
X0066920Y0083299D01*
X0067823Y0085478D01*
X0067823Y0087837D01*
X0066920Y0090016D01*
X0065252Y0091684D01*
X0063073Y0092587D01*
X0060714Y0092587D01*
X0058535Y0091684D01*
X0056867Y0090016D01*
X0055965Y0087837D01*
X0055965Y0085478D01*
X0056867Y0083299D01*
X0058535Y0081631D01*
X0057742Y0082424D02*
X0033000Y0082424D01*
X0041500Y0082424D01*
X0041500Y0083423D02*
X0033000Y0083423D01*
X0056816Y0083423D01*
X0056402Y0084421D02*
X0033000Y0084421D01*
X0041500Y0084421D01*
X0041500Y0085420D02*
X0033000Y0085420D01*
X0055989Y0085420D01*
X0055965Y0086418D02*
X0033000Y0086418D01*
X0041500Y0086418D01*
X0041500Y0087417D02*
X0033000Y0087417D01*
X0055965Y0087417D01*
X0056204Y0088415D02*
X0033000Y0088415D01*
X0041500Y0088415D01*
X0041500Y0089414D02*
X0033000Y0089414D01*
X0056618Y0089414D01*
X0057263Y0090412D02*
X0033000Y0090412D01*
X0041500Y0090412D01*
X0041500Y0091411D02*
X0033000Y0091411D01*
X0058262Y0091411D01*
X0060286Y0092409D02*
X0033000Y0092409D01*
X0041500Y0092409D01*
X0041500Y0093408D02*
X0033000Y0093408D01*
X0554921Y0093408D01*
X0546500Y0093408D01*
X0546500Y0094406D02*
X0554921Y0094406D01*
X0033000Y0094406D01*
X0041500Y0094406D01*
X0041500Y0095405D02*
X0033000Y0095405D01*
X0554921Y0095405D01*
X0546500Y0095405D01*
X0546500Y0096403D02*
X0554921Y0096403D01*
X0033000Y0096403D01*
X0041500Y0096403D01*
X0041500Y0097402D02*
X0033000Y0097402D01*
X0554921Y0097402D01*
X0546500Y0097402D01*
X0546500Y0098400D02*
X0554921Y0098400D01*
X0033000Y0098400D01*
X0041500Y0098400D01*
X0041500Y0099399D02*
X0033000Y0099399D01*
X0554921Y0099399D01*
X0546500Y0099399D01*
X0546500Y0100397D02*
X0554921Y0100397D01*
X0033000Y0100397D01*
X0041500Y0100397D01*
X0041500Y0101396D02*
X0033000Y0101396D01*
X0058455Y0101396D01*
X0058535Y0101316D02*
X0060714Y0100413D01*
X0063073Y0100413D01*
X0065252Y0101316D01*
X0066920Y0102984D01*
X0067823Y0105163D01*
X0067823Y0107522D01*
X0066920Y0109701D01*
X0065252Y0111369D01*
X0063073Y0112272D01*
X0060714Y0112272D01*
X0058535Y0111369D01*
X0056867Y0109701D01*
X0055965Y0107522D01*
X0055965Y0105163D01*
X0056867Y0102984D01*
X0058535Y0101316D01*
X0057457Y0102394D02*
X0033000Y0102394D01*
X0041500Y0102394D01*
X0041500Y0103393D02*
X0033000Y0103393D01*
X0056698Y0103393D01*
X0056284Y0104391D02*
X0033000Y0104391D01*
X0041500Y0104391D01*
X0041500Y0105390D02*
X0033000Y0105390D01*
X0055965Y0105390D01*
X0055965Y0106388D02*
X0033000Y0106388D01*
X0041500Y0106388D01*
X0041500Y0107387D02*
X0033000Y0107387D01*
X0055965Y0107387D01*
X0056322Y0108385D02*
X0033000Y0108385D01*
X0041500Y0108385D01*
X0041500Y0109384D02*
X0033000Y0109384D01*
X0056736Y0109384D01*
X0057549Y0110382D02*
X0033000Y0110382D01*
X0041500Y0110382D01*
X0041500Y0111381D02*
X0033000Y0111381D01*
X0058564Y0111381D01*
X0065223Y0111381D02*
X0107777Y0111381D01*
X0107748Y0111369D02*
X0106080Y0109701D01*
X0105177Y0107522D01*
X0105177Y0105163D01*
X0106080Y0102984D01*
X0107748Y0101316D01*
X0109927Y0100413D01*
X0112286Y0100413D01*
X0114465Y0101316D01*
X0116133Y0102984D01*
X0117035Y0105163D01*
X0117035Y0107522D01*
X0116133Y0109701D01*
X0114465Y0111369D01*
X0112286Y0112272D01*
X0109927Y0112272D01*
X0107748Y0111369D01*
X0106761Y0110382D02*
X0066239Y0110382D01*
X0067052Y0109384D02*
X0105948Y0109384D01*
X0105535Y0108385D02*
X0067465Y0108385D01*
X0067823Y0107387D02*
X0105177Y0107387D01*
X0105177Y0106388D02*
X0067823Y0106388D01*
X0067823Y0105390D02*
X0105177Y0105390D01*
X0105497Y0104391D02*
X0067503Y0104391D01*
X0067090Y0103393D02*
X0105910Y0103393D01*
X0106669Y0102394D02*
X0066331Y0102394D01*
X0065332Y0101396D02*
X0107668Y0101396D01*
X0114545Y0101396D02*
X0133455Y0101396D01*
X0133535Y0101316D02*
X0135714Y0100413D01*
X0138073Y0100413D01*
X0140252Y0101316D01*
X0141920Y0102984D01*
X0142823Y0105163D01*
X0142823Y0107522D01*
X0141920Y0109701D01*
X0140252Y0111369D01*
X0138073Y0112272D01*
X0135714Y0112272D01*
X0133535Y0111369D01*
X0131867Y0109701D01*
X0130965Y0107522D01*
X0130965Y0105163D01*
X0131867Y0102984D01*
X0133535Y0101316D01*
X0132457Y0102394D02*
X0115543Y0102394D01*
X0116302Y0103393D02*
X0131698Y0103393D01*
X0131284Y0104391D02*
X0116716Y0104391D01*
X0117035Y0105390D02*
X0130965Y0105390D01*
X0130965Y0106388D02*
X0117035Y0106388D01*
X0117035Y0107387D02*
X0130965Y0107387D01*
X0131322Y0108385D02*
X0116678Y0108385D01*
X0116264Y0109384D02*
X0131736Y0109384D01*
X0132549Y0110382D02*
X0115451Y0110382D01*
X0114436Y0111381D02*
X0133564Y0111381D01*
X0140223Y0111381D02*
X0182777Y0111381D01*
X0182748Y0111369D02*
X0181080Y0109701D01*
X0180177Y0107522D01*
X0180177Y0105163D01*
X0181080Y0102984D01*
X0182748Y0101316D01*
X0184927Y0100413D01*
X0187286Y0100413D01*
X0189465Y0101316D01*
X0191133Y0102984D01*
X0192035Y0105163D01*
X0192035Y0107522D01*
X0191133Y0109701D01*
X0189465Y0111369D01*
X0187286Y0112272D01*
X0184927Y0112272D01*
X0182748Y0111369D01*
X0181761Y0110382D02*
X0141239Y0110382D01*
X0142052Y0109384D02*
X0180948Y0109384D01*
X0180535Y0108385D02*
X0142465Y0108385D01*
X0142823Y0107387D02*
X0180177Y0107387D01*
X0180177Y0106388D02*
X0142823Y0106388D01*
X0142823Y0105390D02*
X0180177Y0105390D01*
X0180497Y0104391D02*
X0142503Y0104391D01*
X0142090Y0103393D02*
X0180910Y0103393D01*
X0181669Y0102394D02*
X0141331Y0102394D01*
X0140332Y0101396D02*
X0182668Y0101396D01*
X0189545Y0101396D02*
X0208455Y0101396D01*
X0208535Y0101316D02*
X0210714Y0100413D01*
X0213073Y0100413D01*
X0215252Y0101316D01*
X0216920Y0102984D01*
X0217823Y0105163D01*
X0217823Y0107522D01*
X0216920Y0109701D01*
X0215252Y0111369D01*
X0213073Y0112272D01*
X0210714Y0112272D01*
X0208535Y0111369D01*
X0206867Y0109701D01*
X0205965Y0107522D01*
X0205965Y0105163D01*
X0206867Y0102984D01*
X0208535Y0101316D01*
X0207457Y0102394D02*
X0190543Y0102394D01*
X0191302Y0103393D02*
X0206698Y0103393D01*
X0206284Y0104391D02*
X0191716Y0104391D01*
X0192035Y0105390D02*
X0205965Y0105390D01*
X0205965Y0106388D02*
X0192035Y0106388D01*
X0192035Y0107387D02*
X0205965Y0107387D01*
X0206322Y0108385D02*
X0191678Y0108385D01*
X0191264Y0109384D02*
X0206736Y0109384D01*
X0207549Y0110382D02*
X0190451Y0110382D01*
X0189436Y0111381D02*
X0208564Y0111381D01*
X0215223Y0111381D02*
X0257777Y0111381D01*
X0257748Y0111369D02*
X0256080Y0109701D01*
X0255177Y0107522D01*
X0255177Y0105163D01*
X0256080Y0102984D01*
X0257748Y0101316D01*
X0259927Y0100413D01*
X0262286Y0100413D01*
X0264465Y0101316D01*
X0266133Y0102984D01*
X0267035Y0105163D01*
X0267035Y0107522D01*
X0266133Y0109701D01*
X0264465Y0111369D01*
X0262286Y0112272D01*
X0259927Y0112272D01*
X0257748Y0111369D01*
X0256761Y0110382D02*
X0216239Y0110382D01*
X0217052Y0109384D02*
X0255948Y0109384D01*
X0255535Y0108385D02*
X0217465Y0108385D01*
X0217823Y0107387D02*
X0255177Y0107387D01*
X0255177Y0106388D02*
X0217823Y0106388D01*
X0217823Y0105390D02*
X0255177Y0105390D01*
X0255497Y0104391D02*
X0217503Y0104391D01*
X0217090Y0103393D02*
X0255910Y0103393D01*
X0256669Y0102394D02*
X0216331Y0102394D01*
X0215332Y0101396D02*
X0257668Y0101396D01*
X0264545Y0101396D02*
X0554921Y0101396D01*
X0546500Y0101396D01*
X0546500Y0102394D02*
X0554921Y0102394D01*
X0265543Y0102394D01*
X0266302Y0103393D02*
X0554921Y0103393D01*
X0546500Y0103393D01*
X0546500Y0104391D02*
X0554921Y0104391D01*
X0266716Y0104391D01*
X0267035Y0105390D02*
X0554921Y0105390D01*
X0546500Y0105390D01*
X0546500Y0106388D02*
X0554921Y0106388D01*
X0267035Y0106388D01*
X0267035Y0107387D02*
X0554921Y0107387D01*
X0546500Y0107387D01*
X0546500Y0108385D02*
X0554921Y0108385D01*
X0266678Y0108385D01*
X0266264Y0109384D02*
X0554921Y0109384D01*
X0546500Y0109384D01*
X0546500Y0110382D02*
X0554921Y0110382D01*
X0265451Y0110382D01*
X0264436Y0111381D02*
X0554921Y0111381D01*
X0546500Y0111381D01*
X0546500Y0112379D02*
X0554921Y0112379D01*
X0033000Y0112379D01*
X0041500Y0112379D01*
X0041500Y0113378D02*
X0033000Y0113378D01*
X0554921Y0113378D01*
X0546500Y0113378D01*
X0546500Y0114376D02*
X0554921Y0114376D01*
X0033000Y0114376D01*
X0041500Y0114376D01*
X0041500Y0115375D02*
X0033000Y0115375D01*
X0277711Y0115375D01*
X0277866Y0115311D02*
X0279134Y0115311D01*
X0280306Y0115797D01*
X0281203Y0116694D01*
X0281689Y0117866D01*
X0281689Y0119134D01*
X0281203Y0120306D01*
X0280306Y0121203D01*
X0279134Y0121689D01*
X0277866Y0121689D01*
X0276694Y0121203D01*
X0275797Y0120306D01*
X0275311Y0119134D01*
X0275311Y0117866D01*
X0275797Y0116694D01*
X0276694Y0115797D01*
X0277866Y0115311D01*
X0279289Y0115375D02*
X0554921Y0115375D01*
X0546500Y0115375D01*
X0546500Y0116373D02*
X0554921Y0116373D01*
X0280883Y0116373D01*
X0281484Y0117372D02*
X0554921Y0117372D01*
X0546500Y0117372D01*
X0546500Y0118370D02*
X0554921Y0118370D01*
X0281689Y0118370D01*
X0281592Y0119369D02*
X0554921Y0119369D01*
X0546500Y0119369D01*
X0546500Y0120368D02*
X0554921Y0120368D01*
X0281142Y0120368D01*
X0279914Y0121366D02*
X0554921Y0121366D01*
X0546500Y0121366D01*
X0546500Y0122365D02*
X0554921Y0122365D01*
X0273874Y0122365D01*
X0274203Y0122694D02*
X0274689Y0123866D01*
X0274689Y0125134D01*
X0274203Y0126306D01*
X0273306Y0127203D01*
X0272591Y0127500D01*
X0273306Y0127797D01*
X0274203Y0128694D01*
X0274689Y0129866D01*
X0274689Y0131134D01*
X0274203Y0132306D01*
X0273306Y0133203D01*
X0272134Y0133689D01*
X0270866Y0133689D01*
X0269694Y0133203D01*
X0268797Y0132306D01*
X0268311Y0131134D01*
X0268311Y0129866D01*
X0268797Y0128694D01*
X0269694Y0127797D01*
X0270409Y0127500D01*
X0269694Y0127203D01*
X0268797Y0126306D01*
X0268311Y0125134D01*
X0268311Y0123866D01*
X0268797Y0122694D01*
X0269694Y0121797D01*
X0270866Y0121311D01*
X0272134Y0121311D01*
X0273306Y0121797D01*
X0274203Y0122694D01*
X0274481Y0123363D02*
X0554921Y0123363D01*
X0546500Y0123363D01*
X0546500Y0124362D02*
X0554921Y0124362D01*
X0274689Y0124362D01*
X0274595Y0125360D02*
X0554921Y0125360D01*
X0546500Y0125360D01*
X0546500Y0126359D02*
X0554921Y0126359D01*
X0287249Y0126359D01*
X0287134Y0126311D02*
X0288306Y0126797D01*
X0289203Y0127694D01*
X0289689Y0128866D01*
X0289689Y0130134D01*
X0289203Y0131306D01*
X0288306Y0132203D01*
X0287134Y0132689D01*
X0285866Y0132689D01*
X0285689Y0132616D01*
X0285689Y0133134D01*
X0285203Y0134306D01*
X0284306Y0135203D01*
X0283134Y0135689D01*
X0281866Y0135689D01*
X0280694Y0135203D01*
X0279797Y0134306D01*
X0279311Y0133134D01*
X0279311Y0131866D01*
X0279797Y0130694D01*
X0280694Y0129797D01*
X0281866Y0129311D01*
X0283134Y0129311D01*
X0283311Y0129384D01*
X0283311Y0128866D01*
X0283797Y0127694D01*
X0284694Y0126797D01*
X0285866Y0126311D01*
X0287134Y0126311D01*
X0285751Y0126359D02*
X0274151Y0126359D01*
X0272936Y0127357D02*
X0284133Y0127357D01*
X0283522Y0128356D02*
X0273865Y0128356D01*
X0274477Y0129354D02*
X0281762Y0129354D01*
X0283238Y0129354D02*
X0283311Y0129354D01*
X0280137Y0130353D02*
X0274689Y0130353D01*
X0274599Y0131351D02*
X0279524Y0131351D01*
X0279311Y0132350D02*
X0274160Y0132350D01*
X0272957Y0133348D02*
X0279400Y0133348D01*
X0279837Y0134347D02*
X0033000Y0134347D01*
X0041500Y0134347D01*
X0041500Y0135345D02*
X0033000Y0135345D01*
X0270783Y0135345D01*
X0270866Y0135311D02*
X0272134Y0135311D01*
X0273306Y0135797D01*
X0274203Y0136694D01*
X0274689Y0137866D01*
X0274689Y0139134D01*
X0274203Y0140306D01*
X0273306Y0141203D01*
X0272134Y0141689D01*
X0270866Y0141689D01*
X0269694Y0141203D01*
X0268797Y0140306D01*
X0268311Y0139134D01*
X0268311Y0137866D01*
X0268797Y0136694D01*
X0269694Y0135797D01*
X0270866Y0135311D01*
X0272217Y0135345D02*
X0281036Y0135345D01*
X0283964Y0135345D02*
X0300145Y0135345D01*
X0299797Y0135694D02*
X0300694Y0134797D01*
X0301866Y0134311D01*
X0303134Y0134311D01*
X0304306Y0134797D01*
X0305203Y0135694D01*
X0305689Y0136866D01*
X0305689Y0138134D01*
X0305203Y0139306D01*
X0304306Y0140203D01*
X0303134Y0140689D01*
X0301866Y0140689D01*
X0300694Y0140203D01*
X0299797Y0139306D01*
X0299311Y0138134D01*
X0299311Y0136866D01*
X0299797Y0135694D01*
X0299527Y0136344D02*
X0273854Y0136344D01*
X0274472Y0137342D02*
X0299311Y0137342D01*
X0299397Y0138341D02*
X0274689Y0138341D01*
X0274604Y0139339D02*
X0299829Y0139339D01*
X0301018Y0140338D02*
X0274172Y0140338D01*
X0272986Y0141336D02*
X0554921Y0141336D01*
X0546500Y0141336D01*
X0546500Y0140338D02*
X0554921Y0140338D01*
X0303982Y0140338D01*
X0305171Y0139339D02*
X0554921Y0139339D01*
X0546500Y0139339D01*
X0546500Y0138341D02*
X0554921Y0138341D01*
X0305603Y0138341D01*
X0305689Y0137342D02*
X0554921Y0137342D01*
X0546500Y0137342D01*
X0546500Y0136344D02*
X0554921Y0136344D01*
X0305473Y0136344D01*
X0304855Y0135345D02*
X0554921Y0135345D01*
X0546500Y0135345D01*
X0546500Y0134347D02*
X0554921Y0134347D01*
X0303220Y0134347D01*
X0301780Y0134347D02*
X0285163Y0134347D01*
X0285600Y0133348D02*
X0554921Y0133348D01*
X0546500Y0133348D01*
X0546500Y0132350D02*
X0554921Y0132350D01*
X0287954Y0132350D01*
X0289159Y0131351D02*
X0554921Y0131351D01*
X0546500Y0131351D01*
X0546500Y0130353D02*
X0554921Y0130353D01*
X0289599Y0130353D01*
X0289689Y0129354D02*
X0554921Y0129354D01*
X0546500Y0129354D01*
X0546500Y0128356D02*
X0554921Y0128356D01*
X0289478Y0128356D01*
X0288867Y0127357D02*
X0554921Y0127357D01*
X0546500Y0127357D01*
X0546500Y0142335D02*
X0554921Y0142335D01*
X0303192Y0142335D01*
X0303134Y0142311D02*
X0304306Y0142797D01*
X0305203Y0143694D01*
X0305689Y0144866D01*
X0305689Y0146134D01*
X0305217Y0147273D01*
X0305694Y0146797D01*
X0306866Y0146311D01*
X0308134Y0146311D01*
X0309306Y0146797D01*
X0310203Y0147694D01*
X0310689Y0148866D01*
X0310689Y0150134D01*
X0310203Y0151306D01*
X0309306Y0152203D01*
X0308134Y0152689D01*
X0306866Y0152689D01*
X0305694Y0152203D01*
X0304797Y0151306D01*
X0304311Y0150134D01*
X0304311Y0148866D01*
X0304783Y0147727D01*
X0304306Y0148203D01*
X0303134Y0148689D01*
X0301866Y0148689D01*
X0300694Y0148203D01*
X0299797Y0147306D01*
X0299311Y0146134D01*
X0299311Y0144866D01*
X0299797Y0143694D01*
X0300694Y0142797D01*
X0301866Y0142311D01*
X0303134Y0142311D01*
X0301808Y0142335D02*
X0278192Y0142335D01*
X0278134Y0142311D02*
X0279306Y0142797D01*
X0280203Y0143694D01*
X0280689Y0144866D01*
X0280689Y0146134D01*
X0280203Y0147306D01*
X0279306Y0148203D01*
X0278134Y0148689D01*
X0276866Y0148689D01*
X0275694Y0148203D01*
X0274797Y0147306D01*
X0274311Y0146134D01*
X0274311Y0144866D01*
X0274797Y0143694D01*
X0275694Y0142797D01*
X0276866Y0142311D01*
X0278134Y0142311D01*
X0276808Y0142335D02*
X0033000Y0142335D01*
X0041500Y0142335D01*
X0041500Y0143333D02*
X0033000Y0143333D01*
X0275157Y0143333D01*
X0274532Y0144332D02*
X0033000Y0144332D01*
X0041500Y0144332D01*
X0041500Y0145330D02*
X0033000Y0145330D01*
X0234112Y0145330D01*
X0234192Y0145250D02*
X0235689Y0144630D01*
X0237311Y0144630D01*
X0238808Y0145250D01*
X0239954Y0146397D01*
X0240575Y0147894D01*
X0240575Y0149515D01*
X0239954Y0151013D01*
X0238808Y0152159D01*
X0237311Y0152780D01*
X0235689Y0152780D01*
X0234192Y0152159D01*
X0233046Y0151013D01*
X0232425Y0149515D01*
X0232425Y0147894D01*
X0233046Y0146397D01*
X0234192Y0145250D01*
X0233113Y0146329D02*
X0188735Y0146329D01*
X0189465Y0146631D02*
X0191133Y0148299D01*
X0192035Y0150478D01*
X0192035Y0152837D01*
X0191133Y0155016D01*
X0189465Y0156684D01*
X0187286Y0157587D01*
X0184927Y0157587D01*
X0182748Y0156684D01*
X0181080Y0155016D01*
X0180177Y0152837D01*
X0180177Y0150478D01*
X0181080Y0148299D01*
X0182748Y0146631D01*
X0184927Y0145728D01*
X0187286Y0145728D01*
X0189465Y0146631D01*
X0190161Y0147327D02*
X0232660Y0147327D01*
X0232425Y0148326D02*
X0191144Y0148326D01*
X0191558Y0149324D02*
X0232425Y0149324D01*
X0232760Y0150323D02*
X0191971Y0150323D01*
X0192035Y0151321D02*
X0233354Y0151321D01*
X0234580Y0152320D02*
X0192035Y0152320D01*
X0191836Y0153318D02*
X0264387Y0153318D01*
X0264311Y0153134D02*
X0264311Y0151866D01*
X0264797Y0150694D01*
X0265694Y0149797D01*
X0266866Y0149311D01*
X0268134Y0149311D01*
X0269306Y0149797D01*
X0270203Y0150694D01*
X0270689Y0151866D01*
X0270689Y0153134D01*
X0270203Y0154306D01*
X0269306Y0155203D01*
X0268134Y0155689D01*
X0266866Y0155689D01*
X0265694Y0155203D01*
X0264797Y0154306D01*
X0264311Y0153134D01*
X0264311Y0152320D02*
X0238420Y0152320D01*
X0239646Y0151321D02*
X0264536Y0151321D01*
X0265167Y0150323D02*
X0240240Y0150323D01*
X0240575Y0149324D02*
X0266834Y0149324D01*
X0268166Y0149324D02*
X0304311Y0149324D01*
X0304389Y0150323D02*
X0269833Y0150323D01*
X0270463Y0151321D02*
X0304811Y0151321D01*
X0305975Y0152320D02*
X0270689Y0152320D01*
X0270613Y0153318D02*
X0310387Y0153318D01*
X0310311Y0153134D02*
X0310311Y0151866D01*
X0310797Y0150694D01*
X0311694Y0149797D01*
X0312866Y0149311D01*
X0314134Y0149311D01*
X0315306Y0149797D01*
X0316203Y0150694D01*
X0316689Y0151866D01*
X0316689Y0153134D01*
X0316203Y0154306D01*
X0315306Y0155203D01*
X0314134Y0155689D01*
X0312866Y0155689D01*
X0311694Y0155203D01*
X0310797Y0154306D01*
X0310311Y0153134D01*
X0310311Y0152320D02*
X0309025Y0152320D01*
X0310189Y0151321D02*
X0310536Y0151321D01*
X0310611Y0150323D02*
X0311167Y0150323D01*
X0310689Y0149324D02*
X0312834Y0149324D01*
X0314166Y0149324D02*
X0554921Y0149324D01*
X0546500Y0149324D01*
X0546500Y0148326D02*
X0554921Y0148326D01*
X0310465Y0148326D01*
X0309837Y0147327D02*
X0554921Y0147327D01*
X0546500Y0147327D01*
X0546500Y0146329D02*
X0554921Y0146329D01*
X0308177Y0146329D01*
X0306823Y0146329D02*
X0305608Y0146329D01*
X0305689Y0145330D02*
X0554921Y0145330D01*
X0546500Y0145330D01*
X0546500Y0144332D02*
X0554921Y0144332D01*
X0305468Y0144332D01*
X0304843Y0143333D02*
X0554921Y0143333D01*
X0546500Y0143333D01*
X0546500Y0150323D02*
X0554921Y0150323D01*
X0315833Y0150323D01*
X0316463Y0151321D02*
X0554921Y0151321D01*
X0546500Y0151321D01*
X0546500Y0152320D02*
X0554921Y0152320D01*
X0316689Y0152320D01*
X0316613Y0153318D02*
X0554921Y0153318D01*
X0546500Y0153318D01*
X0546500Y0154317D02*
X0554921Y0154317D01*
X0316193Y0154317D01*
X0315036Y0155315D02*
X0554921Y0155315D01*
X0546500Y0155315D01*
X0546500Y0156314D02*
X0554921Y0156314D01*
X0189835Y0156314D01*
X0190833Y0155315D02*
X0265964Y0155315D01*
X0264807Y0154317D02*
X0191422Y0154317D01*
X0187948Y0157312D02*
X0279862Y0157312D01*
X0279866Y0157311D02*
X0281134Y0157311D01*
X0282306Y0157797D01*
X0283203Y0158694D01*
X0283689Y0159866D01*
X0283689Y0161134D01*
X0283203Y0162306D01*
X0282306Y0163203D01*
X0281134Y0163689D01*
X0279866Y0163689D01*
X0278694Y0163203D01*
X0277797Y0162306D01*
X0277311Y0161134D01*
X0277311Y0159866D01*
X0277797Y0158694D01*
X0278694Y0157797D01*
X0279866Y0157311D01*
X0281138Y0157312D02*
X0554921Y0157312D01*
X0554921Y0158311D02*
X0282821Y0158311D01*
X0283459Y0159309D02*
X0554921Y0159309D01*
X0554921Y0160308D02*
X0283689Y0160308D01*
X0283618Y0161306D02*
X0299184Y0161306D01*
X0298797Y0161694D02*
X0299694Y0160797D01*
X0300866Y0160311D01*
X0302134Y0160311D01*
X0303306Y0160797D01*
X0304203Y0161694D01*
X0304689Y0162866D01*
X0304689Y0164134D01*
X0304203Y0165306D01*
X0303306Y0166203D01*
X0302134Y0166689D01*
X0300866Y0166689D01*
X0299694Y0166203D01*
X0298797Y0165306D01*
X0298311Y0164134D01*
X0298311Y0162866D01*
X0298797Y0161694D01*
X0298543Y0162305D02*
X0283204Y0162305D01*
X0282065Y0163303D02*
X0298311Y0163303D01*
X0298380Y0164302D02*
X0033000Y0164302D01*
X0033000Y0165301D02*
X0298794Y0165301D01*
X0299924Y0166299D02*
X0189424Y0166299D01*
X0189465Y0166316D02*
X0191133Y0167984D01*
X0192035Y0170163D01*
X0192035Y0172522D01*
X0191133Y0174701D01*
X0189465Y0176369D01*
X0187286Y0177272D01*
X0184927Y0177272D01*
X0182748Y0176369D01*
X0181080Y0174701D01*
X0180177Y0172522D01*
X0180177Y0170163D01*
X0181080Y0167984D01*
X0182748Y0166316D01*
X0184927Y0165413D01*
X0187286Y0165413D01*
X0189465Y0166316D01*
X0190446Y0167298D02*
X0340955Y0167298D01*
X0341165Y0167805D02*
X0340518Y0166243D01*
X0340518Y0164552D01*
X0341165Y0162990D01*
X0342360Y0161795D01*
X0343922Y0161148D01*
X0345613Y0161148D01*
X0347175Y0161795D01*
X0348371Y0162990D01*
X0349018Y0164552D01*
X0349018Y0166243D01*
X0348371Y0167805D01*
X0347175Y0169001D01*
X0345613Y0169648D01*
X0343922Y0169648D01*
X0342360Y0169001D01*
X0341165Y0167805D01*
X0341656Y0168296D02*
X0191262Y0168296D01*
X0191676Y0169295D02*
X0343070Y0169295D01*
X0343922Y0171148D02*
X0345613Y0171148D01*
X0347175Y0171795D01*
X0348371Y0172990D01*
X0349018Y0174552D01*
X0349018Y0176243D01*
X0348371Y0177805D01*
X0347175Y0179001D01*
X0345613Y0179648D01*
X0343922Y0179648D01*
X0342360Y0179001D01*
X0341165Y0177805D01*
X0340518Y0176243D01*
X0340518Y0174552D01*
X0341165Y0172990D01*
X0342360Y0171795D01*
X0343922Y0171148D01*
X0343575Y0171292D02*
X0239259Y0171292D01*
X0238808Y0170841D02*
X0239954Y0171987D01*
X0240575Y0173485D01*
X0240575Y0175106D01*
X0239954Y0176603D01*
X0238808Y0177750D01*
X0237311Y0178370D01*
X0235689Y0178370D01*
X0234192Y0177750D01*
X0233046Y0176603D01*
X0232425Y0175106D01*
X0232425Y0173485D01*
X0233046Y0171987D01*
X0234192Y0170841D01*
X0235689Y0170220D01*
X0237311Y0170220D01*
X0238808Y0170841D01*
X0237486Y0170293D02*
X0554921Y0170293D01*
X0554921Y0169295D02*
X0516465Y0169295D01*
X0517175Y0169001D02*
X0515613Y0169648D01*
X0513922Y0169648D01*
X0512360Y0169001D01*
X0511165Y0167805D01*
X0510518Y0166243D01*
X0510518Y0164552D01*
X0511165Y0162990D01*
X0512360Y0161795D01*
X0513922Y0161148D01*
X0515613Y0161148D01*
X0517175Y0161795D01*
X0518371Y0162990D01*
X0519018Y0164552D01*
X0519018Y0166243D01*
X0518371Y0167805D01*
X0517175Y0169001D01*
X0517880Y0168296D02*
X0554921Y0168296D01*
X0554921Y0167298D02*
X0518581Y0167298D01*
X0518995Y0166299D02*
X0554921Y0166299D01*
X0554921Y0165301D02*
X0519018Y0165301D01*
X0518914Y0164302D02*
X0554921Y0164302D01*
X0554921Y0163303D02*
X0518500Y0163303D01*
X0517685Y0162305D02*
X0554921Y0162305D01*
X0554921Y0161306D02*
X0515997Y0161306D01*
X0513539Y0161306D02*
X0505997Y0161306D01*
X0505613Y0161148D02*
X0507175Y0161795D01*
X0508371Y0162990D01*
X0509018Y0164552D01*
X0509018Y0166243D01*
X0508371Y0167805D01*
X0507175Y0169001D01*
X0505613Y0169648D01*
X0503922Y0169648D01*
X0502360Y0169001D01*
X0501165Y0167805D01*
X0500518Y0166243D01*
X0500518Y0164552D01*
X0501165Y0162990D01*
X0502360Y0161795D01*
X0503922Y0161148D01*
X0505613Y0161148D01*
X0503539Y0161306D02*
X0495997Y0161306D01*
X0495613Y0161148D02*
X0497175Y0161795D01*
X0498371Y0162990D01*
X0499018Y0164552D01*
X0499018Y0166243D01*
X0498371Y0167805D01*
X0497175Y0169001D01*
X0495613Y0169648D01*
X0493922Y0169648D01*
X0492360Y0169001D01*
X0491165Y0167805D01*
X0490518Y0166243D01*
X0490518Y0164552D01*
X0491165Y0162990D01*
X0492360Y0161795D01*
X0493922Y0161148D01*
X0495613Y0161148D01*
X0493539Y0161306D02*
X0485997Y0161306D01*
X0485613Y0161148D02*
X0487175Y0161795D01*
X0488371Y0162990D01*
X0489018Y0164552D01*
X0489018Y0166243D01*
X0488371Y0167805D01*
X0487175Y0169001D01*
X0485613Y0169648D01*
X0483922Y0169648D01*
X0482360Y0169001D01*
X0481165Y0167805D01*
X0480518Y0166243D01*
X0480518Y0164552D01*
X0481165Y0162990D01*
X0482360Y0161795D01*
X0483922Y0161148D01*
X0485613Y0161148D01*
X0483539Y0161306D02*
X0475997Y0161306D01*
X0475613Y0161148D02*
X0477175Y0161795D01*
X0478371Y0162990D01*
X0479018Y0164552D01*
X0479018Y0166243D01*
X0478371Y0167805D01*
X0477175Y0169001D01*
X0475613Y0169648D01*
X0473922Y0169648D01*
X0472360Y0169001D01*
X0471165Y0167805D01*
X0470518Y0166243D01*
X0470518Y0164552D01*
X0471165Y0162990D01*
X0472360Y0161795D01*
X0473922Y0161148D01*
X0475613Y0161148D01*
X0473539Y0161306D02*
X0465997Y0161306D01*
X0465613Y0161148D02*
X0467175Y0161795D01*
X0468371Y0162990D01*
X0469018Y0164552D01*
X0469018Y0166243D01*
X0468371Y0167805D01*
X0467175Y0169001D01*
X0465613Y0169648D01*
X0463922Y0169648D01*
X0462360Y0169001D01*
X0461165Y0167805D01*
X0460518Y0166243D01*
X0460518Y0164552D01*
X0461165Y0162990D01*
X0462360Y0161795D01*
X0463922Y0161148D01*
X0465613Y0161148D01*
X0463539Y0161306D02*
X0455997Y0161306D01*
X0455613Y0161148D02*
X0457175Y0161795D01*
X0458371Y0162990D01*
X0459018Y0164552D01*
X0459018Y0166243D01*
X0458371Y0167805D01*
X0457175Y0169001D01*
X0455613Y0169648D01*
X0453922Y0169648D01*
X0452360Y0169001D01*
X0451165Y0167805D01*
X0450518Y0166243D01*
X0450518Y0164552D01*
X0451165Y0162990D01*
X0452360Y0161795D01*
X0453922Y0161148D01*
X0455613Y0161148D01*
X0453539Y0161306D02*
X0445997Y0161306D01*
X0445613Y0161148D02*
X0447175Y0161795D01*
X0448371Y0162990D01*
X0449018Y0164552D01*
X0449018Y0166243D01*
X0448371Y0167805D01*
X0447175Y0169001D01*
X0445613Y0169648D01*
X0443922Y0169648D01*
X0442360Y0169001D01*
X0441165Y0167805D01*
X0440518Y0166243D01*
X0440518Y0164552D01*
X0441165Y0162990D01*
X0442360Y0161795D01*
X0443922Y0161148D01*
X0445613Y0161148D01*
X0443539Y0161306D02*
X0435997Y0161306D01*
X0435613Y0161148D02*
X0437175Y0161795D01*
X0438371Y0162990D01*
X0439018Y0164552D01*
X0439018Y0166243D01*
X0438371Y0167805D01*
X0437175Y0169001D01*
X0435613Y0169648D01*
X0433922Y0169648D01*
X0432360Y0169001D01*
X0431165Y0167805D01*
X0430518Y0166243D01*
X0430518Y0164552D01*
X0431165Y0162990D01*
X0432360Y0161795D01*
X0433922Y0161148D01*
X0435613Y0161148D01*
X0433539Y0161306D02*
X0425997Y0161306D01*
X0425613Y0161148D02*
X0427175Y0161795D01*
X0428371Y0162990D01*
X0429018Y0164552D01*
X0429018Y0166243D01*
X0428371Y0167805D01*
X0427175Y0169001D01*
X0425613Y0169648D01*
X0423922Y0169648D01*
X0422360Y0169001D01*
X0421165Y0167805D01*
X0420518Y0166243D01*
X0420518Y0164552D01*
X0421165Y0162990D01*
X0422360Y0161795D01*
X0423922Y0161148D01*
X0425613Y0161148D01*
X0423539Y0161306D02*
X0415997Y0161306D01*
X0415613Y0161148D02*
X0417175Y0161795D01*
X0418371Y0162990D01*
X0419018Y0164552D01*
X0419018Y0166243D01*
X0418371Y0167805D01*
X0417175Y0169001D01*
X0415613Y0169648D01*
X0413922Y0169648D01*
X0412360Y0169001D01*
X0411165Y0167805D01*
X0410518Y0166243D01*
X0410518Y0164552D01*
X0411165Y0162990D01*
X0412360Y0161795D01*
X0413922Y0161148D01*
X0415613Y0161148D01*
X0413539Y0161306D02*
X0405997Y0161306D01*
X0405613Y0161148D02*
X0407175Y0161795D01*
X0408371Y0162990D01*
X0409018Y0164552D01*
X0409018Y0166243D01*
X0408371Y0167805D01*
X0407175Y0169001D01*
X0405613Y0169648D01*
X0403922Y0169648D01*
X0402360Y0169001D01*
X0401165Y0167805D01*
X0400518Y0166243D01*
X0400518Y0164552D01*
X0401165Y0162990D01*
X0402360Y0161795D01*
X0403922Y0161148D01*
X0405613Y0161148D01*
X0403539Y0161306D02*
X0395997Y0161306D01*
X0395613Y0161148D02*
X0397175Y0161795D01*
X0398371Y0162990D01*
X0399018Y0164552D01*
X0399018Y0166243D01*
X0398371Y0167805D01*
X0397175Y0169001D01*
X0395613Y0169648D01*
X0393922Y0169648D01*
X0392360Y0169001D01*
X0391165Y0167805D01*
X0390518Y0166243D01*
X0390518Y0164552D01*
X0391165Y0162990D01*
X0392360Y0161795D01*
X0393922Y0161148D01*
X0395613Y0161148D01*
X0393539Y0161306D02*
X0385997Y0161306D01*
X0385613Y0161148D02*
X0387175Y0161795D01*
X0388371Y0162990D01*
X0389018Y0164552D01*
X0389018Y0166243D01*
X0388371Y0167805D01*
X0387175Y0169001D01*
X0385613Y0169648D01*
X0383922Y0169648D01*
X0382360Y0169001D01*
X0381165Y0167805D01*
X0380518Y0166243D01*
X0380518Y0164552D01*
X0381165Y0162990D01*
X0382360Y0161795D01*
X0383922Y0161148D01*
X0385613Y0161148D01*
X0383539Y0161306D02*
X0375997Y0161306D01*
X0375613Y0161148D02*
X0377175Y0161795D01*
X0378371Y0162990D01*
X0379018Y0164552D01*
X0379018Y0166243D01*
X0378371Y0167805D01*
X0377175Y0169001D01*
X0375613Y0169648D01*
X0373922Y0169648D01*
X0372360Y0169001D01*
X0371165Y0167805D01*
X0370518Y0166243D01*
X0370518Y0164552D01*
X0371165Y0162990D01*
X0372360Y0161795D01*
X0373922Y0161148D01*
X0375613Y0161148D01*
X0373539Y0161306D02*
X0365997Y0161306D01*
X0365613Y0161148D02*
X0367175Y0161795D01*
X0368371Y0162990D01*
X0369018Y0164552D01*
X0369018Y0166243D01*
X0368371Y0167805D01*
X0367175Y0169001D01*
X0365613Y0169648D01*
X0363922Y0169648D01*
X0362360Y0169001D01*
X0361165Y0167805D01*
X0360518Y0166243D01*
X0360518Y0164552D01*
X0361165Y0162990D01*
X0362360Y0161795D01*
X0363922Y0161148D01*
X0365613Y0161148D01*
X0363539Y0161306D02*
X0355997Y0161306D01*
X0355613Y0161148D02*
X0357175Y0161795D01*
X0358371Y0162990D01*
X0359018Y0164552D01*
X0359018Y0166243D01*
X0358371Y0167805D01*
X0357175Y0169001D01*
X0355613Y0169648D01*
X0353922Y0169648D01*
X0352360Y0169001D01*
X0351165Y0167805D01*
X0350518Y0166243D01*
X0350518Y0164552D01*
X0351165Y0162990D01*
X0352360Y0161795D01*
X0353922Y0161148D01*
X0355613Y0161148D01*
X0353539Y0161306D02*
X0345997Y0161306D01*
X0347685Y0162305D02*
X0351850Y0162305D01*
X0351035Y0163303D02*
X0348500Y0163303D01*
X0348914Y0164302D02*
X0350621Y0164302D01*
X0350518Y0165301D02*
X0349018Y0165301D01*
X0348995Y0166299D02*
X0350541Y0166299D01*
X0350955Y0167298D02*
X0348581Y0167298D01*
X0347880Y0168296D02*
X0351656Y0168296D01*
X0353070Y0169295D02*
X0346465Y0169295D01*
X0345961Y0171292D02*
X0353575Y0171292D01*
X0353922Y0171148D02*
X0355613Y0171148D01*
X0357175Y0171795D01*
X0358371Y0172990D01*
X0359018Y0174552D01*
X0359018Y0176243D01*
X0358371Y0177805D01*
X0357175Y0179001D01*
X0355613Y0179648D01*
X0353922Y0179648D01*
X0352360Y0179001D01*
X0351165Y0177805D01*
X0350518Y0176243D01*
X0350518Y0174552D01*
X0351165Y0172990D01*
X0352360Y0171795D01*
X0353922Y0171148D01*
X0355961Y0171292D02*
X0363575Y0171292D01*
X0363922Y0171148D02*
X0365613Y0171148D01*
X0367175Y0171795D01*
X0368371Y0172990D01*
X0369018Y0174552D01*
X0369018Y0176243D01*
X0368371Y0177805D01*
X0367175Y0179001D01*
X0365613Y0179648D01*
X0363922Y0179648D01*
X0362360Y0179001D01*
X0361165Y0177805D01*
X0360518Y0176243D01*
X0360518Y0174552D01*
X0361165Y0172990D01*
X0362360Y0171795D01*
X0363922Y0171148D01*
X0363070Y0169295D02*
X0356465Y0169295D01*
X0357880Y0168296D02*
X0361656Y0168296D01*
X0360955Y0167298D02*
X0358581Y0167298D01*
X0358995Y0166299D02*
X0360541Y0166299D01*
X0360518Y0165301D02*
X0359018Y0165301D01*
X0358914Y0164302D02*
X0360621Y0164302D01*
X0361035Y0163303D02*
X0358500Y0163303D01*
X0357685Y0162305D02*
X0361850Y0162305D01*
X0367685Y0162305D02*
X0371850Y0162305D01*
X0371035Y0163303D02*
X0368500Y0163303D01*
X0368914Y0164302D02*
X0370621Y0164302D01*
X0370518Y0165301D02*
X0369018Y0165301D01*
X0368995Y0166299D02*
X0370541Y0166299D01*
X0370955Y0167298D02*
X0368581Y0167298D01*
X0367880Y0168296D02*
X0371656Y0168296D01*
X0373070Y0169295D02*
X0366465Y0169295D01*
X0365961Y0171292D02*
X0373575Y0171292D01*
X0373922Y0171148D02*
X0375613Y0171148D01*
X0377175Y0171795D01*
X0378371Y0172990D01*
X0379018Y0174552D01*
X0379018Y0176243D01*
X0378371Y0177805D01*
X0377175Y0179001D01*
X0375613Y0179648D01*
X0373922Y0179648D01*
X0372360Y0179001D01*
X0371165Y0177805D01*
X0370518Y0176243D01*
X0370518Y0174552D01*
X0371165Y0172990D01*
X0372360Y0171795D01*
X0373922Y0171148D01*
X0375961Y0171292D02*
X0383575Y0171292D01*
X0383922Y0171148D02*
X0385613Y0171148D01*
X0387175Y0171795D01*
X0388371Y0172990D01*
X0389018Y0174552D01*
X0389018Y0176243D01*
X0388371Y0177805D01*
X0387175Y0179001D01*
X0385613Y0179648D01*
X0383922Y0179648D01*
X0382360Y0179001D01*
X0381165Y0177805D01*
X0380518Y0176243D01*
X0380518Y0174552D01*
X0381165Y0172990D01*
X0382360Y0171795D01*
X0383922Y0171148D01*
X0383070Y0169295D02*
X0376465Y0169295D01*
X0377880Y0168296D02*
X0381656Y0168296D01*
X0380955Y0167298D02*
X0378581Y0167298D01*
X0378995Y0166299D02*
X0380541Y0166299D01*
X0380518Y0165301D02*
X0379018Y0165301D01*
X0378914Y0164302D02*
X0380621Y0164302D01*
X0381035Y0163303D02*
X0378500Y0163303D01*
X0377685Y0162305D02*
X0381850Y0162305D01*
X0387685Y0162305D02*
X0391850Y0162305D01*
X0391035Y0163303D02*
X0388500Y0163303D01*
X0388914Y0164302D02*
X0390621Y0164302D01*
X0390518Y0165301D02*
X0389018Y0165301D01*
X0388995Y0166299D02*
X0390541Y0166299D01*
X0390955Y0167298D02*
X0388581Y0167298D01*
X0387880Y0168296D02*
X0391656Y0168296D01*
X0393070Y0169295D02*
X0386465Y0169295D01*
X0385961Y0171292D02*
X0393575Y0171292D01*
X0393922Y0171148D02*
X0395613Y0171148D01*
X0397175Y0171795D01*
X0398371Y0172990D01*
X0399018Y0174552D01*
X0399018Y0176243D01*
X0398371Y0177805D01*
X0397175Y0179001D01*
X0395613Y0179648D01*
X0393922Y0179648D01*
X0392360Y0179001D01*
X0391165Y0177805D01*
X0390518Y0176243D01*
X0390518Y0174552D01*
X0391165Y0172990D01*
X0392360Y0171795D01*
X0393922Y0171148D01*
X0395961Y0171292D02*
X0403575Y0171292D01*
X0403922Y0171148D02*
X0405613Y0171148D01*
X0407175Y0171795D01*
X0408371Y0172990D01*
X0409018Y0174552D01*
X0409018Y0176243D01*
X0408371Y0177805D01*
X0407175Y0179001D01*
X0405613Y0179648D01*
X0403922Y0179648D01*
X0402360Y0179001D01*
X0401165Y0177805D01*
X0400518Y0176243D01*
X0400518Y0174552D01*
X0401165Y0172990D01*
X0402360Y0171795D01*
X0403922Y0171148D01*
X0403070Y0169295D02*
X0396465Y0169295D01*
X0397880Y0168296D02*
X0401656Y0168296D01*
X0400955Y0167298D02*
X0398581Y0167298D01*
X0398995Y0166299D02*
X0400541Y0166299D01*
X0400518Y0165301D02*
X0399018Y0165301D01*
X0398914Y0164302D02*
X0400621Y0164302D01*
X0401035Y0163303D02*
X0398500Y0163303D01*
X0397685Y0162305D02*
X0401850Y0162305D01*
X0407685Y0162305D02*
X0411850Y0162305D01*
X0411035Y0163303D02*
X0408500Y0163303D01*
X0408914Y0164302D02*
X0410621Y0164302D01*
X0410518Y0165301D02*
X0409018Y0165301D01*
X0408995Y0166299D02*
X0410541Y0166299D01*
X0410955Y0167298D02*
X0408581Y0167298D01*
X0407880Y0168296D02*
X0411656Y0168296D01*
X0413070Y0169295D02*
X0406465Y0169295D01*
X0405961Y0171292D02*
X0413575Y0171292D01*
X0413922Y0171148D02*
X0415613Y0171148D01*
X0417175Y0171795D01*
X0418371Y0172990D01*
X0419018Y0174552D01*
X0419018Y0176243D01*
X0418371Y0177805D01*
X0417175Y0179001D01*
X0415613Y0179648D01*
X0413922Y0179648D01*
X0412360Y0179001D01*
X0411165Y0177805D01*
X0410518Y0176243D01*
X0410518Y0174552D01*
X0411165Y0172990D01*
X0412360Y0171795D01*
X0413922Y0171148D01*
X0415961Y0171292D02*
X0423575Y0171292D01*
X0423922Y0171148D02*
X0425613Y0171148D01*
X0427175Y0171795D01*
X0428371Y0172990D01*
X0429018Y0174552D01*
X0429018Y0176243D01*
X0428371Y0177805D01*
X0427175Y0179001D01*
X0425613Y0179648D01*
X0423922Y0179648D01*
X0422360Y0179001D01*
X0421165Y0177805D01*
X0420518Y0176243D01*
X0420518Y0174552D01*
X0421165Y0172990D01*
X0422360Y0171795D01*
X0423922Y0171148D01*
X0423070Y0169295D02*
X0416465Y0169295D01*
X0417880Y0168296D02*
X0421656Y0168296D01*
X0420955Y0167298D02*
X0418581Y0167298D01*
X0418995Y0166299D02*
X0420541Y0166299D01*
X0420518Y0165301D02*
X0419018Y0165301D01*
X0418914Y0164302D02*
X0420621Y0164302D01*
X0421035Y0163303D02*
X0418500Y0163303D01*
X0417685Y0162305D02*
X0421850Y0162305D01*
X0427685Y0162305D02*
X0431850Y0162305D01*
X0431035Y0163303D02*
X0428500Y0163303D01*
X0428914Y0164302D02*
X0430621Y0164302D01*
X0430518Y0165301D02*
X0429018Y0165301D01*
X0428995Y0166299D02*
X0430541Y0166299D01*
X0430955Y0167298D02*
X0428581Y0167298D01*
X0427880Y0168296D02*
X0431656Y0168296D01*
X0433070Y0169295D02*
X0426465Y0169295D01*
X0425961Y0171292D02*
X0433575Y0171292D01*
X0433922Y0171148D02*
X0435613Y0171148D01*
X0437175Y0171795D01*
X0438371Y0172990D01*
X0439018Y0174552D01*
X0439018Y0176243D01*
X0438371Y0177805D01*
X0437175Y0179001D01*
X0435613Y0179648D01*
X0433922Y0179648D01*
X0432360Y0179001D01*
X0431165Y0177805D01*
X0430518Y0176243D01*
X0430518Y0174552D01*
X0431165Y0172990D01*
X0432360Y0171795D01*
X0433922Y0171148D01*
X0435961Y0171292D02*
X0443575Y0171292D01*
X0443922Y0171148D02*
X0445613Y0171148D01*
X0447175Y0171795D01*
X0448371Y0172990D01*
X0449018Y0174552D01*
X0449018Y0176243D01*
X0448371Y0177805D01*
X0447175Y0179001D01*
X0445613Y0179648D01*
X0443922Y0179648D01*
X0442360Y0179001D01*
X0441165Y0177805D01*
X0440518Y0176243D01*
X0440518Y0174552D01*
X0441165Y0172990D01*
X0442360Y0171795D01*
X0443922Y0171148D01*
X0443070Y0169295D02*
X0436465Y0169295D01*
X0437880Y0168296D02*
X0441656Y0168296D01*
X0440955Y0167298D02*
X0438581Y0167298D01*
X0438995Y0166299D02*
X0440541Y0166299D01*
X0440518Y0165301D02*
X0439018Y0165301D01*
X0438914Y0164302D02*
X0440621Y0164302D01*
X0441035Y0163303D02*
X0438500Y0163303D01*
X0437685Y0162305D02*
X0441850Y0162305D01*
X0447685Y0162305D02*
X0451850Y0162305D01*
X0451035Y0163303D02*
X0448500Y0163303D01*
X0448914Y0164302D02*
X0450621Y0164302D01*
X0450518Y0165301D02*
X0449018Y0165301D01*
X0448995Y0166299D02*
X0450541Y0166299D01*
X0450955Y0167298D02*
X0448581Y0167298D01*
X0447880Y0168296D02*
X0451656Y0168296D01*
X0453070Y0169295D02*
X0446465Y0169295D01*
X0445961Y0171292D02*
X0453575Y0171292D01*
X0453922Y0171148D02*
X0455613Y0171148D01*
X0457175Y0171795D01*
X0458371Y0172990D01*
X0459018Y0174552D01*
X0459018Y0176243D01*
X0458371Y0177805D01*
X0457175Y0179001D01*
X0455613Y0179648D01*
X0453922Y0179648D01*
X0452360Y0179001D01*
X0451165Y0177805D01*
X0450518Y0176243D01*
X0450518Y0174552D01*
X0451165Y0172990D01*
X0452360Y0171795D01*
X0453922Y0171148D01*
X0455961Y0171292D02*
X0463575Y0171292D01*
X0463922Y0171148D02*
X0465613Y0171148D01*
X0467175Y0171795D01*
X0468371Y0172990D01*
X0469018Y0174552D01*
X0469018Y0176243D01*
X0468371Y0177805D01*
X0467175Y0179001D01*
X0465613Y0179648D01*
X0463922Y0179648D01*
X0462360Y0179001D01*
X0461165Y0177805D01*
X0460518Y0176243D01*
X0460518Y0174552D01*
X0461165Y0172990D01*
X0462360Y0171795D01*
X0463922Y0171148D01*
X0463070Y0169295D02*
X0456465Y0169295D01*
X0457880Y0168296D02*
X0461656Y0168296D01*
X0460955Y0167298D02*
X0458581Y0167298D01*
X0458995Y0166299D02*
X0460541Y0166299D01*
X0460518Y0165301D02*
X0459018Y0165301D01*
X0458914Y0164302D02*
X0460621Y0164302D01*
X0461035Y0163303D02*
X0458500Y0163303D01*
X0457685Y0162305D02*
X0461850Y0162305D01*
X0467685Y0162305D02*
X0471850Y0162305D01*
X0471035Y0163303D02*
X0468500Y0163303D01*
X0468914Y0164302D02*
X0470621Y0164302D01*
X0470518Y0165301D02*
X0469018Y0165301D01*
X0468995Y0166299D02*
X0470541Y0166299D01*
X0470955Y0167298D02*
X0468581Y0167298D01*
X0467880Y0168296D02*
X0471656Y0168296D01*
X0473070Y0169295D02*
X0466465Y0169295D01*
X0465961Y0171292D02*
X0473575Y0171292D01*
X0473922Y0171148D02*
X0475613Y0171148D01*
X0477175Y0171795D01*
X0478371Y0172990D01*
X0479018Y0174552D01*
X0479018Y0176243D01*
X0478371Y0177805D01*
X0477175Y0179001D01*
X0475613Y0179648D01*
X0473922Y0179648D01*
X0472360Y0179001D01*
X0471165Y0177805D01*
X0470518Y0176243D01*
X0470518Y0174552D01*
X0471165Y0172990D01*
X0472360Y0171795D01*
X0473922Y0171148D01*
X0475961Y0171292D02*
X0483575Y0171292D01*
X0483922Y0171148D02*
X0485613Y0171148D01*
X0487175Y0171795D01*
X0488371Y0172990D01*
X0489018Y0174552D01*
X0489018Y0176243D01*
X0488371Y0177805D01*
X0487175Y0179001D01*
X0485613Y0179648D01*
X0483922Y0179648D01*
X0482360Y0179001D01*
X0481165Y0177805D01*
X0480518Y0176243D01*
X0480518Y0174552D01*
X0481165Y0172990D01*
X0482360Y0171795D01*
X0483922Y0171148D01*
X0483070Y0169295D02*
X0476465Y0169295D01*
X0477880Y0168296D02*
X0481656Y0168296D01*
X0480955Y0167298D02*
X0478581Y0167298D01*
X0478995Y0166299D02*
X0480541Y0166299D01*
X0480518Y0165301D02*
X0479018Y0165301D01*
X0478914Y0164302D02*
X0480621Y0164302D01*
X0481035Y0163303D02*
X0478500Y0163303D01*
X0477685Y0162305D02*
X0481850Y0162305D01*
X0487685Y0162305D02*
X0491850Y0162305D01*
X0491035Y0163303D02*
X0488500Y0163303D01*
X0488914Y0164302D02*
X0490621Y0164302D01*
X0490518Y0165301D02*
X0489018Y0165301D01*
X0488995Y0166299D02*
X0490541Y0166299D01*
X0490955Y0167298D02*
X0488581Y0167298D01*
X0487880Y0168296D02*
X0491656Y0168296D01*
X0493070Y0169295D02*
X0486465Y0169295D01*
X0485961Y0171292D02*
X0493575Y0171292D01*
X0493922Y0171148D02*
X0492360Y0171795D01*
X0491165Y0172990D01*
X0490518Y0174552D01*
X0490518Y0176243D01*
X0491165Y0177805D01*
X0492360Y0179001D01*
X0493922Y0179648D01*
X0495613Y0179648D01*
X0497175Y0179001D01*
X0498371Y0177805D01*
X0499018Y0176243D01*
X0499018Y0174552D01*
X0498371Y0172990D01*
X0497175Y0171795D01*
X0495613Y0171148D01*
X0493922Y0171148D01*
X0495961Y0171292D02*
X0503575Y0171292D01*
X0503922Y0171148D02*
X0505613Y0171148D01*
X0507175Y0171795D01*
X0508371Y0172990D01*
X0509018Y0174552D01*
X0509018Y0176243D01*
X0508371Y0177805D01*
X0507175Y0179001D01*
X0505613Y0179648D01*
X0503922Y0179648D01*
X0502360Y0179001D01*
X0501165Y0177805D01*
X0500518Y0176243D01*
X0500518Y0174552D01*
X0501165Y0172990D01*
X0502360Y0171795D01*
X0503922Y0171148D01*
X0503070Y0169295D02*
X0496465Y0169295D01*
X0497880Y0168296D02*
X0501656Y0168296D01*
X0500955Y0167298D02*
X0498581Y0167298D01*
X0498995Y0166299D02*
X0500541Y0166299D01*
X0500518Y0165301D02*
X0499018Y0165301D01*
X0498914Y0164302D02*
X0500621Y0164302D01*
X0501035Y0163303D02*
X0498500Y0163303D01*
X0497685Y0162305D02*
X0501850Y0162305D01*
X0507685Y0162305D02*
X0511850Y0162305D01*
X0511035Y0163303D02*
X0508500Y0163303D01*
X0508914Y0164302D02*
X0510621Y0164302D01*
X0510518Y0165301D02*
X0509018Y0165301D01*
X0508995Y0166299D02*
X0510541Y0166299D01*
X0510955Y0167298D02*
X0508581Y0167298D01*
X0507880Y0168296D02*
X0511656Y0168296D01*
X0513070Y0169295D02*
X0506465Y0169295D01*
X0505961Y0171292D02*
X0513575Y0171292D01*
X0513922Y0171148D02*
X0515613Y0171148D01*
X0517175Y0171795D01*
X0518371Y0172990D01*
X0519018Y0174552D01*
X0519018Y0176243D01*
X0518371Y0177805D01*
X0517175Y0179001D01*
X0515613Y0179648D01*
X0513922Y0179648D01*
X0512360Y0179001D01*
X0511165Y0177805D01*
X0510518Y0176243D01*
X0510518Y0174552D01*
X0511165Y0172990D01*
X0512360Y0171795D01*
X0513922Y0171148D01*
X0515961Y0171292D02*
X0554921Y0171292D01*
X0554921Y0172290D02*
X0517671Y0172290D01*
X0518494Y0173289D02*
X0554921Y0173289D01*
X0554921Y0174287D02*
X0518908Y0174287D01*
X0519018Y0175286D02*
X0554921Y0175286D01*
X0554921Y0176284D02*
X0519001Y0176284D01*
X0518587Y0177283D02*
X0554921Y0177283D01*
X0554921Y0178281D02*
X0517895Y0178281D01*
X0516501Y0179280D02*
X0554921Y0179280D01*
X0554921Y0180278D02*
X0033000Y0180278D01*
X0033000Y0179280D02*
X0343034Y0179280D01*
X0341641Y0178281D02*
X0237525Y0178281D01*
X0239275Y0177283D02*
X0340948Y0177283D01*
X0340535Y0176284D02*
X0240087Y0176284D01*
X0240500Y0175286D02*
X0340518Y0175286D01*
X0340628Y0174287D02*
X0240575Y0174287D01*
X0240494Y0173289D02*
X0341041Y0173289D01*
X0341865Y0172290D02*
X0240080Y0172290D01*
X0235514Y0170293D02*
X0192035Y0170293D01*
X0192035Y0171292D02*
X0233741Y0171292D01*
X0232920Y0172290D02*
X0192035Y0172290D01*
X0191718Y0173289D02*
X0232506Y0173289D01*
X0232425Y0174287D02*
X0191304Y0174287D01*
X0190548Y0175286D02*
X0232500Y0175286D01*
X0232913Y0176284D02*
X0189550Y0176284D01*
X0182663Y0176284D02*
X0140337Y0176284D01*
X0140252Y0176369D02*
X0138073Y0177272D01*
X0135714Y0177272D01*
X0133535Y0176369D01*
X0131867Y0174701D01*
X0130965Y0172522D01*
X0130965Y0170163D01*
X0131867Y0167984D01*
X0133535Y0166316D01*
X0135714Y0165413D01*
X0138073Y0165413D01*
X0140252Y0166316D01*
X0141920Y0167984D01*
X0142823Y0170163D01*
X0142823Y0172522D01*
X0141920Y0174701D01*
X0140252Y0176369D01*
X0141336Y0175286D02*
X0181664Y0175286D01*
X0180908Y0174287D02*
X0142092Y0174287D01*
X0142505Y0173289D02*
X0180495Y0173289D01*
X0180177Y0172290D02*
X0142823Y0172290D01*
X0142823Y0171292D02*
X0180177Y0171292D01*
X0180177Y0170293D02*
X0142823Y0170293D01*
X0142463Y0169295D02*
X0180537Y0169295D01*
X0180951Y0168296D02*
X0142049Y0168296D01*
X0141234Y0167298D02*
X0181766Y0167298D01*
X0182789Y0166299D02*
X0140211Y0166299D01*
X0133576Y0166299D02*
X0114424Y0166299D01*
X0114465Y0166316D02*
X0116133Y0167984D01*
X0117035Y0170163D01*
X0117035Y0172522D01*
X0116133Y0174701D01*
X0114465Y0176369D01*
X0112286Y0177272D01*
X0109927Y0177272D01*
X0107748Y0176369D01*
X0106080Y0174701D01*
X0105177Y0172522D01*
X0105177Y0170163D01*
X0106080Y0167984D01*
X0107748Y0166316D01*
X0109927Y0165413D01*
X0112286Y0165413D01*
X0114465Y0166316D01*
X0115446Y0167298D02*
X0132554Y0167298D01*
X0131738Y0168296D02*
X0116262Y0168296D01*
X0116676Y0169295D02*
X0131324Y0169295D01*
X0130965Y0170293D02*
X0117035Y0170293D01*
X0117035Y0171292D02*
X0130965Y0171292D01*
X0130965Y0172290D02*
X0117035Y0172290D01*
X0116718Y0173289D02*
X0131282Y0173289D01*
X0131696Y0174287D02*
X0116304Y0174287D01*
X0115548Y0175286D02*
X0132452Y0175286D01*
X0133450Y0176284D02*
X0114550Y0176284D01*
X0107663Y0176284D02*
X0065337Y0176284D01*
X0065252Y0176369D02*
X0063073Y0177272D01*
X0060714Y0177272D01*
X0058535Y0176369D01*
X0056867Y0174701D01*
X0055965Y0172522D01*
X0055965Y0170163D01*
X0056867Y0167984D01*
X0058535Y0166316D01*
X0060714Y0165413D01*
X0063073Y0165413D01*
X0065252Y0166316D01*
X0066920Y0167984D01*
X0067823Y0170163D01*
X0067823Y0172522D01*
X0066920Y0174701D01*
X0065252Y0176369D01*
X0066336Y0175286D02*
X0106664Y0175286D01*
X0105908Y0174287D02*
X0067092Y0174287D01*
X0067505Y0173289D02*
X0105495Y0173289D01*
X0105177Y0172290D02*
X0067823Y0172290D01*
X0067823Y0171292D02*
X0105177Y0171292D01*
X0105177Y0170293D02*
X0067823Y0170293D01*
X0067463Y0169295D02*
X0105537Y0169295D01*
X0105951Y0168296D02*
X0067049Y0168296D01*
X0066234Y0167298D02*
X0106766Y0167298D01*
X0107789Y0166299D02*
X0065211Y0166299D01*
X0058576Y0166299D02*
X0033000Y0166299D01*
X0033000Y0167298D02*
X0057554Y0167298D01*
X0056738Y0168296D02*
X0033000Y0168296D01*
X0033000Y0169295D02*
X0056324Y0169295D01*
X0055965Y0170293D02*
X0033000Y0170293D01*
X0033000Y0171292D02*
X0055965Y0171292D01*
X0055965Y0172290D02*
X0033000Y0172290D01*
X0033000Y0173289D02*
X0056282Y0173289D01*
X0056696Y0174287D02*
X0033000Y0174287D01*
X0033000Y0175286D02*
X0057452Y0175286D01*
X0058450Y0176284D02*
X0033000Y0176284D01*
X0033000Y0177283D02*
X0233725Y0177283D01*
X0235475Y0178281D02*
X0033000Y0178281D01*
X0033000Y0181277D02*
X0554921Y0181277D01*
X0554921Y0182275D02*
X0033000Y0182275D01*
X0033000Y0183274D02*
X0554921Y0183274D01*
X0554921Y0184272D02*
X0033000Y0184272D01*
X0033000Y0185271D02*
X0554921Y0185271D01*
X0554921Y0186269D02*
X0033000Y0186269D01*
X0033000Y0187268D02*
X0554921Y0187268D01*
X0554921Y0188266D02*
X0033000Y0188266D01*
X0033000Y0189265D02*
X0554921Y0189265D01*
X0554921Y0190263D02*
X0033000Y0190263D01*
X0033000Y0191262D02*
X0554921Y0191262D01*
X0554921Y0192260D02*
X0033000Y0192260D01*
X0033000Y0193259D02*
X0554921Y0193259D01*
X0554921Y0194257D02*
X0033000Y0194257D01*
X0033000Y0195256D02*
X0554921Y0195256D01*
X0554921Y0196254D02*
X0033000Y0196254D01*
X0033000Y0197253D02*
X0554921Y0197253D01*
X0554921Y0198251D02*
X0033000Y0198251D01*
X0033000Y0199250D02*
X0554921Y0199250D01*
X0554921Y0200248D02*
X0033000Y0200248D01*
X0033000Y0201247D02*
X0469462Y0201247D01*
X0468535Y0201631D02*
X0470714Y0200728D01*
X0473073Y0200728D01*
X0475252Y0201631D01*
X0476920Y0203299D01*
X0477823Y0205478D01*
X0477823Y0207837D01*
X0476920Y0210016D01*
X0475252Y0211684D01*
X0473073Y0212587D01*
X0470714Y0212587D01*
X0468535Y0211684D01*
X0466867Y0210016D01*
X0465965Y0207837D01*
X0465965Y0205478D01*
X0466867Y0203299D01*
X0468535Y0201631D01*
X0467921Y0202245D02*
X0033000Y0202245D01*
X0033000Y0203244D02*
X0466922Y0203244D01*
X0466476Y0204242D02*
X0033000Y0204242D01*
X0033000Y0205241D02*
X0466063Y0205241D01*
X0465965Y0206239D02*
X0033000Y0206239D01*
X0033000Y0207238D02*
X0465965Y0207238D01*
X0466130Y0208237D02*
X0033000Y0208237D01*
X0033000Y0209235D02*
X0466544Y0209235D01*
X0467085Y0210234D02*
X0033000Y0210234D01*
X0033000Y0211232D02*
X0468083Y0211232D01*
X0469855Y0212231D02*
X0033000Y0212231D01*
X0033000Y0213229D02*
X0554921Y0213229D01*
X0554921Y0212231D02*
X0523145Y0212231D01*
X0522286Y0212587D02*
X0519927Y0212587D01*
X0517748Y0211684D01*
X0516080Y0210016D01*
X0515177Y0207837D01*
X0515177Y0205478D01*
X0516080Y0203299D01*
X0517748Y0201631D01*
X0519927Y0200728D01*
X0522286Y0200728D01*
X0524465Y0201631D01*
X0526133Y0203299D01*
X0527035Y0205478D01*
X0527035Y0207837D01*
X0526133Y0210016D01*
X0524465Y0211684D01*
X0522286Y0212587D01*
X0524917Y0211232D02*
X0554921Y0211232D01*
X0554921Y0210234D02*
X0525915Y0210234D01*
X0526456Y0209235D02*
X0554921Y0209235D01*
X0554921Y0208237D02*
X0526870Y0208237D01*
X0527035Y0207238D02*
X0554921Y0207238D01*
X0554921Y0206239D02*
X0527035Y0206239D01*
X0526937Y0205241D02*
X0554921Y0205241D01*
X0554921Y0204242D02*
X0526524Y0204242D01*
X0526078Y0203244D02*
X0554921Y0203244D01*
X0554921Y0202245D02*
X0525079Y0202245D01*
X0523538Y0201247D02*
X0554921Y0201247D01*
X0554921Y0214228D02*
X0033000Y0214228D01*
X0033000Y0215226D02*
X0554921Y0215226D01*
X0554921Y0216225D02*
X0033000Y0216225D01*
X0033000Y0217223D02*
X0554921Y0217223D01*
X0554921Y0218222D02*
X0033000Y0218222D01*
X0033000Y0219220D02*
X0554921Y0219220D01*
X0554921Y0220219D02*
X0033000Y0220219D01*
X0033000Y0221217D02*
X0468774Y0221217D01*
X0468535Y0221316D02*
X0470714Y0220413D01*
X0473073Y0220413D01*
X0475252Y0221316D01*
X0476920Y0222984D01*
X0477823Y0225163D01*
X0477823Y0227522D01*
X0476920Y0229701D01*
X0475252Y0231369D01*
X0473073Y0232272D01*
X0470714Y0232272D01*
X0468535Y0231369D01*
X0466867Y0229701D01*
X0465965Y0227522D01*
X0465965Y0225163D01*
X0466867Y0222984D01*
X0468535Y0221316D01*
X0467635Y0222216D02*
X0033000Y0222216D01*
X0033000Y0223214D02*
X0466772Y0223214D01*
X0466358Y0224213D02*
X0033000Y0224213D01*
X0033000Y0225211D02*
X0465965Y0225211D01*
X0465965Y0226210D02*
X0033000Y0226210D01*
X0033000Y0227208D02*
X0465965Y0227208D01*
X0466248Y0228207D02*
X0033000Y0228207D01*
X0033000Y0229205D02*
X0466662Y0229205D01*
X0467370Y0230204D02*
X0033000Y0230204D01*
X0033000Y0231202D02*
X0468368Y0231202D01*
X0470543Y0232201D02*
X0033000Y0232201D01*
X0033000Y0233199D02*
X0554921Y0233199D01*
X0554921Y0232201D02*
X0522457Y0232201D01*
X0522286Y0232272D02*
X0519927Y0232272D01*
X0517748Y0231369D01*
X0516080Y0229701D01*
X0515177Y0227522D01*
X0515177Y0225163D01*
X0516080Y0222984D01*
X0517748Y0221316D01*
X0519927Y0220413D01*
X0522286Y0220413D01*
X0524465Y0221316D01*
X0526133Y0222984D01*
X0527035Y0225163D01*
X0527035Y0227522D01*
X0526133Y0229701D01*
X0524465Y0231369D01*
X0522286Y0232272D01*
X0519756Y0232201D02*
X0473244Y0232201D01*
X0475419Y0231202D02*
X0517581Y0231202D01*
X0516582Y0230204D02*
X0476418Y0230204D01*
X0477126Y0229205D02*
X0515874Y0229205D01*
X0515461Y0228207D02*
X0477539Y0228207D01*
X0477823Y0227208D02*
X0515177Y0227208D01*
X0515177Y0226210D02*
X0477823Y0226210D01*
X0477823Y0225211D02*
X0515177Y0225211D01*
X0515571Y0224213D02*
X0477429Y0224213D01*
X0477016Y0223214D02*
X0515984Y0223214D01*
X0516848Y0222216D02*
X0476152Y0222216D01*
X0475014Y0221217D02*
X0517986Y0221217D01*
X0524226Y0221217D02*
X0554921Y0221217D01*
X0554921Y0222216D02*
X0525364Y0222216D01*
X0526228Y0223214D02*
X0554921Y0223214D01*
X0554921Y0224213D02*
X0526642Y0224213D01*
X0527035Y0225211D02*
X0554921Y0225211D01*
X0554921Y0226210D02*
X0527035Y0226210D01*
X0527035Y0227208D02*
X0554921Y0227208D01*
X0554921Y0228207D02*
X0526752Y0228207D01*
X0526338Y0229205D02*
X0554921Y0229205D01*
X0554921Y0230204D02*
X0525630Y0230204D01*
X0524632Y0231202D02*
X0554921Y0231202D01*
X0554921Y0234198D02*
X0033000Y0234198D01*
X0033000Y0235196D02*
X0554921Y0235196D01*
X0554921Y0236195D02*
X0033000Y0236195D01*
X0033000Y0237193D02*
X0115138Y0237193D01*
X0115605Y0237000D02*
X0117395Y0237000D01*
X0119049Y0237685D01*
X0120315Y0238951D01*
X0121000Y0240605D01*
X0121000Y0242395D01*
X0120315Y0244049D01*
X0119049Y0245315D01*
X0117395Y0246000D01*
X0115605Y0246000D01*
X0113951Y0245315D01*
X0112685Y0244049D01*
X0112000Y0242395D01*
X0112000Y0240605D01*
X0112685Y0238951D01*
X0113951Y0237685D01*
X0115605Y0237000D01*
X0117862Y0237193D02*
X0125138Y0237193D01*
X0125605Y0237000D02*
X0127395Y0237000D01*
X0129049Y0237685D01*
X0130315Y0238951D01*
X0131000Y0240605D01*
X0131000Y0242395D01*
X0130315Y0244049D01*
X0129049Y0245315D01*
X0127395Y0246000D01*
X0125605Y0246000D01*
X0123951Y0245315D01*
X0122685Y0244049D01*
X0122000Y0242395D01*
X0122000Y0240605D01*
X0122685Y0238951D01*
X0123951Y0237685D01*
X0125605Y0237000D01*
X0127862Y0237193D02*
X0135138Y0237193D01*
X0135605Y0237000D02*
X0133951Y0237685D01*
X0132685Y0238951D01*
X0132000Y0240605D01*
X0132000Y0242395D01*
X0132685Y0244049D01*
X0133951Y0245315D01*
X0135605Y0246000D01*
X0137395Y0246000D01*
X0139049Y0245315D01*
X0140315Y0244049D01*
X0141000Y0242395D01*
X0141000Y0240605D01*
X0140315Y0238951D01*
X0139049Y0237685D01*
X0137395Y0237000D01*
X0135605Y0237000D01*
X0137862Y0237193D02*
X0145138Y0237193D01*
X0145605Y0237000D02*
X0147395Y0237000D01*
X0149049Y0237685D01*
X0150315Y0238951D01*
X0151000Y0240605D01*
X0151000Y0242395D01*
X0150315Y0244049D01*
X0149049Y0245315D01*
X0147395Y0246000D01*
X0145605Y0246000D01*
X0143951Y0245315D01*
X0142685Y0244049D01*
X0142000Y0242395D01*
X0142000Y0240605D01*
X0142685Y0238951D01*
X0143951Y0237685D01*
X0145605Y0237000D01*
X0147862Y0237193D02*
X0155138Y0237193D01*
X0155605Y0237000D02*
X0157395Y0237000D01*
X0159049Y0237685D01*
X0160315Y0238951D01*
X0161000Y0240605D01*
X0161000Y0242395D01*
X0160315Y0244049D01*
X0159049Y0245315D01*
X0157395Y0246000D01*
X0155605Y0246000D01*
X0153951Y0245315D01*
X0152685Y0244049D01*
X0152000Y0242395D01*
X0152000Y0240605D01*
X0152685Y0238951D01*
X0153951Y0237685D01*
X0155605Y0237000D01*
X0157862Y0237193D02*
X0165138Y0237193D01*
X0165605Y0237000D02*
X0167395Y0237000D01*
X0169049Y0237685D01*
X0170315Y0238951D01*
X0171000Y0240605D01*
X0171000Y0242395D01*
X0170315Y0244049D01*
X0169049Y0245315D01*
X0167395Y0246000D01*
X0165605Y0246000D01*
X0163951Y0245315D01*
X0162685Y0244049D01*
X0162000Y0242395D01*
X0162000Y0240605D01*
X0162685Y0238951D01*
X0163951Y0237685D01*
X0165605Y0237000D01*
X0167862Y0237193D02*
X0360138Y0237193D01*
X0360605Y0237000D02*
X0362395Y0237000D01*
X0364049Y0237685D01*
X0365315Y0238951D01*
X0366000Y0240605D01*
X0366000Y0242395D01*
X0365315Y0244049D01*
X0364049Y0245315D01*
X0362395Y0246000D01*
X0360605Y0246000D01*
X0358951Y0245315D01*
X0357685Y0244049D01*
X0357000Y0242395D01*
X0357000Y0240605D01*
X0357685Y0238951D01*
X0358951Y0237685D01*
X0360605Y0237000D01*
X0362862Y0237193D02*
X0370138Y0237193D01*
X0370605Y0237000D02*
X0368951Y0237685D01*
X0367685Y0238951D01*
X0367000Y0240605D01*
X0367000Y0242395D01*
X0367685Y0244049D01*
X0368951Y0245315D01*
X0370605Y0246000D01*
X0372395Y0246000D01*
X0374049Y0245315D01*
X0375315Y0244049D01*
X0376000Y0242395D01*
X0376000Y0240605D01*
X0375315Y0238951D01*
X0374049Y0237685D01*
X0372395Y0237000D01*
X0370605Y0237000D01*
X0372862Y0237193D02*
X0380138Y0237193D01*
X0380605Y0237000D02*
X0382395Y0237000D01*
X0384049Y0237685D01*
X0385315Y0238951D01*
X0386000Y0240605D01*
X0386000Y0242395D01*
X0385315Y0244049D01*
X0384049Y0245315D01*
X0382395Y0246000D01*
X0380605Y0246000D01*
X0378951Y0245315D01*
X0377685Y0244049D01*
X0377000Y0242395D01*
X0377000Y0240605D01*
X0377685Y0238951D01*
X0378951Y0237685D01*
X0380605Y0237000D01*
X0382862Y0237193D02*
X0390138Y0237193D01*
X0390605Y0237000D02*
X0392395Y0237000D01*
X0394049Y0237685D01*
X0395315Y0238951D01*
X0396000Y0240605D01*
X0396000Y0242395D01*
X0395315Y0244049D01*
X0394049Y0245315D01*
X0392395Y0246000D01*
X0390605Y0246000D01*
X0388951Y0245315D01*
X0387685Y0244049D01*
X0387000Y0242395D01*
X0387000Y0240605D01*
X0387685Y0238951D01*
X0388951Y0237685D01*
X0390605Y0237000D01*
X0392862Y0237193D02*
X0400138Y0237193D01*
X0400605Y0237000D02*
X0402395Y0237000D01*
X0404049Y0237685D01*
X0405315Y0238951D01*
X0406000Y0240605D01*
X0406000Y0242395D01*
X0405315Y0244049D01*
X0404049Y0245315D01*
X0402395Y0246000D01*
X0400605Y0246000D01*
X0398951Y0245315D01*
X0397685Y0244049D01*
X0397000Y0242395D01*
X0397000Y0240605D01*
X0397685Y0238951D01*
X0398951Y0237685D01*
X0400605Y0237000D01*
X0402862Y0237193D02*
X0410138Y0237193D01*
X0410605Y0237000D02*
X0412395Y0237000D01*
X0414049Y0237685D01*
X0415315Y0238951D01*
X0416000Y0240605D01*
X0416000Y0242395D01*
X0415315Y0244049D01*
X0414049Y0245315D01*
X0412395Y0246000D01*
X0410605Y0246000D01*
X0408951Y0245315D01*
X0407685Y0244049D01*
X0407000Y0242395D01*
X0407000Y0240605D01*
X0407685Y0238951D01*
X0408951Y0237685D01*
X0410605Y0237000D01*
X0412862Y0237193D02*
X0554921Y0237193D01*
X0554921Y0238192D02*
X0414556Y0238192D01*
X0415414Y0239190D02*
X0554921Y0239190D01*
X0554921Y0240189D02*
X0415828Y0240189D01*
X0416000Y0241187D02*
X0554921Y0241187D01*
X0554921Y0242186D02*
X0416000Y0242186D01*
X0415673Y0243184D02*
X0554921Y0243184D01*
X0554921Y0244183D02*
X0415181Y0244183D01*
X0414183Y0245181D02*
X0554921Y0245181D01*
X0554921Y0246180D02*
X0033000Y0246180D01*
X0033000Y0247178D02*
X0554921Y0247178D01*
X0554921Y0248177D02*
X0033000Y0248177D01*
X0033000Y0249175D02*
X0554921Y0249175D01*
X0554921Y0250174D02*
X0033000Y0250174D01*
X0033000Y0251172D02*
X0554921Y0251172D01*
X0554921Y0252171D02*
X0033000Y0252171D01*
X0033000Y0253170D02*
X0554921Y0253170D01*
X0554921Y0254168D02*
X0033000Y0254168D01*
X0033000Y0255167D02*
X0554921Y0255167D01*
X0554921Y0256165D02*
X0033000Y0256165D01*
X0033000Y0257164D02*
X0043562Y0257164D01*
X0044561Y0256750D02*
X0048439Y0256750D01*
X0052023Y0258234D01*
X0054766Y0260977D01*
X0056250Y0264561D01*
X0056250Y0268439D01*
X0054766Y0272023D01*
X0052023Y0274766D01*
X0048439Y0276250D01*
X0044561Y0276250D01*
X0040977Y0274766D01*
X0038234Y0272023D01*
X0036750Y0268439D01*
X0036750Y0264561D01*
X0038234Y0260977D01*
X0040977Y0258234D01*
X0044561Y0256750D01*
X0041152Y0258162D02*
X0033000Y0258162D01*
X0033000Y0259161D02*
X0040051Y0259161D01*
X0039052Y0260159D02*
X0033000Y0260159D01*
X0033000Y0261158D02*
X0038160Y0261158D01*
X0037746Y0262156D02*
X0033000Y0262156D01*
X0033000Y0263155D02*
X0037332Y0263155D01*
X0036919Y0264153D02*
X0033000Y0264153D01*
X0033000Y0265152D02*
X0036750Y0265152D01*
X0036750Y0266150D02*
X0033000Y0266150D01*
X0033000Y0267149D02*
X0036750Y0267149D01*
X0036750Y0268147D02*
X0033000Y0268147D01*
X0033000Y0269146D02*
X0037043Y0269146D01*
X0037456Y0270144D02*
X0033000Y0270144D01*
X0033000Y0271143D02*
X0037870Y0271143D01*
X0038353Y0272141D02*
X0033000Y0272141D01*
X0033000Y0273140D02*
X0039351Y0273140D01*
X0040350Y0274138D02*
X0033000Y0274138D01*
X0033000Y0275137D02*
X0041873Y0275137D01*
X0044284Y0276135D02*
X0033000Y0276135D01*
X0033000Y0277134D02*
X0554921Y0277134D01*
X0554921Y0278132D02*
X0033000Y0278132D01*
X0033000Y0279131D02*
X0554921Y0279131D01*
X0554921Y0276135D02*
X0543716Y0276135D01*
X0543439Y0276250D02*
X0539561Y0276250D01*
X0535977Y0274766D01*
X0533234Y0272023D01*
X0531750Y0268439D01*
X0531750Y0264561D01*
X0533234Y0260977D01*
X0535977Y0258234D01*
X0539561Y0256750D01*
X0543439Y0256750D01*
X0547023Y0258234D01*
X0549766Y0260977D01*
X0551250Y0264561D01*
X0551250Y0268439D01*
X0549766Y0272023D01*
X0547023Y0274766D01*
X0543439Y0276250D01*
X0546127Y0275137D02*
X0554921Y0275137D01*
X0554921Y0274138D02*
X0547650Y0274138D01*
X0548649Y0273140D02*
X0554921Y0273140D01*
X0554921Y0272141D02*
X0549647Y0272141D01*
X0550130Y0271143D02*
X0554921Y0271143D01*
X0554921Y0270144D02*
X0550544Y0270144D01*
X0550957Y0269146D02*
X0554921Y0269146D01*
X0554921Y0268147D02*
X0551250Y0268147D01*
X0551250Y0267149D02*
X0554921Y0267149D01*
X0554921Y0266150D02*
X0551250Y0266150D01*
X0551250Y0265152D02*
X0554921Y0265152D01*
X0554921Y0264153D02*
X0551081Y0264153D01*
X0550668Y0263155D02*
X0554921Y0263155D01*
X0554921Y0262156D02*
X0550254Y0262156D01*
X0549840Y0261158D02*
X0554921Y0261158D01*
X0554921Y0260159D02*
X0548948Y0260159D01*
X0547949Y0259161D02*
X0554921Y0259161D01*
X0554921Y0258162D02*
X0546848Y0258162D01*
X0544438Y0257164D02*
X0554921Y0257164D01*
X0538562Y0257164D02*
X0329438Y0257164D01*
X0328439Y0256750D02*
X0332023Y0258234D01*
X0334766Y0260977D01*
X0336250Y0264561D01*
X0336250Y0268439D01*
X0334766Y0272023D01*
X0332023Y0274766D01*
X0328439Y0276250D01*
X0324561Y0276250D01*
X0320977Y0274766D01*
X0318234Y0272023D01*
X0316750Y0268439D01*
X0316750Y0264561D01*
X0318234Y0260977D01*
X0320977Y0258234D01*
X0324561Y0256750D01*
X0328439Y0256750D01*
X0331848Y0258162D02*
X0536152Y0258162D01*
X0535051Y0259161D02*
X0332949Y0259161D01*
X0333948Y0260159D02*
X0534052Y0260159D01*
X0533160Y0261158D02*
X0334840Y0261158D01*
X0335254Y0262156D02*
X0532746Y0262156D01*
X0532332Y0263155D02*
X0335668Y0263155D01*
X0336081Y0264153D02*
X0531919Y0264153D01*
X0531750Y0265152D02*
X0336250Y0265152D01*
X0336250Y0266150D02*
X0531750Y0266150D01*
X0531750Y0267149D02*
X0336250Y0267149D01*
X0336250Y0268147D02*
X0531750Y0268147D01*
X0532043Y0269146D02*
X0335957Y0269146D01*
X0335544Y0270144D02*
X0532456Y0270144D01*
X0532870Y0271143D02*
X0335130Y0271143D01*
X0334647Y0272141D02*
X0533353Y0272141D01*
X0534351Y0273140D02*
X0333649Y0273140D01*
X0332650Y0274138D02*
X0535350Y0274138D01*
X0536873Y0275137D02*
X0331127Y0275137D01*
X0328716Y0276135D02*
X0539284Y0276135D01*
X0519067Y0212231D02*
X0473933Y0212231D01*
X0475704Y0211232D02*
X0517296Y0211232D01*
X0516297Y0210234D02*
X0476703Y0210234D01*
X0477244Y0209235D02*
X0515756Y0209235D01*
X0515343Y0208237D02*
X0477657Y0208237D01*
X0477823Y0207238D02*
X0515177Y0207238D01*
X0515177Y0206239D02*
X0477823Y0206239D01*
X0477725Y0205241D02*
X0515275Y0205241D01*
X0515689Y0204242D02*
X0477311Y0204242D01*
X0476865Y0203244D02*
X0516135Y0203244D01*
X0517133Y0202245D02*
X0475867Y0202245D01*
X0474325Y0201247D02*
X0518675Y0201247D01*
X0513034Y0179280D02*
X0506501Y0179280D01*
X0507895Y0178281D02*
X0511641Y0178281D01*
X0510948Y0177283D02*
X0508587Y0177283D01*
X0509001Y0176284D02*
X0510535Y0176284D01*
X0510518Y0175286D02*
X0509018Y0175286D01*
X0508908Y0174287D02*
X0510628Y0174287D01*
X0511041Y0173289D02*
X0508494Y0173289D01*
X0507671Y0172290D02*
X0511865Y0172290D01*
X0501865Y0172290D02*
X0497671Y0172290D01*
X0498494Y0173289D02*
X0501041Y0173289D01*
X0500628Y0174287D02*
X0498908Y0174287D01*
X0499018Y0175286D02*
X0500518Y0175286D01*
X0500535Y0176284D02*
X0499001Y0176284D01*
X0498587Y0177283D02*
X0500948Y0177283D01*
X0501641Y0178281D02*
X0497895Y0178281D01*
X0496501Y0179280D02*
X0503034Y0179280D01*
X0493034Y0179280D02*
X0486501Y0179280D01*
X0487895Y0178281D02*
X0491641Y0178281D01*
X0490948Y0177283D02*
X0488587Y0177283D01*
X0489001Y0176284D02*
X0490535Y0176284D01*
X0490518Y0175286D02*
X0489018Y0175286D01*
X0488908Y0174287D02*
X0490628Y0174287D01*
X0491041Y0173289D02*
X0488494Y0173289D01*
X0487671Y0172290D02*
X0491865Y0172290D01*
X0483034Y0179280D02*
X0476501Y0179280D01*
X0477895Y0178281D02*
X0481641Y0178281D01*
X0480948Y0177283D02*
X0478587Y0177283D01*
X0479001Y0176284D02*
X0480535Y0176284D01*
X0480518Y0175286D02*
X0479018Y0175286D01*
X0478908Y0174287D02*
X0480628Y0174287D01*
X0481041Y0173289D02*
X0478494Y0173289D01*
X0477671Y0172290D02*
X0481865Y0172290D01*
X0471865Y0172290D02*
X0467671Y0172290D01*
X0468494Y0173289D02*
X0471041Y0173289D01*
X0470628Y0174287D02*
X0468908Y0174287D01*
X0469018Y0175286D02*
X0470518Y0175286D01*
X0470535Y0176284D02*
X0469001Y0176284D01*
X0468587Y0177283D02*
X0470948Y0177283D01*
X0471641Y0178281D02*
X0467895Y0178281D01*
X0466501Y0179280D02*
X0473034Y0179280D01*
X0463034Y0179280D02*
X0456501Y0179280D01*
X0457895Y0178281D02*
X0461641Y0178281D01*
X0460948Y0177283D02*
X0458587Y0177283D01*
X0459001Y0176284D02*
X0460535Y0176284D01*
X0460518Y0175286D02*
X0459018Y0175286D01*
X0458908Y0174287D02*
X0460628Y0174287D01*
X0461041Y0173289D02*
X0458494Y0173289D01*
X0457671Y0172290D02*
X0461865Y0172290D01*
X0453034Y0179280D02*
X0446501Y0179280D01*
X0447895Y0178281D02*
X0451641Y0178281D01*
X0450948Y0177283D02*
X0448587Y0177283D01*
X0449001Y0176284D02*
X0450535Y0176284D01*
X0450518Y0175286D02*
X0449018Y0175286D01*
X0448908Y0174287D02*
X0450628Y0174287D01*
X0451041Y0173289D02*
X0448494Y0173289D01*
X0447671Y0172290D02*
X0451865Y0172290D01*
X0441865Y0172290D02*
X0437671Y0172290D01*
X0438494Y0173289D02*
X0441041Y0173289D01*
X0440628Y0174287D02*
X0438908Y0174287D01*
X0439018Y0175286D02*
X0440518Y0175286D01*
X0440535Y0176284D02*
X0439001Y0176284D01*
X0438587Y0177283D02*
X0440948Y0177283D01*
X0441641Y0178281D02*
X0437895Y0178281D01*
X0436501Y0179280D02*
X0443034Y0179280D01*
X0433034Y0179280D02*
X0426501Y0179280D01*
X0427895Y0178281D02*
X0431641Y0178281D01*
X0430948Y0177283D02*
X0428587Y0177283D01*
X0429001Y0176284D02*
X0430535Y0176284D01*
X0430518Y0175286D02*
X0429018Y0175286D01*
X0428908Y0174287D02*
X0430628Y0174287D01*
X0431041Y0173289D02*
X0428494Y0173289D01*
X0427671Y0172290D02*
X0431865Y0172290D01*
X0421865Y0172290D02*
X0417671Y0172290D01*
X0418494Y0173289D02*
X0421041Y0173289D01*
X0420628Y0174287D02*
X0418908Y0174287D01*
X0419018Y0175286D02*
X0420518Y0175286D01*
X0420535Y0176284D02*
X0419001Y0176284D01*
X0418587Y0177283D02*
X0420948Y0177283D01*
X0421641Y0178281D02*
X0417895Y0178281D01*
X0416501Y0179280D02*
X0423034Y0179280D01*
X0413034Y0179280D02*
X0406501Y0179280D01*
X0407895Y0178281D02*
X0411641Y0178281D01*
X0410948Y0177283D02*
X0408587Y0177283D01*
X0409001Y0176284D02*
X0410535Y0176284D01*
X0410518Y0175286D02*
X0409018Y0175286D01*
X0408908Y0174287D02*
X0410628Y0174287D01*
X0411041Y0173289D02*
X0408494Y0173289D01*
X0407671Y0172290D02*
X0411865Y0172290D01*
X0401865Y0172290D02*
X0397671Y0172290D01*
X0398494Y0173289D02*
X0401041Y0173289D01*
X0400628Y0174287D02*
X0398908Y0174287D01*
X0399018Y0175286D02*
X0400518Y0175286D01*
X0400535Y0176284D02*
X0399001Y0176284D01*
X0398587Y0177283D02*
X0400948Y0177283D01*
X0401641Y0178281D02*
X0397895Y0178281D01*
X0396501Y0179280D02*
X0403034Y0179280D01*
X0393034Y0179280D02*
X0386501Y0179280D01*
X0387895Y0178281D02*
X0391641Y0178281D01*
X0390948Y0177283D02*
X0388587Y0177283D01*
X0389001Y0176284D02*
X0390535Y0176284D01*
X0390518Y0175286D02*
X0389018Y0175286D01*
X0388908Y0174287D02*
X0390628Y0174287D01*
X0391041Y0173289D02*
X0388494Y0173289D01*
X0387671Y0172290D02*
X0391865Y0172290D01*
X0383034Y0179280D02*
X0376501Y0179280D01*
X0377895Y0178281D02*
X0381641Y0178281D01*
X0380948Y0177283D02*
X0378587Y0177283D01*
X0379001Y0176284D02*
X0380535Y0176284D01*
X0380518Y0175286D02*
X0379018Y0175286D01*
X0378908Y0174287D02*
X0380628Y0174287D01*
X0381041Y0173289D02*
X0378494Y0173289D01*
X0377671Y0172290D02*
X0381865Y0172290D01*
X0371865Y0172290D02*
X0367671Y0172290D01*
X0368494Y0173289D02*
X0371041Y0173289D01*
X0370628Y0174287D02*
X0368908Y0174287D01*
X0369018Y0175286D02*
X0370518Y0175286D01*
X0370535Y0176284D02*
X0369001Y0176284D01*
X0368587Y0177283D02*
X0370948Y0177283D01*
X0371641Y0178281D02*
X0367895Y0178281D01*
X0366501Y0179280D02*
X0373034Y0179280D01*
X0363034Y0179280D02*
X0356501Y0179280D01*
X0357895Y0178281D02*
X0361641Y0178281D01*
X0360948Y0177283D02*
X0358587Y0177283D01*
X0359001Y0176284D02*
X0360535Y0176284D01*
X0360518Y0175286D02*
X0359018Y0175286D01*
X0358908Y0174287D02*
X0360628Y0174287D01*
X0361041Y0173289D02*
X0358494Y0173289D01*
X0357671Y0172290D02*
X0361865Y0172290D01*
X0353034Y0179280D02*
X0346501Y0179280D01*
X0347895Y0178281D02*
X0351641Y0178281D01*
X0350948Y0177283D02*
X0348587Y0177283D01*
X0349001Y0176284D02*
X0350535Y0176284D01*
X0350518Y0175286D02*
X0349018Y0175286D01*
X0348908Y0174287D02*
X0350628Y0174287D01*
X0351041Y0173289D02*
X0348494Y0173289D01*
X0347671Y0172290D02*
X0351865Y0172290D01*
X0343539Y0161306D02*
X0303816Y0161306D01*
X0304457Y0162305D02*
X0341850Y0162305D01*
X0341035Y0163303D02*
X0304689Y0163303D01*
X0304620Y0164302D02*
X0340621Y0164302D01*
X0340518Y0165301D02*
X0304206Y0165301D01*
X0303076Y0166299D02*
X0340541Y0166299D01*
X0311964Y0155315D02*
X0269036Y0155315D01*
X0270193Y0154317D02*
X0310807Y0154317D01*
X0304535Y0148326D02*
X0304011Y0148326D01*
X0300989Y0148326D02*
X0279011Y0148326D01*
X0280183Y0147327D02*
X0299817Y0147327D01*
X0299392Y0146329D02*
X0280608Y0146329D01*
X0280689Y0145330D02*
X0299311Y0145330D01*
X0299532Y0144332D02*
X0280468Y0144332D01*
X0279843Y0143333D02*
X0300157Y0143333D01*
X0278179Y0158311D02*
X0033000Y0158311D01*
X0033000Y0159309D02*
X0277541Y0159309D01*
X0277311Y0160308D02*
X0033000Y0160308D01*
X0033000Y0161306D02*
X0277382Y0161306D01*
X0277796Y0162305D02*
X0033000Y0162305D01*
X0033000Y0163303D02*
X0278935Y0163303D01*
X0275989Y0148326D02*
X0240575Y0148326D01*
X0240340Y0147327D02*
X0274817Y0147327D01*
X0274392Y0146329D02*
X0239887Y0146329D01*
X0238888Y0145330D02*
X0274311Y0145330D01*
X0270014Y0141336D02*
X0033000Y0141336D01*
X0041500Y0141336D01*
X0041500Y0140338D02*
X0033000Y0140338D01*
X0268828Y0140338D01*
X0268396Y0139339D02*
X0033000Y0139339D01*
X0041500Y0139339D01*
X0041500Y0138341D02*
X0033000Y0138341D01*
X0268311Y0138341D01*
X0268528Y0137342D02*
X0033000Y0137342D01*
X0041500Y0137342D01*
X0041500Y0136344D02*
X0033000Y0136344D01*
X0269146Y0136344D01*
X0270043Y0133348D02*
X0033000Y0133348D01*
X0041500Y0133348D01*
X0041500Y0132350D02*
X0033000Y0132350D01*
X0268840Y0132350D01*
X0268401Y0131351D02*
X0033000Y0131351D01*
X0041500Y0131351D01*
X0041500Y0130353D02*
X0033000Y0130353D01*
X0268311Y0130353D01*
X0268523Y0129354D02*
X0033000Y0129354D01*
X0041500Y0129354D01*
X0041500Y0128356D02*
X0033000Y0128356D01*
X0269135Y0128356D01*
X0270064Y0127357D02*
X0033000Y0127357D01*
X0041500Y0127357D01*
X0041500Y0126359D02*
X0033000Y0126359D01*
X0268849Y0126359D01*
X0268405Y0125360D02*
X0033000Y0125360D01*
X0041500Y0125360D01*
X0041500Y0124362D02*
X0033000Y0124362D01*
X0268311Y0124362D01*
X0268519Y0123363D02*
X0033000Y0123363D01*
X0041500Y0123363D01*
X0041500Y0122365D02*
X0033000Y0122365D01*
X0269126Y0122365D01*
X0270733Y0121366D02*
X0033000Y0121366D01*
X0041500Y0121366D01*
X0041500Y0120368D02*
X0033000Y0120368D01*
X0275858Y0120368D01*
X0275408Y0119369D02*
X0033000Y0119369D01*
X0041500Y0119369D01*
X0041500Y0118370D02*
X0033000Y0118370D01*
X0275311Y0118370D01*
X0275516Y0117372D02*
X0033000Y0117372D01*
X0041500Y0117372D01*
X0041500Y0116373D02*
X0033000Y0116373D01*
X0276117Y0116373D01*
X0277086Y0121366D02*
X0272267Y0121366D01*
X0262286Y0092587D02*
X0259927Y0092587D01*
X0257748Y0091684D01*
X0256080Y0090016D01*
X0255177Y0087837D01*
X0255177Y0085478D01*
X0256080Y0083299D01*
X0257748Y0081631D01*
X0259927Y0080728D01*
X0262286Y0080728D01*
X0264465Y0081631D01*
X0266133Y0083299D01*
X0267035Y0085478D01*
X0267035Y0087837D01*
X0266133Y0090016D01*
X0264465Y0091684D01*
X0262286Y0092587D01*
X0262714Y0092409D02*
X0554921Y0092409D01*
X0546500Y0092409D01*
X0546500Y0091411D02*
X0554921Y0091411D01*
X0264738Y0091411D01*
X0265737Y0090412D02*
X0554921Y0090412D01*
X0546500Y0090412D01*
X0546500Y0089414D02*
X0554921Y0089414D01*
X0266382Y0089414D01*
X0266796Y0088415D02*
X0554921Y0088415D01*
X0546500Y0088415D01*
X0546500Y0087417D02*
X0554921Y0087417D01*
X0267035Y0087417D01*
X0267035Y0086418D02*
X0554921Y0086418D01*
X0546500Y0086418D01*
X0546500Y0085420D02*
X0554921Y0085420D01*
X0267011Y0085420D01*
X0266598Y0084421D02*
X0554921Y0084421D01*
X0546500Y0084421D01*
X0546500Y0083423D02*
X0554921Y0083423D01*
X0266184Y0083423D01*
X0265258Y0082424D02*
X0554921Y0082424D01*
X0546500Y0082424D01*
X0546500Y0081426D02*
X0554921Y0081426D01*
X0263969Y0081426D01*
X0258244Y0081426D02*
X0214756Y0081426D01*
X0215252Y0081631D02*
X0216920Y0083299D01*
X0217823Y0085478D01*
X0217823Y0087837D01*
X0216920Y0090016D01*
X0215252Y0091684D01*
X0213073Y0092587D01*
X0210714Y0092587D01*
X0208535Y0091684D01*
X0206867Y0090016D01*
X0205965Y0087837D01*
X0205965Y0085478D01*
X0206867Y0083299D01*
X0208535Y0081631D01*
X0210714Y0080728D01*
X0213073Y0080728D01*
X0215252Y0081631D01*
X0216045Y0082424D02*
X0256955Y0082424D01*
X0256029Y0083423D02*
X0216971Y0083423D01*
X0217385Y0084421D02*
X0255615Y0084421D01*
X0255201Y0085420D02*
X0217799Y0085420D01*
X0217823Y0086418D02*
X0255177Y0086418D01*
X0255177Y0087417D02*
X0217823Y0087417D01*
X0217583Y0088415D02*
X0255417Y0088415D01*
X0255830Y0089414D02*
X0217170Y0089414D01*
X0216524Y0090412D02*
X0256476Y0090412D01*
X0257474Y0091411D02*
X0215526Y0091411D01*
X0213501Y0092409D02*
X0259499Y0092409D01*
X0210286Y0092409D02*
X0187714Y0092409D01*
X0187286Y0092587D02*
X0184927Y0092587D01*
X0182748Y0091684D01*
X0181080Y0090016D01*
X0180177Y0087837D01*
X0180177Y0085478D01*
X0181080Y0083299D01*
X0182748Y0081631D01*
X0184927Y0080728D01*
X0187286Y0080728D01*
X0189465Y0081631D01*
X0191133Y0083299D01*
X0192035Y0085478D01*
X0192035Y0087837D01*
X0191133Y0090016D01*
X0189465Y0091684D01*
X0187286Y0092587D01*
X0189738Y0091411D02*
X0208262Y0091411D01*
X0207263Y0090412D02*
X0190737Y0090412D01*
X0191382Y0089414D02*
X0206618Y0089414D01*
X0206204Y0088415D02*
X0191796Y0088415D01*
X0192035Y0087417D02*
X0205965Y0087417D01*
X0205965Y0086418D02*
X0192035Y0086418D01*
X0192011Y0085420D02*
X0205989Y0085420D01*
X0206402Y0084421D02*
X0191598Y0084421D01*
X0191184Y0083423D02*
X0206816Y0083423D01*
X0207742Y0082424D02*
X0190258Y0082424D01*
X0188969Y0081426D02*
X0209031Y0081426D01*
X0183244Y0081426D02*
X0139756Y0081426D01*
X0140252Y0081631D02*
X0141920Y0083299D01*
X0142823Y0085478D01*
X0142823Y0087837D01*
X0141920Y0090016D01*
X0140252Y0091684D01*
X0138073Y0092587D01*
X0135714Y0092587D01*
X0133535Y0091684D01*
X0131867Y0090016D01*
X0130965Y0087837D01*
X0130965Y0085478D01*
X0131867Y0083299D01*
X0133535Y0081631D01*
X0135714Y0080728D01*
X0138073Y0080728D01*
X0140252Y0081631D01*
X0141045Y0082424D02*
X0181955Y0082424D01*
X0181029Y0083423D02*
X0141971Y0083423D01*
X0142385Y0084421D02*
X0180615Y0084421D01*
X0180201Y0085420D02*
X0142799Y0085420D01*
X0142823Y0086418D02*
X0180177Y0086418D01*
X0180177Y0087417D02*
X0142823Y0087417D01*
X0142583Y0088415D02*
X0180417Y0088415D01*
X0180830Y0089414D02*
X0142170Y0089414D01*
X0141524Y0090412D02*
X0181476Y0090412D01*
X0182474Y0091411D02*
X0140526Y0091411D01*
X0138501Y0092409D02*
X0184499Y0092409D01*
X0183477Y0146329D02*
X0139523Y0146329D01*
X0140252Y0146631D02*
X0141920Y0148299D01*
X0142823Y0150478D01*
X0142823Y0152837D01*
X0141920Y0155016D01*
X0140252Y0156684D01*
X0138073Y0157587D01*
X0135714Y0157587D01*
X0133535Y0156684D01*
X0131867Y0155016D01*
X0130965Y0152837D01*
X0130965Y0150478D01*
X0131867Y0148299D01*
X0133535Y0146631D01*
X0135714Y0145728D01*
X0138073Y0145728D01*
X0140252Y0146631D01*
X0140949Y0147327D02*
X0182051Y0147327D01*
X0181069Y0148326D02*
X0141931Y0148326D01*
X0142345Y0149324D02*
X0180655Y0149324D01*
X0180241Y0150323D02*
X0142759Y0150323D01*
X0142823Y0151321D02*
X0180177Y0151321D01*
X0180177Y0152320D02*
X0142823Y0152320D01*
X0142623Y0153318D02*
X0180377Y0153318D01*
X0180790Y0154317D02*
X0142210Y0154317D01*
X0141621Y0155315D02*
X0181379Y0155315D01*
X0182378Y0156314D02*
X0140622Y0156314D01*
X0138735Y0157312D02*
X0184265Y0157312D01*
X0135286Y0092409D02*
X0112714Y0092409D01*
X0112286Y0092587D02*
X0109927Y0092587D01*
X0107748Y0091684D01*
X0106080Y0090016D01*
X0105177Y0087837D01*
X0105177Y0085478D01*
X0106080Y0083299D01*
X0107748Y0081631D01*
X0109927Y0080728D01*
X0112286Y0080728D01*
X0114465Y0081631D01*
X0116133Y0083299D01*
X0117035Y0085478D01*
X0117035Y0087837D01*
X0116133Y0090016D01*
X0114465Y0091684D01*
X0112286Y0092587D01*
X0114738Y0091411D02*
X0133262Y0091411D01*
X0132263Y0090412D02*
X0115737Y0090412D01*
X0116382Y0089414D02*
X0131618Y0089414D01*
X0131204Y0088415D02*
X0116796Y0088415D01*
X0117035Y0087417D02*
X0130965Y0087417D01*
X0130965Y0086418D02*
X0117035Y0086418D01*
X0117011Y0085420D02*
X0130989Y0085420D01*
X0131402Y0084421D02*
X0116598Y0084421D01*
X0116184Y0083423D02*
X0131816Y0083423D01*
X0132742Y0082424D02*
X0115258Y0082424D01*
X0113969Y0081426D02*
X0134031Y0081426D01*
X0127500Y0064500D02*
X0127500Y0054500D01*
X0094500Y0054500D01*
X0094500Y0064500D01*
X0127500Y0064500D01*
X0127500Y0064451D02*
X0094500Y0064451D01*
X0094500Y0063452D02*
X0101294Y0063452D01*
X0033000Y0063452D01*
X0041500Y0063452D01*
X0041500Y0062454D02*
X0033000Y0062454D01*
X0099944Y0062454D01*
X0094500Y0062454D01*
X0094500Y0061455D02*
X0099444Y0061455D01*
X0033000Y0061455D01*
X0061500Y0061455D01*
X0061500Y0060457D02*
X0033000Y0060457D01*
X0099311Y0060457D01*
X0094500Y0060457D01*
X0094500Y0059458D02*
X0099480Y0059458D01*
X0033000Y0059458D01*
X0061500Y0059458D01*
X0061500Y0058460D02*
X0033000Y0058460D01*
X0100030Y0058460D01*
X0094500Y0058460D01*
X0094500Y0055464D02*
X0127500Y0055464D01*
X0123203Y0058694D02*
X0123689Y0059866D01*
X0123689Y0061134D01*
X0123203Y0062306D01*
X0122306Y0063203D01*
X0121134Y0063689D01*
X0119866Y0063689D01*
X0118694Y0063203D01*
X0117797Y0062306D01*
X0117500Y0061591D01*
X0117203Y0062306D01*
X0116306Y0063203D01*
X0115134Y0063689D01*
X0113866Y0063689D01*
X0112694Y0063203D01*
X0111797Y0062306D01*
X0111500Y0061591D01*
X0111203Y0062306D01*
X0110306Y0063203D01*
X0109134Y0063689D01*
X0107866Y0063689D01*
X0106694Y0063203D01*
X0105797Y0062306D01*
X0105500Y0061591D01*
X0105203Y0062306D01*
X0104306Y0063203D01*
X0103134Y0063689D01*
X0101866Y0063689D01*
X0100694Y0063203D01*
X0099797Y0062306D01*
X0099311Y0061134D01*
X0099311Y0059866D01*
X0099797Y0058694D01*
X0100694Y0057797D01*
X0101866Y0057311D01*
X0103134Y0057311D01*
X0104306Y0057797D01*
X0105203Y0058694D01*
X0105500Y0059409D01*
X0105797Y0058694D01*
X0106694Y0057797D01*
X0107866Y0057311D01*
X0109134Y0057311D01*
X0110306Y0057797D01*
X0111203Y0058694D01*
X0111500Y0059409D01*
X0111797Y0058694D01*
X0112694Y0057797D01*
X0113866Y0057311D01*
X0115134Y0057311D01*
X0116306Y0057797D01*
X0117203Y0058694D01*
X0117500Y0059409D01*
X0117797Y0058694D01*
X0118694Y0057797D01*
X0119866Y0057311D01*
X0121134Y0057311D01*
X0122306Y0057797D01*
X0123203Y0058694D01*
X0123689Y0059866D01*
X0123689Y0061134D01*
X0123203Y0062306D01*
X0122306Y0063203D01*
X0121134Y0063689D01*
X0119866Y0063689D01*
X0118694Y0063203D01*
X0117797Y0062306D01*
X0117500Y0061591D01*
X0117203Y0062306D01*
X0116306Y0063203D01*
X0115134Y0063689D01*
X0113866Y0063689D01*
X0112694Y0063203D01*
X0111797Y0062306D01*
X0111500Y0061591D01*
X0111203Y0062306D01*
X0110306Y0063203D01*
X0109134Y0063689D01*
X0107866Y0063689D01*
X0106694Y0063203D01*
X0105797Y0062306D01*
X0105500Y0061591D01*
X0105203Y0062306D01*
X0104306Y0063203D01*
X0103134Y0063689D01*
X0101866Y0063689D01*
X0100694Y0063203D01*
X0099797Y0062306D01*
X0099311Y0061134D01*
X0099311Y0059866D01*
X0099797Y0058694D01*
X0100694Y0057797D01*
X0101866Y0057311D01*
X0103134Y0057311D01*
X0104306Y0057797D01*
X0105203Y0058694D01*
X0105500Y0059409D01*
X0105797Y0058694D01*
X0106694Y0057797D01*
X0107866Y0057311D01*
X0109134Y0057311D01*
X0110306Y0057797D01*
X0111203Y0058694D01*
X0111500Y0059409D01*
X0111797Y0058694D01*
X0112694Y0057797D01*
X0113866Y0057311D01*
X0115134Y0057311D01*
X0116306Y0057797D01*
X0117203Y0058694D01*
X0117500Y0059409D01*
X0117797Y0058694D01*
X0118694Y0057797D01*
X0119866Y0057311D01*
X0121134Y0057311D01*
X0122306Y0057797D01*
X0123203Y0058694D01*
X0119503Y0057461D02*
X0115497Y0057461D01*
X0119503Y0057461D01*
X0118030Y0058460D02*
X0116970Y0058460D01*
X0118030Y0058460D01*
X0117944Y0062454D02*
X0117056Y0062454D01*
X0117944Y0062454D01*
X0119294Y0063452D02*
X0115706Y0063452D01*
X0119294Y0063452D01*
X0113294Y0063452D02*
X0109706Y0063452D01*
X0113294Y0063452D01*
X0111944Y0062454D02*
X0111056Y0062454D01*
X0111944Y0062454D01*
X0112030Y0058460D02*
X0110970Y0058460D01*
X0112030Y0058460D01*
X0113503Y0057461D02*
X0109497Y0057461D01*
X0113503Y0057461D01*
X0107503Y0057461D02*
X0103497Y0057461D01*
X0107503Y0057461D01*
X0106030Y0058460D02*
X0104970Y0058460D01*
X0106030Y0058460D01*
X0105944Y0062454D02*
X0105056Y0062454D01*
X0105944Y0062454D01*
X0107294Y0063452D02*
X0103706Y0063452D01*
X0107294Y0063452D01*
X0108244Y0081426D02*
X0064756Y0081426D01*
X0066045Y0082424D02*
X0106955Y0082424D01*
X0106029Y0083423D02*
X0066971Y0083423D01*
X0067385Y0084421D02*
X0105615Y0084421D01*
X0105201Y0085420D02*
X0067799Y0085420D01*
X0067823Y0086418D02*
X0105177Y0086418D01*
X0105177Y0087417D02*
X0067823Y0087417D01*
X0067583Y0088415D02*
X0105417Y0088415D01*
X0105830Y0089414D02*
X0067170Y0089414D01*
X0066524Y0090412D02*
X0106476Y0090412D01*
X0107474Y0091411D02*
X0065526Y0091411D01*
X0063501Y0092409D02*
X0109499Y0092409D01*
X0091500Y0046478D02*
X0131500Y0046478D01*
X0131500Y0045479D02*
X0091500Y0045479D01*
X0091500Y0044481D02*
X0131500Y0044481D01*
X0131500Y0043482D02*
X0091500Y0043482D01*
X0091500Y0042484D02*
X0131500Y0042484D01*
X0061500Y0042484D02*
X0055390Y0042484D01*
X0532610Y0042484D01*
X0526500Y0042484D01*
X0526500Y0043482D02*
X0532197Y0043482D01*
X0055803Y0043482D01*
X0061500Y0043482D01*
X0061500Y0044481D02*
X0056217Y0044481D01*
X0531783Y0044481D01*
X0526500Y0044481D01*
X0526500Y0045479D02*
X0531750Y0045479D01*
X0056250Y0045479D01*
X0061500Y0045479D01*
X0061500Y0046478D02*
X0056250Y0046478D01*
X0531750Y0046478D01*
X0526500Y0046478D01*
X0526500Y0047476D02*
X0531750Y0047476D01*
X0056250Y0047476D01*
X0061500Y0047476D01*
X0061500Y0048475D02*
X0056235Y0048475D01*
X0531765Y0048475D01*
X0526500Y0048475D01*
X0526500Y0049473D02*
X0532178Y0049473D01*
X0055822Y0049473D01*
X0061500Y0049473D01*
X0061500Y0050472D02*
X0055408Y0050472D01*
X0532592Y0050472D01*
X0526500Y0050472D01*
X0526500Y0051470D02*
X0533005Y0051470D01*
X0054995Y0051470D01*
X0061500Y0051470D01*
X0061500Y0052469D02*
X0054320Y0052469D01*
X0533680Y0052469D01*
X0526500Y0052469D01*
X0526500Y0053467D02*
X0534679Y0053467D01*
X0053321Y0053467D01*
X0061500Y0053467D01*
X0061500Y0054466D02*
X0052323Y0054466D01*
X0535677Y0054466D01*
X0526500Y0054466D01*
X0526500Y0055464D02*
X0537664Y0055464D01*
X0050336Y0055464D01*
X0061500Y0055464D01*
X0054766Y0052023D02*
X0052023Y0054766D01*
X0048439Y0056250D01*
X0044561Y0056250D01*
X0040977Y0054766D01*
X0038234Y0052023D01*
X0036750Y0048439D01*
X0036750Y0044561D01*
X0038234Y0040977D01*
X0040977Y0038234D01*
X0044561Y0036750D01*
X0048439Y0036750D01*
X0052023Y0038234D01*
X0054766Y0040977D01*
X0056250Y0044561D01*
X0056250Y0048439D01*
X0054766Y0052023D01*
X0052023Y0054766D01*
X0048439Y0056250D01*
X0044561Y0056250D01*
X0040977Y0054766D01*
X0038234Y0052023D01*
X0036750Y0048439D01*
X0036750Y0044561D01*
X0038234Y0040977D01*
X0040977Y0038234D01*
X0044561Y0036750D01*
X0048439Y0036750D01*
X0052023Y0038234D01*
X0054766Y0040977D01*
X0056250Y0044561D01*
X0056250Y0048439D01*
X0054766Y0052023D01*
X0054976Y0041485D02*
X0533024Y0041485D01*
X0054976Y0041485D01*
X0054275Y0040487D02*
X0533725Y0040487D01*
X0054275Y0040487D01*
X0053277Y0039488D02*
X0534723Y0039488D01*
X0053277Y0039488D01*
X0052278Y0038490D02*
X0535722Y0038490D01*
X0052278Y0038490D01*
X0050228Y0037491D02*
X0537771Y0037491D01*
X0050228Y0037491D01*
X0042771Y0037491D02*
X0033000Y0037491D01*
X0042771Y0037491D01*
X0040722Y0038490D02*
X0033000Y0038490D01*
X0040722Y0038490D01*
X0039723Y0039488D02*
X0033000Y0039488D01*
X0039723Y0039488D01*
X0038725Y0040487D02*
X0033000Y0040487D01*
X0038725Y0040487D01*
X0038024Y0041485D02*
X0033000Y0041485D01*
X0038024Y0041485D01*
X0037610Y0042484D02*
X0033000Y0042484D01*
X0037610Y0042484D01*
X0037197Y0043482D02*
X0033000Y0043482D01*
X0037197Y0043482D01*
X0036783Y0044481D02*
X0033000Y0044481D01*
X0036783Y0044481D01*
X0036750Y0045479D02*
X0033000Y0045479D01*
X0036750Y0045479D01*
X0036750Y0046478D02*
X0033000Y0046478D01*
X0036750Y0046478D01*
X0036750Y0047476D02*
X0033000Y0047476D01*
X0036750Y0047476D01*
X0036765Y0048475D02*
X0033000Y0048475D01*
X0036765Y0048475D01*
X0037178Y0049473D02*
X0033000Y0049473D01*
X0037178Y0049473D01*
X0037592Y0050472D02*
X0033000Y0050472D01*
X0037592Y0050472D01*
X0038005Y0051470D02*
X0033000Y0051470D01*
X0038005Y0051470D01*
X0038680Y0052469D02*
X0033000Y0052469D01*
X0038680Y0052469D01*
X0039679Y0053467D02*
X0033000Y0053467D01*
X0039679Y0053467D01*
X0040677Y0054466D02*
X0033000Y0054466D01*
X0040677Y0054466D01*
X0042664Y0055464D02*
X0033000Y0055464D01*
X0042664Y0055464D01*
X0041500Y0146329D02*
X0033000Y0146329D01*
X0059265Y0146329D01*
X0058535Y0146631D02*
X0060714Y0145728D01*
X0063073Y0145728D01*
X0065252Y0146631D01*
X0066920Y0148299D01*
X0067823Y0150478D01*
X0067823Y0152837D01*
X0066920Y0155016D01*
X0065252Y0156684D01*
X0063073Y0157587D01*
X0060714Y0157587D01*
X0058535Y0156684D01*
X0056867Y0155016D01*
X0055965Y0152837D01*
X0055965Y0150478D01*
X0056867Y0148299D01*
X0058535Y0146631D01*
X0057839Y0147327D02*
X0033000Y0147327D01*
X0041500Y0147327D01*
X0041500Y0148326D02*
X0033000Y0148326D01*
X0056856Y0148326D01*
X0056442Y0149324D02*
X0033000Y0149324D01*
X0041500Y0149324D01*
X0041500Y0150323D02*
X0033000Y0150323D01*
X0056029Y0150323D01*
X0055965Y0151321D02*
X0033000Y0151321D01*
X0041500Y0151321D01*
X0041500Y0152320D02*
X0033000Y0152320D01*
X0055965Y0152320D01*
X0056164Y0153318D02*
X0033000Y0153318D01*
X0041500Y0153318D01*
X0041500Y0154317D02*
X0033000Y0154317D01*
X0056578Y0154317D01*
X0057167Y0155315D02*
X0033000Y0155315D01*
X0041500Y0155315D01*
X0041500Y0156314D02*
X0033000Y0156314D01*
X0058165Y0156314D01*
X0060052Y0157312D02*
X0033000Y0157312D01*
X0063735Y0157312D02*
X0109265Y0157312D01*
X0109927Y0157587D02*
X0107748Y0156684D01*
X0106080Y0155016D01*
X0105177Y0152837D01*
X0105177Y0150478D01*
X0106080Y0148299D01*
X0107748Y0146631D01*
X0109927Y0145728D01*
X0112286Y0145728D01*
X0114465Y0146631D01*
X0116133Y0148299D01*
X0117035Y0150478D01*
X0117035Y0152837D01*
X0116133Y0155016D01*
X0114465Y0156684D01*
X0112286Y0157587D01*
X0109927Y0157587D01*
X0107378Y0156314D02*
X0065622Y0156314D01*
X0066621Y0155315D02*
X0106379Y0155315D01*
X0105790Y0154317D02*
X0067210Y0154317D01*
X0067623Y0153318D02*
X0105377Y0153318D01*
X0105177Y0152320D02*
X0067823Y0152320D01*
X0067823Y0151321D02*
X0105177Y0151321D01*
X0105241Y0150323D02*
X0067759Y0150323D01*
X0067345Y0149324D02*
X0105655Y0149324D01*
X0106069Y0148326D02*
X0066931Y0148326D01*
X0065949Y0147327D02*
X0107051Y0147327D01*
X0108477Y0146329D02*
X0064523Y0146329D01*
X0113735Y0146329D02*
X0134265Y0146329D01*
X0132839Y0147327D02*
X0115161Y0147327D01*
X0116144Y0148326D02*
X0131856Y0148326D01*
X0131442Y0149324D02*
X0116558Y0149324D01*
X0116971Y0150323D02*
X0131029Y0150323D01*
X0130965Y0151321D02*
X0117035Y0151321D01*
X0117035Y0152320D02*
X0130965Y0152320D01*
X0131164Y0153318D02*
X0116836Y0153318D01*
X0116422Y0154317D02*
X0131578Y0154317D01*
X0132167Y0155315D02*
X0115833Y0155315D01*
X0114835Y0156314D02*
X0133165Y0156314D01*
X0135052Y0157312D02*
X0112948Y0157312D01*
X0113444Y0238192D02*
X0033000Y0238192D01*
X0033000Y0239190D02*
X0112586Y0239190D01*
X0112172Y0240189D02*
X0033000Y0240189D01*
X0033000Y0241187D02*
X0112000Y0241187D01*
X0112000Y0242186D02*
X0033000Y0242186D01*
X0033000Y0243184D02*
X0112327Y0243184D01*
X0112819Y0244183D02*
X0033000Y0244183D01*
X0033000Y0245181D02*
X0113817Y0245181D01*
X0119183Y0245181D02*
X0123817Y0245181D01*
X0122819Y0244183D02*
X0120181Y0244183D01*
X0120673Y0243184D02*
X0122327Y0243184D01*
X0122000Y0242186D02*
X0121000Y0242186D01*
X0121000Y0241187D02*
X0122000Y0241187D01*
X0122172Y0240189D02*
X0120828Y0240189D01*
X0120414Y0239190D02*
X0122586Y0239190D01*
X0123444Y0238192D02*
X0119556Y0238192D01*
X0129183Y0245181D02*
X0133817Y0245181D01*
X0132819Y0244183D02*
X0130181Y0244183D01*
X0130673Y0243184D02*
X0132327Y0243184D01*
X0132000Y0242186D02*
X0131000Y0242186D01*
X0131000Y0241187D02*
X0132000Y0241187D01*
X0132172Y0240189D02*
X0130828Y0240189D01*
X0130414Y0239190D02*
X0132586Y0239190D01*
X0133444Y0238192D02*
X0129556Y0238192D01*
X0139556Y0238192D02*
X0143444Y0238192D01*
X0142586Y0239190D02*
X0140414Y0239190D01*
X0140828Y0240189D02*
X0142172Y0240189D01*
X0142000Y0241187D02*
X0141000Y0241187D01*
X0141000Y0242186D02*
X0142000Y0242186D01*
X0142327Y0243184D02*
X0140673Y0243184D01*
X0140181Y0244183D02*
X0142819Y0244183D01*
X0143817Y0245181D02*
X0139183Y0245181D01*
X0149183Y0245181D02*
X0153817Y0245181D01*
X0152819Y0244183D02*
X0150181Y0244183D01*
X0150673Y0243184D02*
X0152327Y0243184D01*
X0152000Y0242186D02*
X0151000Y0242186D01*
X0151000Y0241187D02*
X0152000Y0241187D01*
X0152172Y0240189D02*
X0150828Y0240189D01*
X0150414Y0239190D02*
X0152586Y0239190D01*
X0153444Y0238192D02*
X0149556Y0238192D01*
X0159556Y0238192D02*
X0163444Y0238192D01*
X0162586Y0239190D02*
X0160414Y0239190D01*
X0160828Y0240189D02*
X0162172Y0240189D01*
X0162000Y0241187D02*
X0161000Y0241187D01*
X0161000Y0242186D02*
X0162000Y0242186D01*
X0162327Y0243184D02*
X0160673Y0243184D01*
X0160181Y0244183D02*
X0162819Y0244183D01*
X0163817Y0245181D02*
X0159183Y0245181D01*
X0169183Y0245181D02*
X0358817Y0245181D01*
X0357819Y0244183D02*
X0170181Y0244183D01*
X0170673Y0243184D02*
X0357327Y0243184D01*
X0357000Y0242186D02*
X0171000Y0242186D01*
X0171000Y0241187D02*
X0357000Y0241187D01*
X0357172Y0240189D02*
X0170828Y0240189D01*
X0170414Y0239190D02*
X0357586Y0239190D01*
X0358444Y0238192D02*
X0169556Y0238192D01*
X0091250Y0264561D02*
X0089766Y0260977D01*
X0087023Y0258234D01*
X0083439Y0256750D01*
X0079561Y0256750D01*
X0075977Y0258234D01*
X0073234Y0260977D01*
X0071750Y0264561D01*
X0071750Y0268439D01*
X0073234Y0272023D01*
X0075977Y0274766D01*
X0079561Y0276250D01*
X0083439Y0276250D01*
X0087023Y0274766D01*
X0089766Y0272023D01*
X0091250Y0268439D01*
X0091250Y0264561D01*
X0091081Y0264153D02*
X0286919Y0264153D01*
X0286750Y0264561D02*
X0288234Y0260977D01*
X0290977Y0258234D01*
X0294561Y0256750D01*
X0298439Y0256750D01*
X0302023Y0258234D01*
X0304766Y0260977D01*
X0306250Y0264561D01*
X0306250Y0268439D01*
X0304766Y0272023D01*
X0302023Y0274766D01*
X0298439Y0276250D01*
X0294561Y0276250D01*
X0290977Y0274766D01*
X0288234Y0272023D01*
X0286750Y0268439D01*
X0286750Y0264561D01*
X0286750Y0265152D02*
X0091250Y0265152D01*
X0091250Y0266150D02*
X0286750Y0266150D01*
X0286750Y0267149D02*
X0091250Y0267149D01*
X0091250Y0268147D02*
X0286750Y0268147D01*
X0287043Y0269146D02*
X0090957Y0269146D01*
X0090544Y0270144D02*
X0287456Y0270144D01*
X0287870Y0271143D02*
X0090130Y0271143D01*
X0089647Y0272141D02*
X0288353Y0272141D01*
X0289351Y0273140D02*
X0088649Y0273140D01*
X0087650Y0274138D02*
X0290350Y0274138D01*
X0291873Y0275137D02*
X0086127Y0275137D01*
X0083716Y0276135D02*
X0294284Y0276135D01*
X0298716Y0276135D02*
X0324284Y0276135D01*
X0321873Y0275137D02*
X0301127Y0275137D01*
X0302650Y0274138D02*
X0320350Y0274138D01*
X0319351Y0273140D02*
X0303649Y0273140D01*
X0304647Y0272141D02*
X0318353Y0272141D01*
X0317870Y0271143D02*
X0305130Y0271143D01*
X0305544Y0270144D02*
X0317456Y0270144D01*
X0317043Y0269146D02*
X0305957Y0269146D01*
X0306250Y0268147D02*
X0316750Y0268147D01*
X0316750Y0267149D02*
X0306250Y0267149D01*
X0306250Y0266150D02*
X0316750Y0266150D01*
X0316750Y0265152D02*
X0306250Y0265152D01*
X0306081Y0264153D02*
X0316919Y0264153D01*
X0317332Y0263155D02*
X0305668Y0263155D01*
X0305254Y0262156D02*
X0317746Y0262156D01*
X0318160Y0261158D02*
X0304840Y0261158D01*
X0303948Y0260159D02*
X0319052Y0260159D01*
X0320051Y0259161D02*
X0302949Y0259161D01*
X0301848Y0258162D02*
X0321152Y0258162D01*
X0323562Y0257164D02*
X0299438Y0257164D01*
X0293562Y0257164D02*
X0084438Y0257164D01*
X0086848Y0258162D02*
X0291152Y0258162D01*
X0290051Y0259161D02*
X0087949Y0259161D01*
X0088948Y0260159D02*
X0289052Y0260159D01*
X0288160Y0261158D02*
X0089840Y0261158D01*
X0090254Y0262156D02*
X0287746Y0262156D01*
X0287332Y0263155D02*
X0090668Y0263155D01*
X0078562Y0257164D02*
X0049438Y0257164D01*
X0051848Y0258162D02*
X0076152Y0258162D01*
X0075051Y0259161D02*
X0052949Y0259161D01*
X0053948Y0260159D02*
X0074052Y0260159D01*
X0073160Y0261158D02*
X0054840Y0261158D01*
X0055254Y0262156D02*
X0072746Y0262156D01*
X0072332Y0263155D02*
X0055668Y0263155D01*
X0056081Y0264153D02*
X0071919Y0264153D01*
X0071750Y0265152D02*
X0056250Y0265152D01*
X0056250Y0266150D02*
X0071750Y0266150D01*
X0071750Y0267149D02*
X0056250Y0267149D01*
X0056250Y0268147D02*
X0071750Y0268147D01*
X0072043Y0269146D02*
X0055957Y0269146D01*
X0055544Y0270144D02*
X0072456Y0270144D01*
X0072870Y0271143D02*
X0055130Y0271143D01*
X0054647Y0272141D02*
X0073353Y0272141D01*
X0074351Y0273140D02*
X0053649Y0273140D01*
X0052650Y0274138D02*
X0075350Y0274138D01*
X0076873Y0275137D02*
X0051127Y0275137D01*
X0048716Y0276135D02*
X0079284Y0276135D01*
X0346142Y0079429D02*
X0353393Y0079429D01*
X0351790Y0078430D02*
X0347746Y0078430D01*
X0348525Y0077432D02*
X0351010Y0077432D01*
X0350596Y0076433D02*
X0348939Y0076433D01*
X0349018Y0075434D02*
X0350518Y0075434D01*
X0350566Y0074436D02*
X0348970Y0074436D01*
X0348556Y0073437D02*
X0350979Y0073437D01*
X0351716Y0072439D02*
X0347819Y0072439D01*
X0357819Y0072439D02*
X0361716Y0072439D01*
X0360979Y0073437D02*
X0358556Y0073437D01*
X0358970Y0074436D02*
X0360566Y0074436D01*
X0360518Y0075434D02*
X0359018Y0075434D01*
X0358939Y0076433D02*
X0360596Y0076433D01*
X0361010Y0077432D02*
X0358525Y0077432D01*
X0357746Y0078430D02*
X0361790Y0078430D01*
X0363393Y0079429D02*
X0356142Y0079429D01*
X0366142Y0079429D02*
X0373393Y0079429D01*
X0371790Y0078430D02*
X0367746Y0078430D01*
X0368525Y0077432D02*
X0371010Y0077432D01*
X0370596Y0076433D02*
X0368939Y0076433D01*
X0369018Y0075434D02*
X0370518Y0075434D01*
X0370566Y0074436D02*
X0368970Y0074436D01*
X0368556Y0073437D02*
X0370979Y0073437D01*
X0371716Y0072439D02*
X0367819Y0072439D01*
X0376142Y0079429D02*
X0383393Y0079429D01*
X0381790Y0078430D02*
X0377746Y0078430D01*
X0378525Y0077432D02*
X0381010Y0077432D01*
X0380596Y0076433D02*
X0378939Y0076433D01*
X0379018Y0075434D02*
X0380518Y0075434D01*
X0380566Y0074436D02*
X0378970Y0074436D01*
X0378556Y0073437D02*
X0380979Y0073437D01*
X0381716Y0072439D02*
X0377819Y0072439D01*
X0387819Y0072439D02*
X0391716Y0072439D01*
X0390979Y0073437D02*
X0388556Y0073437D01*
X0388970Y0074436D02*
X0390566Y0074436D01*
X0390518Y0075434D02*
X0389018Y0075434D01*
X0388939Y0076433D02*
X0390596Y0076433D01*
X0391010Y0077432D02*
X0388525Y0077432D01*
X0387746Y0078430D02*
X0391790Y0078430D01*
X0393393Y0079429D02*
X0386142Y0079429D01*
X0396142Y0079429D02*
X0403393Y0079429D01*
X0401790Y0078430D02*
X0397746Y0078430D01*
X0398525Y0077432D02*
X0401010Y0077432D01*
X0400596Y0076433D02*
X0398939Y0076433D01*
X0399018Y0075434D02*
X0400518Y0075434D01*
X0400566Y0074436D02*
X0398970Y0074436D01*
X0398556Y0073437D02*
X0400979Y0073437D01*
X0401716Y0072439D02*
X0397819Y0072439D01*
X0407819Y0072439D02*
X0411716Y0072439D01*
X0410979Y0073437D02*
X0408556Y0073437D01*
X0408970Y0074436D02*
X0410566Y0074436D01*
X0410518Y0075434D02*
X0409018Y0075434D01*
X0408939Y0076433D02*
X0410596Y0076433D01*
X0411010Y0077432D02*
X0408525Y0077432D01*
X0407746Y0078430D02*
X0411790Y0078430D01*
X0413393Y0079429D02*
X0406142Y0079429D01*
X0416142Y0079429D02*
X0423393Y0079429D01*
X0421790Y0078430D02*
X0417746Y0078430D01*
X0418525Y0077432D02*
X0421010Y0077432D01*
X0420596Y0076433D02*
X0418939Y0076433D01*
X0419018Y0075434D02*
X0420518Y0075434D01*
X0420566Y0074436D02*
X0418970Y0074436D01*
X0418556Y0073437D02*
X0420979Y0073437D01*
X0421716Y0072439D02*
X0417819Y0072439D01*
X0427819Y0072439D02*
X0431716Y0072439D01*
X0430979Y0073437D02*
X0428556Y0073437D01*
X0428970Y0074436D02*
X0430566Y0074436D01*
X0430518Y0075434D02*
X0429018Y0075434D01*
X0428939Y0076433D02*
X0430596Y0076433D01*
X0431010Y0077432D02*
X0428525Y0077432D01*
X0427746Y0078430D02*
X0431790Y0078430D01*
X0433393Y0079429D02*
X0426142Y0079429D01*
X0436142Y0079429D02*
X0443393Y0079429D01*
X0441790Y0078430D02*
X0437746Y0078430D01*
X0438525Y0077432D02*
X0441010Y0077432D01*
X0440596Y0076433D02*
X0438939Y0076433D01*
X0439018Y0075434D02*
X0440518Y0075434D01*
X0440566Y0074436D02*
X0438970Y0074436D01*
X0438556Y0073437D02*
X0440979Y0073437D01*
X0441716Y0072439D02*
X0437819Y0072439D01*
X0446142Y0079429D02*
X0453393Y0079429D01*
X0451790Y0078430D02*
X0447746Y0078430D01*
X0448525Y0077432D02*
X0451010Y0077432D01*
X0450596Y0076433D02*
X0448939Y0076433D01*
X0449018Y0075434D02*
X0450518Y0075434D01*
X0450566Y0074436D02*
X0448970Y0074436D01*
X0448556Y0073437D02*
X0450979Y0073437D01*
X0451716Y0072439D02*
X0447819Y0072439D01*
X0457819Y0072439D02*
X0461716Y0072439D01*
X0460979Y0073437D02*
X0458556Y0073437D01*
X0458970Y0074436D02*
X0460566Y0074436D01*
X0460518Y0075434D02*
X0459018Y0075434D01*
X0458939Y0076433D02*
X0460596Y0076433D01*
X0461010Y0077432D02*
X0458525Y0077432D01*
X0457746Y0078430D02*
X0461790Y0078430D01*
X0463393Y0079429D02*
X0456142Y0079429D01*
X0466142Y0079429D02*
X0473393Y0079429D01*
X0471790Y0078430D02*
X0467746Y0078430D01*
X0468525Y0077432D02*
X0471010Y0077432D01*
X0470596Y0076433D02*
X0468939Y0076433D01*
X0469018Y0075434D02*
X0470518Y0075434D01*
X0470566Y0074436D02*
X0468970Y0074436D01*
X0468556Y0073437D02*
X0470979Y0073437D01*
X0471716Y0072439D02*
X0467819Y0072439D01*
X0476142Y0079429D02*
X0483393Y0079429D01*
X0481790Y0078430D02*
X0477746Y0078430D01*
X0478525Y0077432D02*
X0481010Y0077432D01*
X0480596Y0076433D02*
X0478939Y0076433D01*
X0479018Y0075434D02*
X0480518Y0075434D01*
X0480566Y0074436D02*
X0478970Y0074436D01*
X0478556Y0073437D02*
X0480979Y0073437D01*
X0481716Y0072439D02*
X0477819Y0072439D01*
X0487819Y0072439D02*
X0491716Y0072439D01*
X0490979Y0073437D02*
X0488556Y0073437D01*
X0488970Y0074436D02*
X0490566Y0074436D01*
X0490518Y0075434D02*
X0489018Y0075434D01*
X0488939Y0076433D02*
X0490596Y0076433D01*
X0491010Y0077432D02*
X0488525Y0077432D01*
X0487746Y0078430D02*
X0491790Y0078430D01*
X0493393Y0079429D02*
X0486142Y0079429D01*
X0496142Y0079429D02*
X0503393Y0079429D01*
X0501790Y0078430D02*
X0497746Y0078430D01*
X0498525Y0077432D02*
X0501010Y0077432D01*
X0500596Y0076433D02*
X0498939Y0076433D01*
X0499018Y0075434D02*
X0500518Y0075434D01*
X0500566Y0074436D02*
X0498970Y0074436D01*
X0498556Y0073437D02*
X0500979Y0073437D01*
X0501716Y0072439D02*
X0497819Y0072439D01*
X0517819Y0072439D02*
X0554921Y0072439D01*
X0546500Y0072439D01*
X0546500Y0073437D02*
X0554921Y0073437D01*
X0518556Y0073437D01*
X0518970Y0074436D02*
X0554921Y0074436D01*
X0546500Y0074436D01*
X0546500Y0075434D02*
X0554921Y0075434D01*
X0519018Y0075434D01*
X0518939Y0076433D02*
X0554921Y0076433D01*
X0546500Y0076433D01*
X0546500Y0077432D02*
X0554921Y0077432D01*
X0518525Y0077432D01*
X0517746Y0078430D02*
X0554921Y0078430D01*
X0546500Y0078430D01*
X0554921Y0062454D02*
X0517834Y0062454D01*
X0533234Y0052023D02*
X0531750Y0048439D01*
X0531750Y0044561D01*
X0533234Y0040977D01*
X0535977Y0038234D01*
X0539561Y0036750D01*
X0543439Y0036750D01*
X0547023Y0038234D01*
X0549766Y0040977D01*
X0551250Y0044561D01*
X0551250Y0048439D01*
X0549766Y0052023D01*
X0547023Y0054766D01*
X0543439Y0056250D01*
X0539561Y0056250D01*
X0535977Y0054766D01*
X0533234Y0052023D01*
X0531750Y0048439D01*
X0531750Y0044561D01*
X0533234Y0040977D01*
X0535977Y0038234D01*
X0539561Y0036750D01*
X0543439Y0036750D01*
X0547023Y0038234D01*
X0549766Y0040977D01*
X0551250Y0044561D01*
X0551250Y0048439D01*
X0549766Y0052023D01*
X0547023Y0054766D01*
X0543439Y0056250D01*
X0539561Y0056250D01*
X0535977Y0054766D01*
X0533234Y0052023D01*
X0408444Y0238192D02*
X0404556Y0238192D01*
X0405414Y0239190D02*
X0407586Y0239190D01*
X0407172Y0240189D02*
X0405828Y0240189D01*
X0406000Y0241187D02*
X0407000Y0241187D01*
X0407000Y0242186D02*
X0406000Y0242186D01*
X0405673Y0243184D02*
X0407327Y0243184D01*
X0407819Y0244183D02*
X0405181Y0244183D01*
X0404183Y0245181D02*
X0408817Y0245181D01*
X0398817Y0245181D02*
X0394183Y0245181D01*
X0395181Y0244183D02*
X0397819Y0244183D01*
X0397327Y0243184D02*
X0395673Y0243184D01*
X0396000Y0242186D02*
X0397000Y0242186D01*
X0397000Y0241187D02*
X0396000Y0241187D01*
X0395828Y0240189D02*
X0397172Y0240189D01*
X0397586Y0239190D02*
X0395414Y0239190D01*
X0394556Y0238192D02*
X0398444Y0238192D01*
X0388444Y0238192D02*
X0384556Y0238192D01*
X0385414Y0239190D02*
X0387586Y0239190D01*
X0387172Y0240189D02*
X0385828Y0240189D01*
X0386000Y0241187D02*
X0387000Y0241187D01*
X0387000Y0242186D02*
X0386000Y0242186D01*
X0385673Y0243184D02*
X0387327Y0243184D01*
X0387819Y0244183D02*
X0385181Y0244183D01*
X0384183Y0245181D02*
X0388817Y0245181D01*
X0378817Y0245181D02*
X0374183Y0245181D01*
X0375181Y0244183D02*
X0377819Y0244183D01*
X0377327Y0243184D02*
X0375673Y0243184D01*
X0376000Y0242186D02*
X0377000Y0242186D01*
X0377000Y0241187D02*
X0376000Y0241187D01*
X0375828Y0240189D02*
X0377172Y0240189D01*
X0377586Y0239190D02*
X0375414Y0239190D01*
X0374556Y0238192D02*
X0378444Y0238192D01*
X0368444Y0238192D02*
X0364556Y0238192D01*
X0365414Y0239190D02*
X0367586Y0239190D01*
X0367172Y0240189D02*
X0365828Y0240189D01*
X0366000Y0241187D02*
X0367000Y0241187D01*
X0367000Y0242186D02*
X0366000Y0242186D01*
X0365673Y0243184D02*
X0367327Y0243184D01*
X0367819Y0244183D02*
X0365181Y0244183D01*
X0364183Y0245181D02*
X0368817Y0245181D01*
D17*
X0334596Y0261090D02*
X0336050Y0264600D01*
X0336050Y0268400D01*
X0334596Y0271910D01*
X0331910Y0274596D01*
X0328400Y0276050D01*
X0324600Y0276050D01*
X0321090Y0274596D01*
X0318404Y0271910D01*
X0316950Y0268400D01*
X0316950Y0264600D01*
X0318404Y0261090D01*
X0321090Y0258404D01*
X0324600Y0256950D01*
X0328400Y0256950D01*
X0331910Y0258404D01*
X0334596Y0261090D01*
X0334695Y0261328D02*
X0533305Y0261328D01*
X0533404Y0261090D02*
X0536090Y0258404D01*
X0539600Y0256950D01*
X0543400Y0256950D01*
X0546910Y0258404D01*
X0549596Y0261090D01*
X0551050Y0264600D01*
X0551050Y0268400D01*
X0549596Y0271910D01*
X0546910Y0274596D01*
X0543400Y0276050D01*
X0539600Y0276050D01*
X0536090Y0274596D01*
X0533404Y0271910D01*
X0531950Y0268400D01*
X0531950Y0264600D01*
X0533404Y0261090D01*
X0533764Y0260730D02*
X0334236Y0260730D01*
X0333637Y0260131D02*
X0534363Y0260131D01*
X0534961Y0259533D02*
X0333039Y0259533D01*
X0332440Y0258934D02*
X0535560Y0258934D01*
X0536255Y0258336D02*
X0331745Y0258336D01*
X0330300Y0257737D02*
X0537700Y0257737D01*
X0539145Y0257139D02*
X0328855Y0257139D01*
X0324145Y0257139D02*
X0298855Y0257139D01*
X0298400Y0256950D02*
X0301910Y0258404D01*
X0304596Y0261090D01*
X0306050Y0264600D01*
X0306050Y0268400D01*
X0304596Y0271910D01*
X0301910Y0274596D01*
X0298400Y0276050D01*
X0294600Y0276050D01*
X0291090Y0274596D01*
X0288404Y0271910D01*
X0286950Y0268400D01*
X0286950Y0264600D01*
X0288404Y0261090D01*
X0291090Y0258404D01*
X0294600Y0256950D01*
X0298400Y0256950D01*
X0300300Y0257737D02*
X0322700Y0257737D01*
X0321255Y0258336D02*
X0301745Y0258336D01*
X0302440Y0258934D02*
X0320560Y0258934D01*
X0319961Y0259533D02*
X0303039Y0259533D01*
X0303637Y0260131D02*
X0319363Y0260131D01*
X0318764Y0260730D02*
X0304236Y0260730D01*
X0304695Y0261328D02*
X0318305Y0261328D01*
X0318057Y0261927D02*
X0304943Y0261927D01*
X0305190Y0262525D02*
X0317809Y0262525D01*
X0317562Y0263124D02*
X0305438Y0263124D01*
X0305686Y0263722D02*
X0317314Y0263722D01*
X0317066Y0264321D02*
X0305934Y0264321D01*
X0306050Y0264919D02*
X0316950Y0264919D01*
X0316950Y0265518D02*
X0306050Y0265518D01*
X0306050Y0266116D02*
X0316950Y0266116D01*
X0316950Y0266715D02*
X0306050Y0266715D01*
X0306050Y0267313D02*
X0316950Y0267313D01*
X0316950Y0267912D02*
X0306050Y0267912D01*
X0306004Y0268510D02*
X0316996Y0268510D01*
X0317244Y0269109D02*
X0305756Y0269109D01*
X0305508Y0269708D02*
X0317492Y0269708D01*
X0317740Y0270306D02*
X0305260Y0270306D01*
X0305012Y0270905D02*
X0317988Y0270905D01*
X0318235Y0271503D02*
X0304765Y0271503D01*
X0304404Y0272102D02*
X0318596Y0272102D01*
X0319194Y0272700D02*
X0303806Y0272700D01*
X0303207Y0273299D02*
X0319793Y0273299D01*
X0320391Y0273897D02*
X0302609Y0273897D01*
X0302010Y0274496D02*
X0320990Y0274496D01*
X0322293Y0275094D02*
X0300707Y0275094D01*
X0299262Y0275693D02*
X0323738Y0275693D01*
X0329262Y0275693D02*
X0538738Y0275693D01*
X0537293Y0275094D02*
X0330707Y0275094D01*
X0332010Y0274496D02*
X0535990Y0274496D01*
X0535391Y0273897D02*
X0332609Y0273897D01*
X0333207Y0273299D02*
X0534793Y0273299D01*
X0534194Y0272700D02*
X0333806Y0272700D01*
X0334404Y0272102D02*
X0533596Y0272102D01*
X0533235Y0271503D02*
X0334765Y0271503D01*
X0335012Y0270905D02*
X0532988Y0270905D01*
X0532740Y0270306D02*
X0335260Y0270306D01*
X0335508Y0269708D02*
X0532492Y0269708D01*
X0532244Y0269109D02*
X0335756Y0269109D01*
X0336004Y0268510D02*
X0531996Y0268510D01*
X0531950Y0267912D02*
X0336050Y0267912D01*
X0336050Y0267313D02*
X0531950Y0267313D01*
X0531950Y0266715D02*
X0336050Y0266715D01*
X0336050Y0266116D02*
X0531950Y0266116D01*
X0531950Y0265518D02*
X0336050Y0265518D01*
X0336050Y0264919D02*
X0531950Y0264919D01*
X0532066Y0264321D02*
X0335934Y0264321D01*
X0335686Y0263722D02*
X0532314Y0263722D01*
X0532562Y0263124D02*
X0335438Y0263124D01*
X0335190Y0262525D02*
X0532809Y0262525D01*
X0533057Y0261927D02*
X0334943Y0261927D01*
X0294145Y0257139D02*
X0083855Y0257139D01*
X0083400Y0256950D02*
X0086910Y0258404D01*
X0089596Y0261090D01*
X0091050Y0264600D01*
X0091050Y0268400D01*
X0089596Y0271910D01*
X0086910Y0274596D01*
X0083400Y0276050D01*
X0079600Y0276050D01*
X0076090Y0274596D01*
X0073404Y0271910D01*
X0071950Y0268400D01*
X0071950Y0264600D01*
X0073404Y0261090D01*
X0076090Y0258404D01*
X0079600Y0256950D01*
X0083400Y0256950D01*
X0085300Y0257737D02*
X0292700Y0257737D01*
X0291255Y0258336D02*
X0086745Y0258336D01*
X0087440Y0258934D02*
X0290560Y0258934D01*
X0289961Y0259533D02*
X0088039Y0259533D01*
X0088637Y0260131D02*
X0289363Y0260131D01*
X0288764Y0260730D02*
X0089236Y0260730D01*
X0089695Y0261328D02*
X0288305Y0261328D01*
X0288057Y0261927D02*
X0089943Y0261927D01*
X0090190Y0262525D02*
X0287809Y0262525D01*
X0287562Y0263124D02*
X0090438Y0263124D01*
X0090686Y0263722D02*
X0287314Y0263722D01*
X0287066Y0264321D02*
X0090934Y0264321D01*
X0091050Y0264919D02*
X0286950Y0264919D01*
X0286950Y0265518D02*
X0091050Y0265518D01*
X0091050Y0266116D02*
X0286950Y0266116D01*
X0286950Y0266715D02*
X0091050Y0266715D01*
X0091050Y0267313D02*
X0286950Y0267313D01*
X0286950Y0267912D02*
X0091050Y0267912D01*
X0091004Y0268510D02*
X0286996Y0268510D01*
X0287244Y0269109D02*
X0090756Y0269109D01*
X0090508Y0269708D02*
X0287492Y0269708D01*
X0287740Y0270306D02*
X0090260Y0270306D01*
X0090012Y0270905D02*
X0287988Y0270905D01*
X0288235Y0271503D02*
X0089765Y0271503D01*
X0089404Y0272102D02*
X0288596Y0272102D01*
X0289194Y0272700D02*
X0088806Y0272700D01*
X0088207Y0273299D02*
X0289793Y0273299D01*
X0290391Y0273897D02*
X0087609Y0273897D01*
X0087010Y0274496D02*
X0290990Y0274496D01*
X0292293Y0275094D02*
X0085707Y0275094D01*
X0084262Y0275693D02*
X0293738Y0275693D01*
X0078738Y0275693D02*
X0049262Y0275693D01*
X0048400Y0276050D02*
X0044600Y0276050D01*
X0041090Y0274596D01*
X0038404Y0271910D01*
X0036950Y0268400D01*
X0036950Y0264600D01*
X0038404Y0261090D01*
X0041090Y0258404D01*
X0044600Y0256950D01*
X0048400Y0256950D01*
X0051910Y0258404D01*
X0054596Y0261090D01*
X0056050Y0264600D01*
X0056050Y0268400D01*
X0054596Y0271910D01*
X0051910Y0274596D01*
X0048400Y0276050D01*
X0050707Y0275094D02*
X0077293Y0275094D01*
X0075990Y0274496D02*
X0052010Y0274496D01*
X0052609Y0273897D02*
X0075391Y0273897D01*
X0074793Y0273299D02*
X0053207Y0273299D01*
X0053806Y0272700D02*
X0074194Y0272700D01*
X0073596Y0272102D02*
X0054404Y0272102D01*
X0054765Y0271503D02*
X0073235Y0271503D01*
X0072988Y0270905D02*
X0055012Y0270905D01*
X0055260Y0270306D02*
X0072740Y0270306D01*
X0072492Y0269708D02*
X0055508Y0269708D01*
X0055756Y0269109D02*
X0072244Y0269109D01*
X0071996Y0268510D02*
X0056004Y0268510D01*
X0056050Y0267912D02*
X0071950Y0267912D01*
X0071950Y0267313D02*
X0056050Y0267313D01*
X0056050Y0266715D02*
X0071950Y0266715D01*
X0071950Y0266116D02*
X0056050Y0266116D01*
X0056050Y0265518D02*
X0071950Y0265518D01*
X0071950Y0264919D02*
X0056050Y0264919D01*
X0055934Y0264321D02*
X0072066Y0264321D01*
X0072314Y0263722D02*
X0055686Y0263722D01*
X0055438Y0263124D02*
X0072562Y0263124D01*
X0072809Y0262525D02*
X0055190Y0262525D01*
X0054943Y0261927D02*
X0073057Y0261927D01*
X0073305Y0261328D02*
X0054695Y0261328D01*
X0054236Y0260730D02*
X0073764Y0260730D01*
X0074363Y0260131D02*
X0053637Y0260131D01*
X0053039Y0259533D02*
X0074961Y0259533D01*
X0075560Y0258934D02*
X0052440Y0258934D01*
X0051745Y0258336D02*
X0076255Y0258336D01*
X0077700Y0257737D02*
X0050300Y0257737D01*
X0048855Y0257139D02*
X0079145Y0257139D01*
X0044145Y0257139D02*
X0032800Y0257139D01*
X0032800Y0257737D02*
X0042700Y0257737D01*
X0041255Y0258336D02*
X0032800Y0258336D01*
X0032800Y0258934D02*
X0040560Y0258934D01*
X0039961Y0259533D02*
X0032800Y0259533D01*
X0032800Y0260131D02*
X0039363Y0260131D01*
X0038764Y0260730D02*
X0032800Y0260730D01*
X0032800Y0261328D02*
X0038305Y0261328D01*
X0038057Y0261927D02*
X0032800Y0261927D01*
X0032800Y0262525D02*
X0037809Y0262525D01*
X0037562Y0263124D02*
X0032800Y0263124D01*
X0032800Y0263722D02*
X0037314Y0263722D01*
X0037066Y0264321D02*
X0032800Y0264321D01*
X0032800Y0264919D02*
X0036950Y0264919D01*
X0036950Y0265518D02*
X0032800Y0265518D01*
X0032800Y0266116D02*
X0036950Y0266116D01*
X0036950Y0266715D02*
X0032800Y0266715D01*
X0032800Y0267313D02*
X0036950Y0267313D01*
X0036950Y0267912D02*
X0032800Y0267912D01*
X0032800Y0268510D02*
X0036996Y0268510D01*
X0037244Y0269109D02*
X0032800Y0269109D01*
X0032800Y0269708D02*
X0037492Y0269708D01*
X0037740Y0270306D02*
X0032800Y0270306D01*
X0032800Y0270905D02*
X0037988Y0270905D01*
X0038235Y0271503D02*
X0032800Y0271503D01*
X0032800Y0272102D02*
X0038596Y0272102D01*
X0039194Y0272700D02*
X0032800Y0272700D01*
X0032800Y0273299D02*
X0039793Y0273299D01*
X0040391Y0273897D02*
X0032800Y0273897D01*
X0032800Y0274496D02*
X0040990Y0274496D01*
X0042293Y0275094D02*
X0032800Y0275094D01*
X0032800Y0275693D02*
X0043738Y0275693D01*
X0032800Y0276291D02*
X0555121Y0276291D01*
X0555121Y0275693D02*
X0544262Y0275693D01*
X0545707Y0275094D02*
X0555121Y0275094D01*
X0555121Y0274496D02*
X0547010Y0274496D01*
X0547609Y0273897D02*
X0555121Y0273897D01*
X0555121Y0273299D02*
X0548207Y0273299D01*
X0548806Y0272700D02*
X0555121Y0272700D01*
X0555121Y0272102D02*
X0549404Y0272102D01*
X0549765Y0271503D02*
X0555121Y0271503D01*
X0555121Y0270905D02*
X0550012Y0270905D01*
X0550260Y0270306D02*
X0555121Y0270306D01*
X0555121Y0269708D02*
X0550508Y0269708D01*
X0550756Y0269109D02*
X0555121Y0269109D01*
X0555121Y0268510D02*
X0551004Y0268510D01*
X0551050Y0267912D02*
X0555121Y0267912D01*
X0555121Y0267313D02*
X0551050Y0267313D01*
X0551050Y0266715D02*
X0555121Y0266715D01*
X0555121Y0266116D02*
X0551050Y0266116D01*
X0551050Y0265518D02*
X0555121Y0265518D01*
X0555121Y0264919D02*
X0551050Y0264919D01*
X0550934Y0264321D02*
X0555121Y0264321D01*
X0555121Y0263722D02*
X0550686Y0263722D01*
X0550438Y0263124D02*
X0555121Y0263124D01*
X0555121Y0262525D02*
X0550190Y0262525D01*
X0549943Y0261927D02*
X0555121Y0261927D01*
X0555121Y0261328D02*
X0549695Y0261328D01*
X0549236Y0260730D02*
X0555121Y0260730D01*
X0555121Y0260131D02*
X0548637Y0260131D01*
X0548039Y0259533D02*
X0555121Y0259533D01*
X0555121Y0258934D02*
X0547440Y0258934D01*
X0546745Y0258336D02*
X0555121Y0258336D01*
X0555121Y0257737D02*
X0545300Y0257737D01*
X0543855Y0257139D02*
X0555121Y0257139D01*
X0555121Y0256540D02*
X0032800Y0256540D01*
X0032800Y0255942D02*
X0555121Y0255942D01*
X0555121Y0255343D02*
X0032800Y0255343D01*
X0032800Y0254745D02*
X0555121Y0254745D01*
X0555121Y0254146D02*
X0032800Y0254146D01*
X0032800Y0253548D02*
X0555121Y0253548D01*
X0555121Y0252949D02*
X0032800Y0252949D01*
X0032800Y0252351D02*
X0555121Y0252351D01*
X0555121Y0251752D02*
X0032800Y0251752D01*
X0032800Y0251154D02*
X0041500Y0251154D01*
X0041500Y0251500D02*
X0041500Y0156500D01*
X0032800Y0156500D01*
X0032800Y0280200D01*
X0555121Y0280200D01*
X0555121Y0156500D01*
X0546500Y0156500D01*
X0546500Y0251500D01*
X0041500Y0251500D01*
X0041500Y0250555D02*
X0032800Y0250555D01*
X0032800Y0249957D02*
X0041500Y0249957D01*
X0041500Y0249358D02*
X0032800Y0249358D01*
X0032800Y0248760D02*
X0041500Y0248760D01*
X0041500Y0248161D02*
X0032800Y0248161D01*
X0032800Y0247563D02*
X0041500Y0247563D01*
X0041500Y0246964D02*
X0032800Y0246964D01*
X0032800Y0246366D02*
X0041500Y0246366D01*
X0041500Y0245767D02*
X0032800Y0245767D01*
X0032800Y0245169D02*
X0041500Y0245169D01*
X0041500Y0244570D02*
X0032800Y0244570D01*
X0032800Y0243972D02*
X0041500Y0243972D01*
X0041500Y0243373D02*
X0032800Y0243373D01*
X0032800Y0242774D02*
X0041500Y0242774D01*
X0041500Y0242176D02*
X0032800Y0242176D01*
X0032800Y0241577D02*
X0041500Y0241577D01*
X0041500Y0240979D02*
X0032800Y0240979D01*
X0032800Y0240380D02*
X0041500Y0240380D01*
X0041500Y0239782D02*
X0032800Y0239782D01*
X0032800Y0239183D02*
X0041500Y0239183D01*
X0041500Y0238585D02*
X0032800Y0238585D01*
X0032800Y0237986D02*
X0041500Y0237986D01*
X0041500Y0237388D02*
X0032800Y0237388D01*
X0032800Y0236789D02*
X0041500Y0236789D01*
X0041500Y0236191D02*
X0032800Y0236191D01*
X0032800Y0235592D02*
X0041500Y0235592D01*
X0041500Y0234994D02*
X0032800Y0234994D01*
X0032800Y0234395D02*
X0041500Y0234395D01*
X0041500Y0233797D02*
X0032800Y0233797D01*
X0032800Y0233198D02*
X0041500Y0233198D01*
X0041500Y0232600D02*
X0032800Y0232600D01*
X0032800Y0232001D02*
X0041500Y0232001D01*
X0041500Y0231403D02*
X0032800Y0231403D01*
X0032800Y0230804D02*
X0041500Y0230804D01*
X0041500Y0230206D02*
X0032800Y0230206D01*
X0032800Y0229607D02*
X0041500Y0229607D01*
X0041500Y0229009D02*
X0032800Y0229009D01*
X0032800Y0228410D02*
X0041500Y0228410D01*
X0041500Y0227812D02*
X0032800Y0227812D01*
X0032800Y0227213D02*
X0041500Y0227213D01*
X0041500Y0226615D02*
X0032800Y0226615D01*
X0032800Y0226016D02*
X0041500Y0226016D01*
X0041500Y0225418D02*
X0032800Y0225418D01*
X0032800Y0224819D02*
X0041500Y0224819D01*
X0041500Y0224221D02*
X0032800Y0224221D01*
X0032800Y0223622D02*
X0041500Y0223622D01*
X0041500Y0223024D02*
X0032800Y0223024D01*
X0032800Y0222425D02*
X0041500Y0222425D01*
X0041500Y0221827D02*
X0032800Y0221827D01*
X0032800Y0221228D02*
X0041500Y0221228D01*
X0041500Y0220630D02*
X0032800Y0220630D01*
X0032800Y0220031D02*
X0041500Y0220031D01*
X0041500Y0219433D02*
X0032800Y0219433D01*
X0032800Y0218834D02*
X0041500Y0218834D01*
X0041500Y0218236D02*
X0032800Y0218236D01*
X0032800Y0217637D02*
X0041500Y0217637D01*
X0041500Y0217039D02*
X0032800Y0217039D01*
X0032800Y0216440D02*
X0041500Y0216440D01*
X0041500Y0215841D02*
X0032800Y0215841D01*
X0032800Y0215243D02*
X0041500Y0215243D01*
X0041500Y0214644D02*
X0032800Y0214644D01*
X0032800Y0214046D02*
X0041500Y0214046D01*
X0041500Y0213447D02*
X0032800Y0213447D01*
X0032800Y0212849D02*
X0041500Y0212849D01*
X0041500Y0212250D02*
X0032800Y0212250D01*
X0032800Y0211652D02*
X0041500Y0211652D01*
X0041500Y0211053D02*
X0032800Y0211053D01*
X0032800Y0210455D02*
X0041500Y0210455D01*
X0041500Y0209856D02*
X0032800Y0209856D01*
X0032800Y0209258D02*
X0041500Y0209258D01*
X0041500Y0208659D02*
X0032800Y0208659D01*
X0032800Y0208061D02*
X0041500Y0208061D01*
X0041500Y0207462D02*
X0032800Y0207462D01*
X0032800Y0206864D02*
X0041500Y0206864D01*
X0041500Y0206265D02*
X0032800Y0206265D01*
X0032800Y0205667D02*
X0041500Y0205667D01*
X0041500Y0205068D02*
X0032800Y0205068D01*
X0032800Y0204470D02*
X0041500Y0204470D01*
X0041500Y0203871D02*
X0032800Y0203871D01*
X0032800Y0203273D02*
X0041500Y0203273D01*
X0041500Y0202674D02*
X0032800Y0202674D01*
X0032800Y0202076D02*
X0041500Y0202076D01*
X0041500Y0201477D02*
X0032800Y0201477D01*
X0032800Y0200879D02*
X0041500Y0200879D01*
X0041500Y0200280D02*
X0032800Y0200280D01*
X0032800Y0199682D02*
X0041500Y0199682D01*
X0041500Y0199083D02*
X0032800Y0199083D01*
X0032800Y0198485D02*
X0041500Y0198485D01*
X0041500Y0197886D02*
X0032800Y0197886D01*
X0032800Y0197288D02*
X0041500Y0197288D01*
X0041500Y0196689D02*
X0032800Y0196689D01*
X0032800Y0196091D02*
X0041500Y0196091D01*
X0041500Y0195492D02*
X0032800Y0195492D01*
X0032800Y0194894D02*
X0041500Y0194894D01*
X0041500Y0194295D02*
X0032800Y0194295D01*
X0032800Y0193697D02*
X0041500Y0193697D01*
X0041500Y0193098D02*
X0032800Y0193098D01*
X0032800Y0192500D02*
X0041500Y0192500D01*
X0041500Y0191901D02*
X0032800Y0191901D01*
X0032800Y0191303D02*
X0041500Y0191303D01*
X0041500Y0190704D02*
X0032800Y0190704D01*
X0032800Y0190105D02*
X0041500Y0190105D01*
X0041500Y0189507D02*
X0032800Y0189507D01*
X0032800Y0188908D02*
X0041500Y0188908D01*
X0041500Y0188310D02*
X0032800Y0188310D01*
X0032800Y0187711D02*
X0041500Y0187711D01*
X0041500Y0187113D02*
X0032800Y0187113D01*
X0032800Y0186514D02*
X0041500Y0186514D01*
X0041500Y0185916D02*
X0032800Y0185916D01*
X0032800Y0185317D02*
X0041500Y0185317D01*
X0041500Y0184719D02*
X0032800Y0184719D01*
X0032800Y0184120D02*
X0041500Y0184120D01*
X0041500Y0183522D02*
X0032800Y0183522D01*
X0032800Y0182923D02*
X0041500Y0182923D01*
X0041500Y0182325D02*
X0032800Y0182325D01*
X0032800Y0181726D02*
X0041500Y0181726D01*
X0041500Y0181128D02*
X0032800Y0181128D01*
X0032800Y0180529D02*
X0041500Y0180529D01*
X0041500Y0179931D02*
X0032800Y0179931D01*
X0032800Y0179332D02*
X0041500Y0179332D01*
X0041500Y0178734D02*
X0032800Y0178734D01*
X0032800Y0178135D02*
X0041500Y0178135D01*
X0041500Y0177537D02*
X0032800Y0177537D01*
X0032800Y0176938D02*
X0041500Y0176938D01*
X0041500Y0176340D02*
X0032800Y0176340D01*
X0032800Y0175741D02*
X0041500Y0175741D01*
X0041500Y0175143D02*
X0032800Y0175143D01*
X0032800Y0174544D02*
X0041500Y0174544D01*
X0041500Y0173946D02*
X0032800Y0173946D01*
X0032800Y0173347D02*
X0041500Y0173347D01*
X0041500Y0172749D02*
X0032800Y0172749D01*
X0032800Y0172150D02*
X0041500Y0172150D01*
X0041500Y0171552D02*
X0032800Y0171552D01*
X0032800Y0170953D02*
X0041500Y0170953D01*
X0041500Y0170355D02*
X0032800Y0170355D01*
X0032800Y0169756D02*
X0041500Y0169756D01*
X0041500Y0169158D02*
X0032800Y0169158D01*
X0032800Y0168559D02*
X0041500Y0168559D01*
X0041500Y0167961D02*
X0032800Y0167961D01*
X0032800Y0167362D02*
X0041500Y0167362D01*
X0041500Y0166764D02*
X0032800Y0166764D01*
X0032800Y0166165D02*
X0041500Y0166165D01*
X0041500Y0165567D02*
X0032800Y0165567D01*
X0032800Y0164968D02*
X0041500Y0164968D01*
X0041500Y0164370D02*
X0032800Y0164370D01*
X0032800Y0163771D02*
X0041500Y0163771D01*
X0041500Y0163172D02*
X0032800Y0163172D01*
X0032800Y0162574D02*
X0041500Y0162574D01*
X0041500Y0161975D02*
X0032800Y0161975D01*
X0032800Y0161377D02*
X0041500Y0161377D01*
X0041500Y0160778D02*
X0032800Y0160778D01*
X0032800Y0160180D02*
X0041500Y0160180D01*
X0041500Y0159581D02*
X0032800Y0159581D01*
X0032800Y0158983D02*
X0041500Y0158983D01*
X0041500Y0158384D02*
X0032800Y0158384D01*
X0032800Y0157786D02*
X0041500Y0157786D01*
X0041500Y0157187D02*
X0032800Y0157187D01*
X0032800Y0156589D02*
X0041500Y0156589D01*
X0030200Y0156589D02*
X0021500Y0156589D01*
X0021500Y0156500D02*
X0030200Y0156500D01*
X0030200Y0282038D01*
X0030962Y0282800D01*
X0556960Y0282800D01*
X0557721Y0282038D01*
X0557721Y0156500D01*
X0566500Y0156500D01*
X0566500Y0291500D01*
X0021500Y0291500D01*
X0021500Y0156500D01*
X0021500Y0157187D02*
X0030200Y0157187D01*
X0030200Y0157786D02*
X0021500Y0157786D01*
X0021500Y0158384D02*
X0030200Y0158384D01*
X0030200Y0158983D02*
X0021500Y0158983D01*
X0021500Y0159581D02*
X0030200Y0159581D01*
X0030200Y0160180D02*
X0021500Y0160180D01*
X0021500Y0160778D02*
X0030200Y0160778D01*
X0030200Y0161377D02*
X0021500Y0161377D01*
X0021500Y0161975D02*
X0030200Y0161975D01*
X0030200Y0162574D02*
X0021500Y0162574D01*
X0021500Y0163172D02*
X0030200Y0163172D01*
X0030200Y0163771D02*
X0021500Y0163771D01*
X0021500Y0164370D02*
X0030200Y0164370D01*
X0030200Y0164968D02*
X0021500Y0164968D01*
X0021500Y0165567D02*
X0030200Y0165567D01*
X0030200Y0166165D02*
X0021500Y0166165D01*
X0021500Y0166764D02*
X0030200Y0166764D01*
X0030200Y0167362D02*
X0021500Y0167362D01*
X0021500Y0167961D02*
X0030200Y0167961D01*
X0030200Y0168559D02*
X0021500Y0168559D01*
X0021500Y0169158D02*
X0030200Y0169158D01*
X0030200Y0169756D02*
X0021500Y0169756D01*
X0021500Y0170355D02*
X0030200Y0170355D01*
X0030200Y0170953D02*
X0021500Y0170953D01*
X0021500Y0171552D02*
X0030200Y0171552D01*
X0030200Y0172150D02*
X0021500Y0172150D01*
X0021500Y0172749D02*
X0030200Y0172749D01*
X0030200Y0173347D02*
X0021500Y0173347D01*
X0021500Y0173946D02*
X0030200Y0173946D01*
X0030200Y0174544D02*
X0021500Y0174544D01*
X0021500Y0175143D02*
X0030200Y0175143D01*
X0030200Y0175741D02*
X0021500Y0175741D01*
X0021500Y0176340D02*
X0030200Y0176340D01*
X0030200Y0176938D02*
X0021500Y0176938D01*
X0021500Y0177537D02*
X0030200Y0177537D01*
X0030200Y0178135D02*
X0021500Y0178135D01*
X0021500Y0178734D02*
X0030200Y0178734D01*
X0030200Y0179332D02*
X0021500Y0179332D01*
X0021500Y0179931D02*
X0030200Y0179931D01*
X0030200Y0180529D02*
X0021500Y0180529D01*
X0021500Y0181128D02*
X0030200Y0181128D01*
X0030200Y0181726D02*
X0021500Y0181726D01*
X0021500Y0182325D02*
X0030200Y0182325D01*
X0030200Y0182923D02*
X0021500Y0182923D01*
X0021500Y0183522D02*
X0030200Y0183522D01*
X0030200Y0184120D02*
X0021500Y0184120D01*
X0021500Y0184719D02*
X0030200Y0184719D01*
X0030200Y0185317D02*
X0021500Y0185317D01*
X0021500Y0185916D02*
X0030200Y0185916D01*
X0030200Y0186514D02*
X0021500Y0186514D01*
X0021500Y0187113D02*
X0030200Y0187113D01*
X0030200Y0187711D02*
X0021500Y0187711D01*
X0021500Y0188310D02*
X0030200Y0188310D01*
X0030200Y0188908D02*
X0021500Y0188908D01*
X0021500Y0189507D02*
X0030200Y0189507D01*
X0030200Y0190105D02*
X0021500Y0190105D01*
X0021500Y0190704D02*
X0030200Y0190704D01*
X0030200Y0191303D02*
X0021500Y0191303D01*
X0021500Y0191901D02*
X0030200Y0191901D01*
X0030200Y0192500D02*
X0021500Y0192500D01*
X0021500Y0193098D02*
X0030200Y0193098D01*
X0030200Y0193697D02*
X0021500Y0193697D01*
X0021500Y0194295D02*
X0030200Y0194295D01*
X0030200Y0194894D02*
X0021500Y0194894D01*
X0021500Y0195492D02*
X0030200Y0195492D01*
X0030200Y0196091D02*
X0021500Y0196091D01*
X0021500Y0196689D02*
X0030200Y0196689D01*
X0030200Y0197288D02*
X0021500Y0197288D01*
X0021500Y0197886D02*
X0030200Y0197886D01*
X0030200Y0198485D02*
X0021500Y0198485D01*
X0021500Y0199083D02*
X0030200Y0199083D01*
X0030200Y0199682D02*
X0021500Y0199682D01*
X0021500Y0200280D02*
X0030200Y0200280D01*
X0030200Y0200879D02*
X0021500Y0200879D01*
X0021500Y0201477D02*
X0030200Y0201477D01*
X0030200Y0202076D02*
X0021500Y0202076D01*
X0021500Y0202674D02*
X0030200Y0202674D01*
X0030200Y0203273D02*
X0021500Y0203273D01*
X0021500Y0203871D02*
X0030200Y0203871D01*
X0030200Y0204470D02*
X0021500Y0204470D01*
X0021500Y0205068D02*
X0030200Y0205068D01*
X0030200Y0205667D02*
X0021500Y0205667D01*
X0021500Y0206265D02*
X0030200Y0206265D01*
X0030200Y0206864D02*
X0021500Y0206864D01*
X0021500Y0207462D02*
X0030200Y0207462D01*
X0030200Y0208061D02*
X0021500Y0208061D01*
X0021500Y0208659D02*
X0030200Y0208659D01*
X0030200Y0209258D02*
X0021500Y0209258D01*
X0021500Y0209856D02*
X0030200Y0209856D01*
X0030200Y0210455D02*
X0021500Y0210455D01*
X0021500Y0211053D02*
X0030200Y0211053D01*
X0030200Y0211652D02*
X0021500Y0211652D01*
X0021500Y0212250D02*
X0030200Y0212250D01*
X0030200Y0212849D02*
X0021500Y0212849D01*
X0021500Y0213447D02*
X0030200Y0213447D01*
X0030200Y0214046D02*
X0021500Y0214046D01*
X0021500Y0214644D02*
X0030200Y0214644D01*
X0030200Y0215243D02*
X0021500Y0215243D01*
X0021500Y0215841D02*
X0030200Y0215841D01*
X0030200Y0216440D02*
X0021500Y0216440D01*
X0021500Y0217039D02*
X0030200Y0217039D01*
X0030200Y0217637D02*
X0021500Y0217637D01*
X0021500Y0218236D02*
X0030200Y0218236D01*
X0030200Y0218834D02*
X0021500Y0218834D01*
X0021500Y0219433D02*
X0030200Y0219433D01*
X0030200Y0220031D02*
X0021500Y0220031D01*
X0021500Y0220630D02*
X0030200Y0220630D01*
X0030200Y0221228D02*
X0021500Y0221228D01*
X0021500Y0221827D02*
X0030200Y0221827D01*
X0030200Y0222425D02*
X0021500Y0222425D01*
X0021500Y0223024D02*
X0030200Y0223024D01*
X0030200Y0223622D02*
X0021500Y0223622D01*
X0021500Y0224221D02*
X0030200Y0224221D01*
X0030200Y0224819D02*
X0021500Y0224819D01*
X0021500Y0225418D02*
X0030200Y0225418D01*
X0030200Y0226016D02*
X0021500Y0226016D01*
X0021500Y0226615D02*
X0030200Y0226615D01*
X0030200Y0227213D02*
X0021500Y0227213D01*
X0021500Y0227812D02*
X0030200Y0227812D01*
X0030200Y0228410D02*
X0021500Y0228410D01*
X0021500Y0229009D02*
X0030200Y0229009D01*
X0030200Y0229607D02*
X0021500Y0229607D01*
X0021500Y0230206D02*
X0030200Y0230206D01*
X0030200Y0230804D02*
X0021500Y0230804D01*
X0021500Y0231403D02*
X0030200Y0231403D01*
X0030200Y0232001D02*
X0021500Y0232001D01*
X0021500Y0232600D02*
X0030200Y0232600D01*
X0030200Y0233198D02*
X0021500Y0233198D01*
X0021500Y0233797D02*
X0030200Y0233797D01*
X0030200Y0234395D02*
X0021500Y0234395D01*
X0021500Y0234994D02*
X0030200Y0234994D01*
X0030200Y0235592D02*
X0021500Y0235592D01*
X0021500Y0236191D02*
X0030200Y0236191D01*
X0030200Y0236789D02*
X0021500Y0236789D01*
X0021500Y0237388D02*
X0030200Y0237388D01*
X0030200Y0237986D02*
X0021500Y0237986D01*
X0021500Y0238585D02*
X0030200Y0238585D01*
X0030200Y0239183D02*
X0021500Y0239183D01*
X0021500Y0239782D02*
X0030200Y0239782D01*
X0030200Y0240380D02*
X0021500Y0240380D01*
X0021500Y0240979D02*
X0030200Y0240979D01*
X0030200Y0241577D02*
X0021500Y0241577D01*
X0021500Y0242176D02*
X0030200Y0242176D01*
X0030200Y0242774D02*
X0021500Y0242774D01*
X0021500Y0243373D02*
X0030200Y0243373D01*
X0030200Y0243972D02*
X0021500Y0243972D01*
X0021500Y0244570D02*
X0030200Y0244570D01*
X0030200Y0245169D02*
X0021500Y0245169D01*
X0021500Y0245767D02*
X0030200Y0245767D01*
X0030200Y0246366D02*
X0021500Y0246366D01*
X0021500Y0246964D02*
X0030200Y0246964D01*
X0030200Y0247563D02*
X0021500Y0247563D01*
X0021500Y0248161D02*
X0030200Y0248161D01*
X0030200Y0248760D02*
X0021500Y0248760D01*
X0021500Y0249358D02*
X0030200Y0249358D01*
X0030200Y0249957D02*
X0021500Y0249957D01*
X0021500Y0250555D02*
X0030200Y0250555D01*
X0030200Y0251154D02*
X0021500Y0251154D01*
X0021500Y0251752D02*
X0030200Y0251752D01*
X0030200Y0252351D02*
X0021500Y0252351D01*
X0021500Y0252949D02*
X0030200Y0252949D01*
X0030200Y0253548D02*
X0021500Y0253548D01*
X0021500Y0254146D02*
X0030200Y0254146D01*
X0030200Y0254745D02*
X0021500Y0254745D01*
X0021500Y0255343D02*
X0030200Y0255343D01*
X0030200Y0255942D02*
X0021500Y0255942D01*
X0021500Y0256540D02*
X0030200Y0256540D01*
X0030200Y0257139D02*
X0021500Y0257139D01*
X0021500Y0257737D02*
X0030200Y0257737D01*
X0030200Y0258336D02*
X0021500Y0258336D01*
X0021500Y0258934D02*
X0030200Y0258934D01*
X0030200Y0259533D02*
X0021500Y0259533D01*
X0021500Y0260131D02*
X0030200Y0260131D01*
X0030200Y0260730D02*
X0021500Y0260730D01*
X0021500Y0261328D02*
X0030200Y0261328D01*
X0030200Y0261927D02*
X0021500Y0261927D01*
X0021500Y0262525D02*
X0030200Y0262525D01*
X0030200Y0263124D02*
X0021500Y0263124D01*
X0021500Y0263722D02*
X0030200Y0263722D01*
X0030200Y0264321D02*
X0021500Y0264321D01*
X0021500Y0264919D02*
X0030200Y0264919D01*
X0030200Y0265518D02*
X0021500Y0265518D01*
X0021500Y0266116D02*
X0030200Y0266116D01*
X0030200Y0266715D02*
X0021500Y0266715D01*
X0021500Y0267313D02*
X0030200Y0267313D01*
X0030200Y0267912D02*
X0021500Y0267912D01*
X0021500Y0268510D02*
X0030200Y0268510D01*
X0030200Y0269109D02*
X0021500Y0269109D01*
X0021500Y0269708D02*
X0030200Y0269708D01*
X0030200Y0270306D02*
X0021500Y0270306D01*
X0021500Y0270905D02*
X0030200Y0270905D01*
X0030200Y0271503D02*
X0021500Y0271503D01*
X0021500Y0272102D02*
X0030200Y0272102D01*
X0030200Y0272700D02*
X0021500Y0272700D01*
X0021500Y0273299D02*
X0030200Y0273299D01*
X0030200Y0273897D02*
X0021500Y0273897D01*
X0021500Y0274496D02*
X0030200Y0274496D01*
X0030200Y0275094D02*
X0021500Y0275094D01*
X0021500Y0275693D02*
X0030200Y0275693D01*
X0030200Y0276291D02*
X0021500Y0276291D01*
X0021500Y0276890D02*
X0030200Y0276890D01*
X0030200Y0277488D02*
X0021500Y0277488D01*
X0021500Y0278087D02*
X0030200Y0278087D01*
X0030200Y0278685D02*
X0021500Y0278685D01*
X0021500Y0279284D02*
X0030200Y0279284D01*
X0030200Y0279882D02*
X0021500Y0279882D01*
X0021500Y0280481D02*
X0030200Y0280481D01*
X0030200Y0281079D02*
X0021500Y0281079D01*
X0021500Y0281678D02*
X0030200Y0281678D01*
X0030438Y0282276D02*
X0021500Y0282276D01*
X0021500Y0282875D02*
X0566500Y0282875D01*
X0566500Y0283473D02*
X0021500Y0283473D01*
X0021500Y0284072D02*
X0566500Y0284072D01*
X0566500Y0284670D02*
X0021500Y0284670D01*
X0021500Y0285269D02*
X0566500Y0285269D01*
X0566500Y0285867D02*
X0021500Y0285867D01*
X0021500Y0286466D02*
X0566500Y0286466D01*
X0566500Y0287064D02*
X0021500Y0287064D01*
X0021500Y0287663D02*
X0566500Y0287663D01*
X0566500Y0288261D02*
X0021500Y0288261D01*
X0021500Y0288860D02*
X0566500Y0288860D01*
X0566500Y0289458D02*
X0021500Y0289458D01*
X0021500Y0290057D02*
X0566500Y0290057D01*
X0566500Y0290655D02*
X0021500Y0290655D01*
X0021500Y0291254D02*
X0566500Y0291254D01*
X0566500Y0282276D02*
X0557483Y0282276D01*
X0557721Y0281678D02*
X0566500Y0281678D01*
X0566500Y0281079D02*
X0557721Y0281079D01*
X0557721Y0280481D02*
X0566500Y0280481D01*
X0566500Y0279882D02*
X0557721Y0279882D01*
X0557721Y0279284D02*
X0566500Y0279284D01*
X0566500Y0278685D02*
X0557721Y0278685D01*
X0557721Y0278087D02*
X0566500Y0278087D01*
X0566500Y0277488D02*
X0557721Y0277488D01*
X0557721Y0276890D02*
X0566500Y0276890D01*
X0566500Y0276291D02*
X0557721Y0276291D01*
X0557721Y0275693D02*
X0566500Y0275693D01*
X0566500Y0275094D02*
X0557721Y0275094D01*
X0557721Y0274496D02*
X0566500Y0274496D01*
X0566500Y0273897D02*
X0557721Y0273897D01*
X0557721Y0273299D02*
X0566500Y0273299D01*
X0566500Y0272700D02*
X0557721Y0272700D01*
X0557721Y0272102D02*
X0566500Y0272102D01*
X0566500Y0271503D02*
X0557721Y0271503D01*
X0557721Y0270905D02*
X0566500Y0270905D01*
X0566500Y0270306D02*
X0557721Y0270306D01*
X0557721Y0269708D02*
X0566500Y0269708D01*
X0566500Y0269109D02*
X0557721Y0269109D01*
X0557721Y0268510D02*
X0566500Y0268510D01*
X0566500Y0267912D02*
X0557721Y0267912D01*
X0557721Y0267313D02*
X0566500Y0267313D01*
X0566500Y0266715D02*
X0557721Y0266715D01*
X0557721Y0266116D02*
X0566500Y0266116D01*
X0566500Y0265518D02*
X0557721Y0265518D01*
X0557721Y0264919D02*
X0566500Y0264919D01*
X0566500Y0264321D02*
X0557721Y0264321D01*
X0557721Y0263722D02*
X0566500Y0263722D01*
X0566500Y0263124D02*
X0557721Y0263124D01*
X0557721Y0262525D02*
X0566500Y0262525D01*
X0566500Y0261927D02*
X0557721Y0261927D01*
X0557721Y0261328D02*
X0566500Y0261328D01*
X0566500Y0260730D02*
X0557721Y0260730D01*
X0557721Y0260131D02*
X0566500Y0260131D01*
X0566500Y0259533D02*
X0557721Y0259533D01*
X0557721Y0258934D02*
X0566500Y0258934D01*
X0566500Y0258336D02*
X0557721Y0258336D01*
X0557721Y0257737D02*
X0566500Y0257737D01*
X0566500Y0257139D02*
X0557721Y0257139D01*
X0557721Y0256540D02*
X0566500Y0256540D01*
X0566500Y0255942D02*
X0557721Y0255942D01*
X0557721Y0255343D02*
X0566500Y0255343D01*
X0566500Y0254745D02*
X0557721Y0254745D01*
X0557721Y0254146D02*
X0566500Y0254146D01*
X0566500Y0253548D02*
X0557721Y0253548D01*
X0557721Y0252949D02*
X0566500Y0252949D01*
X0566500Y0252351D02*
X0557721Y0252351D01*
X0557721Y0251752D02*
X0566500Y0251752D01*
X0566500Y0251154D02*
X0557721Y0251154D01*
X0557721Y0250555D02*
X0566500Y0250555D01*
X0566500Y0249957D02*
X0557721Y0249957D01*
X0557721Y0249358D02*
X0566500Y0249358D01*
X0566500Y0248760D02*
X0557721Y0248760D01*
X0557721Y0248161D02*
X0566500Y0248161D01*
X0566500Y0247563D02*
X0557721Y0247563D01*
X0557721Y0246964D02*
X0566500Y0246964D01*
X0566500Y0246366D02*
X0557721Y0246366D01*
X0557721Y0245767D02*
X0566500Y0245767D01*
X0566500Y0245169D02*
X0557721Y0245169D01*
X0557721Y0244570D02*
X0566500Y0244570D01*
X0566500Y0243972D02*
X0557721Y0243972D01*
X0557721Y0243373D02*
X0566500Y0243373D01*
X0566500Y0242774D02*
X0557721Y0242774D01*
X0557721Y0242176D02*
X0566500Y0242176D01*
X0566500Y0241577D02*
X0557721Y0241577D01*
X0557721Y0240979D02*
X0566500Y0240979D01*
X0566500Y0240380D02*
X0557721Y0240380D01*
X0557721Y0239782D02*
X0566500Y0239782D01*
X0566500Y0239183D02*
X0557721Y0239183D01*
X0557721Y0238585D02*
X0566500Y0238585D01*
X0566500Y0237986D02*
X0557721Y0237986D01*
X0557721Y0237388D02*
X0566500Y0237388D01*
X0566500Y0236789D02*
X0557721Y0236789D01*
X0557721Y0236191D02*
X0566500Y0236191D01*
X0566500Y0235592D02*
X0557721Y0235592D01*
X0557721Y0234994D02*
X0566500Y0234994D01*
X0566500Y0234395D02*
X0557721Y0234395D01*
X0557721Y0233797D02*
X0566500Y0233797D01*
X0566500Y0233198D02*
X0557721Y0233198D01*
X0557721Y0232600D02*
X0566500Y0232600D01*
X0566500Y0232001D02*
X0557721Y0232001D01*
X0557721Y0231403D02*
X0566500Y0231403D01*
X0566500Y0230804D02*
X0557721Y0230804D01*
X0557721Y0230206D02*
X0566500Y0230206D01*
X0566500Y0229607D02*
X0557721Y0229607D01*
X0557721Y0229009D02*
X0566500Y0229009D01*
X0566500Y0228410D02*
X0557721Y0228410D01*
X0557721Y0227812D02*
X0566500Y0227812D01*
X0566500Y0227213D02*
X0557721Y0227213D01*
X0557721Y0226615D02*
X0566500Y0226615D01*
X0566500Y0226016D02*
X0557721Y0226016D01*
X0557721Y0225418D02*
X0566500Y0225418D01*
X0566500Y0224819D02*
X0557721Y0224819D01*
X0557721Y0224221D02*
X0566500Y0224221D01*
X0566500Y0223622D02*
X0557721Y0223622D01*
X0557721Y0223024D02*
X0566500Y0223024D01*
X0566500Y0222425D02*
X0557721Y0222425D01*
X0557721Y0221827D02*
X0566500Y0221827D01*
X0566500Y0221228D02*
X0557721Y0221228D01*
X0557721Y0220630D02*
X0566500Y0220630D01*
X0566500Y0220031D02*
X0557721Y0220031D01*
X0557721Y0219433D02*
X0566500Y0219433D01*
X0566500Y0218834D02*
X0557721Y0218834D01*
X0557721Y0218236D02*
X0566500Y0218236D01*
X0566500Y0217637D02*
X0557721Y0217637D01*
X0557721Y0217039D02*
X0566500Y0217039D01*
X0566500Y0216440D02*
X0557721Y0216440D01*
X0557721Y0215841D02*
X0566500Y0215841D01*
X0566500Y0215243D02*
X0557721Y0215243D01*
X0557721Y0214644D02*
X0566500Y0214644D01*
X0566500Y0214046D02*
X0557721Y0214046D01*
X0557721Y0213447D02*
X0566500Y0213447D01*
X0566500Y0212849D02*
X0557721Y0212849D01*
X0557721Y0212250D02*
X0566500Y0212250D01*
X0566500Y0211652D02*
X0557721Y0211652D01*
X0557721Y0211053D02*
X0566500Y0211053D01*
X0566500Y0210455D02*
X0557721Y0210455D01*
X0557721Y0209856D02*
X0566500Y0209856D01*
X0566500Y0209258D02*
X0557721Y0209258D01*
X0557721Y0208659D02*
X0566500Y0208659D01*
X0566500Y0208061D02*
X0557721Y0208061D01*
X0557721Y0207462D02*
X0566500Y0207462D01*
X0566500Y0206864D02*
X0557721Y0206864D01*
X0557721Y0206265D02*
X0566500Y0206265D01*
X0566500Y0205667D02*
X0557721Y0205667D01*
X0557721Y0205068D02*
X0566500Y0205068D01*
X0566500Y0204470D02*
X0557721Y0204470D01*
X0557721Y0203871D02*
X0566500Y0203871D01*
X0566500Y0203273D02*
X0557721Y0203273D01*
X0557721Y0202674D02*
X0566500Y0202674D01*
X0566500Y0202076D02*
X0557721Y0202076D01*
X0557721Y0201477D02*
X0566500Y0201477D01*
X0566500Y0200879D02*
X0557721Y0200879D01*
X0557721Y0200280D02*
X0566500Y0200280D01*
X0566500Y0199682D02*
X0557721Y0199682D01*
X0557721Y0199083D02*
X0566500Y0199083D01*
X0566500Y0198485D02*
X0557721Y0198485D01*
X0557721Y0197886D02*
X0566500Y0197886D01*
X0566500Y0197288D02*
X0557721Y0197288D01*
X0557721Y0196689D02*
X0566500Y0196689D01*
X0566500Y0196091D02*
X0557721Y0196091D01*
X0557721Y0195492D02*
X0566500Y0195492D01*
X0566500Y0194894D02*
X0557721Y0194894D01*
X0557721Y0194295D02*
X0566500Y0194295D01*
X0566500Y0193697D02*
X0557721Y0193697D01*
X0557721Y0193098D02*
X0566500Y0193098D01*
X0566500Y0192500D02*
X0557721Y0192500D01*
X0557721Y0191901D02*
X0566500Y0191901D01*
X0566500Y0191303D02*
X0557721Y0191303D01*
X0557721Y0190704D02*
X0566500Y0190704D01*
X0566500Y0190105D02*
X0557721Y0190105D01*
X0557721Y0189507D02*
X0566500Y0189507D01*
X0566500Y0188908D02*
X0557721Y0188908D01*
X0557721Y0188310D02*
X0566500Y0188310D01*
X0566500Y0187711D02*
X0557721Y0187711D01*
X0557721Y0187113D02*
X0566500Y0187113D01*
X0566500Y0186514D02*
X0557721Y0186514D01*
X0557721Y0185916D02*
X0566500Y0185916D01*
X0566500Y0185317D02*
X0557721Y0185317D01*
X0557721Y0184719D02*
X0566500Y0184719D01*
X0566500Y0184120D02*
X0557721Y0184120D01*
X0557721Y0183522D02*
X0566500Y0183522D01*
X0566500Y0182923D02*
X0557721Y0182923D01*
X0557721Y0182325D02*
X0566500Y0182325D01*
X0566500Y0181726D02*
X0557721Y0181726D01*
X0557721Y0181128D02*
X0566500Y0181128D01*
X0566500Y0180529D02*
X0557721Y0180529D01*
X0557721Y0179931D02*
X0566500Y0179931D01*
X0566500Y0179332D02*
X0557721Y0179332D01*
X0557721Y0178734D02*
X0566500Y0178734D01*
X0566500Y0178135D02*
X0557721Y0178135D01*
X0557721Y0177537D02*
X0566500Y0177537D01*
X0566500Y0176938D02*
X0557721Y0176938D01*
X0557721Y0176340D02*
X0566500Y0176340D01*
X0566500Y0175741D02*
X0557721Y0175741D01*
X0557721Y0175143D02*
X0566500Y0175143D01*
X0566500Y0174544D02*
X0557721Y0174544D01*
X0557721Y0173946D02*
X0566500Y0173946D01*
X0566500Y0173347D02*
X0557721Y0173347D01*
X0557721Y0172749D02*
X0566500Y0172749D01*
X0566500Y0172150D02*
X0557721Y0172150D01*
X0557721Y0171552D02*
X0566500Y0171552D01*
X0566500Y0170953D02*
X0557721Y0170953D01*
X0557721Y0170355D02*
X0566500Y0170355D01*
X0566500Y0169756D02*
X0557721Y0169756D01*
X0557721Y0169158D02*
X0566500Y0169158D01*
X0566500Y0168559D02*
X0557721Y0168559D01*
X0557721Y0167961D02*
X0566500Y0167961D01*
X0566500Y0167362D02*
X0557721Y0167362D01*
X0557721Y0166764D02*
X0566500Y0166764D01*
X0566500Y0166165D02*
X0557721Y0166165D01*
X0557721Y0165567D02*
X0566500Y0165567D01*
X0566500Y0164968D02*
X0557721Y0164968D01*
X0557721Y0164370D02*
X0566500Y0164370D01*
X0566500Y0163771D02*
X0557721Y0163771D01*
X0557721Y0163172D02*
X0566500Y0163172D01*
X0566500Y0162574D02*
X0557721Y0162574D01*
X0557721Y0161975D02*
X0566500Y0161975D01*
X0566500Y0161377D02*
X0557721Y0161377D01*
X0557721Y0160778D02*
X0566500Y0160778D01*
X0566500Y0160180D02*
X0557721Y0160180D01*
X0557721Y0159581D02*
X0566500Y0159581D01*
X0566500Y0158983D02*
X0557721Y0158983D01*
X0557721Y0158384D02*
X0566500Y0158384D01*
X0566500Y0157786D02*
X0557721Y0157786D01*
X0557721Y0157187D02*
X0566500Y0157187D01*
X0566500Y0156589D02*
X0557721Y0156589D01*
X0555121Y0156589D02*
X0546500Y0156589D01*
X0546500Y0157187D02*
X0555121Y0157187D01*
X0555121Y0157786D02*
X0546500Y0157786D01*
X0546500Y0158384D02*
X0555121Y0158384D01*
X0555121Y0158983D02*
X0546500Y0158983D01*
X0546500Y0159581D02*
X0555121Y0159581D01*
X0555121Y0160180D02*
X0546500Y0160180D01*
X0546500Y0160778D02*
X0555121Y0160778D01*
X0555121Y0161377D02*
X0546500Y0161377D01*
X0546500Y0161975D02*
X0555121Y0161975D01*
X0555121Y0162574D02*
X0546500Y0162574D01*
X0546500Y0163172D02*
X0555121Y0163172D01*
X0555121Y0163771D02*
X0546500Y0163771D01*
X0546500Y0164370D02*
X0555121Y0164370D01*
X0555121Y0164968D02*
X0546500Y0164968D01*
X0546500Y0165567D02*
X0555121Y0165567D01*
X0555121Y0166165D02*
X0546500Y0166165D01*
X0546500Y0166764D02*
X0555121Y0166764D01*
X0555121Y0167362D02*
X0546500Y0167362D01*
X0546500Y0167961D02*
X0555121Y0167961D01*
X0555121Y0168559D02*
X0546500Y0168559D01*
X0546500Y0169158D02*
X0555121Y0169158D01*
X0555121Y0169756D02*
X0546500Y0169756D01*
X0546500Y0170355D02*
X0555121Y0170355D01*
X0555121Y0170953D02*
X0546500Y0170953D01*
X0546500Y0171552D02*
X0555121Y0171552D01*
X0555121Y0172150D02*
X0546500Y0172150D01*
X0546500Y0172749D02*
X0555121Y0172749D01*
X0555121Y0173347D02*
X0546500Y0173347D01*
X0546500Y0173946D02*
X0555121Y0173946D01*
X0555121Y0174544D02*
X0546500Y0174544D01*
X0546500Y0175143D02*
X0555121Y0175143D01*
X0555121Y0175741D02*
X0546500Y0175741D01*
X0546500Y0176340D02*
X0555121Y0176340D01*
X0555121Y0176938D02*
X0546500Y0176938D01*
X0546500Y0177537D02*
X0555121Y0177537D01*
X0555121Y0178135D02*
X0546500Y0178135D01*
X0546500Y0178734D02*
X0555121Y0178734D01*
X0555121Y0179332D02*
X0546500Y0179332D01*
X0546500Y0179931D02*
X0555121Y0179931D01*
X0555121Y0180529D02*
X0546500Y0180529D01*
X0546500Y0181128D02*
X0555121Y0181128D01*
X0555121Y0181726D02*
X0546500Y0181726D01*
X0546500Y0182325D02*
X0555121Y0182325D01*
X0555121Y0182923D02*
X0546500Y0182923D01*
X0546500Y0183522D02*
X0555121Y0183522D01*
X0555121Y0184120D02*
X0546500Y0184120D01*
X0546500Y0184719D02*
X0555121Y0184719D01*
X0555121Y0185317D02*
X0546500Y0185317D01*
X0546500Y0185916D02*
X0555121Y0185916D01*
X0555121Y0186514D02*
X0546500Y0186514D01*
X0546500Y0187113D02*
X0555121Y0187113D01*
X0555121Y0187711D02*
X0546500Y0187711D01*
X0546500Y0188310D02*
X0555121Y0188310D01*
X0555121Y0188908D02*
X0546500Y0188908D01*
X0546500Y0189507D02*
X0555121Y0189507D01*
X0555121Y0190105D02*
X0546500Y0190105D01*
X0546500Y0190704D02*
X0555121Y0190704D01*
X0555121Y0191303D02*
X0546500Y0191303D01*
X0546500Y0191901D02*
X0555121Y0191901D01*
X0555121Y0192500D02*
X0546500Y0192500D01*
X0546500Y0193098D02*
X0555121Y0193098D01*
X0555121Y0193697D02*
X0546500Y0193697D01*
X0546500Y0194295D02*
X0555121Y0194295D01*
X0555121Y0194894D02*
X0546500Y0194894D01*
X0546500Y0195492D02*
X0555121Y0195492D01*
X0555121Y0196091D02*
X0546500Y0196091D01*
X0546500Y0196689D02*
X0555121Y0196689D01*
X0555121Y0197288D02*
X0546500Y0197288D01*
X0546500Y0197886D02*
X0555121Y0197886D01*
X0555121Y0198485D02*
X0546500Y0198485D01*
X0546500Y0199083D02*
X0555121Y0199083D01*
X0555121Y0199682D02*
X0546500Y0199682D01*
X0546500Y0200280D02*
X0555121Y0200280D01*
X0555121Y0200879D02*
X0546500Y0200879D01*
X0546500Y0201477D02*
X0555121Y0201477D01*
X0555121Y0202076D02*
X0546500Y0202076D01*
X0546500Y0202674D02*
X0555121Y0202674D01*
X0555121Y0203273D02*
X0546500Y0203273D01*
X0546500Y0203871D02*
X0555121Y0203871D01*
X0555121Y0204470D02*
X0546500Y0204470D01*
X0546500Y0205068D02*
X0555121Y0205068D01*
X0555121Y0205667D02*
X0546500Y0205667D01*
X0546500Y0206265D02*
X0555121Y0206265D01*
X0555121Y0206864D02*
X0546500Y0206864D01*
X0546500Y0207462D02*
X0555121Y0207462D01*
X0555121Y0208061D02*
X0546500Y0208061D01*
X0546500Y0208659D02*
X0555121Y0208659D01*
X0555121Y0209258D02*
X0546500Y0209258D01*
X0546500Y0209856D02*
X0555121Y0209856D01*
X0555121Y0210455D02*
X0546500Y0210455D01*
X0546500Y0211053D02*
X0555121Y0211053D01*
X0555121Y0211652D02*
X0546500Y0211652D01*
X0546500Y0212250D02*
X0555121Y0212250D01*
X0555121Y0212849D02*
X0546500Y0212849D01*
X0546500Y0213447D02*
X0555121Y0213447D01*
X0555121Y0214046D02*
X0546500Y0214046D01*
X0546500Y0214644D02*
X0555121Y0214644D01*
X0555121Y0215243D02*
X0546500Y0215243D01*
X0546500Y0215841D02*
X0555121Y0215841D01*
X0555121Y0216440D02*
X0546500Y0216440D01*
X0546500Y0217039D02*
X0555121Y0217039D01*
X0555121Y0217637D02*
X0546500Y0217637D01*
X0546500Y0218236D02*
X0555121Y0218236D01*
X0555121Y0218834D02*
X0546500Y0218834D01*
X0546500Y0219433D02*
X0555121Y0219433D01*
X0555121Y0220031D02*
X0546500Y0220031D01*
X0546500Y0220630D02*
X0555121Y0220630D01*
X0555121Y0221228D02*
X0546500Y0221228D01*
X0546500Y0221827D02*
X0555121Y0221827D01*
X0555121Y0222425D02*
X0546500Y0222425D01*
X0546500Y0223024D02*
X0555121Y0223024D01*
X0555121Y0223622D02*
X0546500Y0223622D01*
X0546500Y0224221D02*
X0555121Y0224221D01*
X0555121Y0224819D02*
X0546500Y0224819D01*
X0546500Y0225418D02*
X0555121Y0225418D01*
X0555121Y0226016D02*
X0546500Y0226016D01*
X0546500Y0226615D02*
X0555121Y0226615D01*
X0555121Y0227213D02*
X0546500Y0227213D01*
X0546500Y0227812D02*
X0555121Y0227812D01*
X0555121Y0228410D02*
X0546500Y0228410D01*
X0546500Y0229009D02*
X0555121Y0229009D01*
X0555121Y0229607D02*
X0546500Y0229607D01*
X0546500Y0230206D02*
X0555121Y0230206D01*
X0555121Y0230804D02*
X0546500Y0230804D01*
X0546500Y0231403D02*
X0555121Y0231403D01*
X0555121Y0232001D02*
X0546500Y0232001D01*
X0546500Y0232600D02*
X0555121Y0232600D01*
X0555121Y0233198D02*
X0546500Y0233198D01*
X0546500Y0233797D02*
X0555121Y0233797D01*
X0555121Y0234395D02*
X0546500Y0234395D01*
X0546500Y0234994D02*
X0555121Y0234994D01*
X0555121Y0235592D02*
X0546500Y0235592D01*
X0546500Y0236191D02*
X0555121Y0236191D01*
X0555121Y0236789D02*
X0546500Y0236789D01*
X0546500Y0237388D02*
X0555121Y0237388D01*
X0555121Y0237986D02*
X0546500Y0237986D01*
X0546500Y0238585D02*
X0555121Y0238585D01*
X0555121Y0239183D02*
X0546500Y0239183D01*
X0546500Y0239782D02*
X0555121Y0239782D01*
X0555121Y0240380D02*
X0546500Y0240380D01*
X0546500Y0240979D02*
X0555121Y0240979D01*
X0555121Y0241577D02*
X0546500Y0241577D01*
X0546500Y0242176D02*
X0555121Y0242176D01*
X0555121Y0242774D02*
X0546500Y0242774D01*
X0546500Y0243373D02*
X0555121Y0243373D01*
X0555121Y0243972D02*
X0546500Y0243972D01*
X0546500Y0244570D02*
X0555121Y0244570D01*
X0555121Y0245169D02*
X0546500Y0245169D01*
X0546500Y0245767D02*
X0555121Y0245767D01*
X0555121Y0246366D02*
X0546500Y0246366D01*
X0546500Y0246964D02*
X0555121Y0246964D01*
X0555121Y0247563D02*
X0546500Y0247563D01*
X0546500Y0248161D02*
X0555121Y0248161D01*
X0555121Y0248760D02*
X0546500Y0248760D01*
X0546500Y0249358D02*
X0555121Y0249358D01*
X0555121Y0249957D02*
X0546500Y0249957D01*
X0546500Y0250555D02*
X0555121Y0250555D01*
X0555121Y0251154D02*
X0546500Y0251154D01*
X0555121Y0276890D02*
X0032800Y0276890D01*
X0032800Y0277488D02*
X0555121Y0277488D01*
X0555121Y0278087D02*
X0032800Y0278087D01*
X0032800Y0278685D02*
X0555121Y0278685D01*
X0555121Y0279284D02*
X0032800Y0279284D01*
X0032800Y0279882D02*
X0555121Y0279882D01*
M02*
