%
M48
M72
T01C0.0138
T02C0.0315
T03C0.0350
T04C0.0400
T05C0.0591
T06C0.1250
%
T01
X10250Y6050
X10850Y6050
X11450Y6050
X12050Y6050
X26750Y15250
X27750Y14550
X27150Y13850
X27150Y13050
X27150Y12450
X27850Y11850
X28650Y12950
X28250Y13250
X30250Y13750
X30250Y14550
X30750Y14950
X31350Y15250
X30150Y16350
X28050Y16050
T02
X23650Y14870
X23650Y17430
T03
X34477Y17540
X35477Y17540
X36477Y17540
X37477Y17540
X38477Y17540
X39477Y17540
X40477Y17540
X41477Y17540
X42477Y17540
X43477Y17540
X44477Y17540
X45477Y17540
X46477Y17540
X47477Y17540
X48477Y17540
X49477Y17540
X50477Y17540
X51477Y17540
X51477Y16540
X50477Y16540
X49477Y16540
X48477Y16540
X47477Y16540
X46477Y16540
X45477Y16540
X44477Y16540
X43477Y16540
X42477Y16540
X41477Y16540
X40477Y16540
X39477Y16540
X38477Y16540
X37477Y16540
X36477Y16540
X35477Y16540
X34477Y16540
X34477Y7540
X35477Y7540
X36477Y7540
X37477Y7540
X38477Y7540
X39477Y7540
X40477Y7540
X41477Y7540
X42477Y7540
X43477Y7540
X44477Y7540
X45477Y7540
X46477Y7540
X47477Y7540
X48477Y7540
X49477Y7540
X50477Y7540
X51477Y7540
X51477Y6540
X50477Y6540
X49477Y6540
X48477Y6540
X47477Y6540
X46477Y6540
X45477Y6540
X44477Y6540
X43477Y6540
X42477Y6540
X41477Y6540
X40477Y6540
X39477Y6540
X38477Y6540
X37477Y6540
X36477Y6540
X35477Y6540
X34477Y6540
T04
X36150Y24150
X37150Y24150
X38150Y24150
X39150Y24150
X40150Y24150
X41150Y24150
X16650Y24150
X15650Y24150
X14650Y24150
X13650Y24150
X12650Y24150
X11650Y24150
T05
X11111Y17134
X11111Y15166
X13689Y15166
X13689Y17134
X18611Y17134
X18611Y15166
X18611Y10634
X18611Y8666
X21189Y8666
X21189Y10634
X26111Y10634
X26111Y8666
X13689Y8666
X13689Y10634
X11111Y10634
X11111Y8666
X6189Y8666
X6189Y10634
X6189Y15166
X6189Y17134
X47189Y20666
X47189Y22634
X52111Y22634
X52111Y20666
T06
X4650Y4650
X4650Y26650
X8150Y26650
X29650Y26650
X32650Y26650
X54150Y26650
X54150Y4650
M30
