G75*
%MOIN*%
%OFA0B0*%
%FSLAX25Y25*%
%IPPOS*%
%LPD*%
%AMOC8*
5,1,8,0,0,1.08239X$1,22.5*
%
%ADD10C,0.01041*%
%ADD11C,0.06600*%
%ADD12R,0.06600X0.06600*%
%ADD13OC8,0.06600*%
%ADD14R,0.04931X0.04537*%
%ADD15R,0.04537X0.04931*%
%ADD16R,0.04340X0.04660*%
%ADD17R,0.04660X0.04340*%
%ADD18R,0.03750X0.03750*%
%ADD19C,0.09458*%
%ADD20C,0.05750*%
%ADD21C,0.18100*%
D10*
X0284633Y0137390D02*
X0286555Y0137390D01*
X0284633Y0137390D02*
X0284633Y0137736D01*
X0286555Y0137736D01*
X0286555Y0137390D01*
X0286555Y0138965D02*
X0284633Y0138965D01*
X0284633Y0139311D01*
X0286555Y0139311D01*
X0286555Y0138965D01*
X0286555Y0140540D02*
X0284633Y0140540D01*
X0284633Y0140886D01*
X0286555Y0140886D01*
X0286555Y0140540D01*
X0286555Y0142114D02*
X0284633Y0142114D01*
X0284633Y0142460D01*
X0286555Y0142460D01*
X0286555Y0142114D01*
X0286555Y0143689D02*
X0284633Y0143689D01*
X0284633Y0144035D01*
X0286555Y0144035D01*
X0286555Y0143689D01*
X0286555Y0145264D02*
X0284633Y0145264D01*
X0284633Y0145610D01*
X0286555Y0145610D01*
X0286555Y0145264D01*
X0287736Y0146445D02*
X0287736Y0148367D01*
X0287736Y0146445D02*
X0287390Y0146445D01*
X0287390Y0148367D01*
X0287736Y0148367D01*
X0287736Y0147485D02*
X0287390Y0147485D01*
X0289311Y0148367D02*
X0289311Y0146445D01*
X0288965Y0146445D01*
X0288965Y0148367D01*
X0289311Y0148367D01*
X0289311Y0147485D02*
X0288965Y0147485D01*
X0290886Y0148367D02*
X0290886Y0146445D01*
X0290540Y0146445D01*
X0290540Y0148367D01*
X0290886Y0148367D01*
X0290886Y0147485D02*
X0290540Y0147485D01*
X0292460Y0148367D02*
X0292460Y0146445D01*
X0292114Y0146445D01*
X0292114Y0148367D01*
X0292460Y0148367D01*
X0292460Y0147485D02*
X0292114Y0147485D01*
X0294035Y0148367D02*
X0294035Y0146445D01*
X0293689Y0146445D01*
X0293689Y0148367D01*
X0294035Y0148367D01*
X0294035Y0147485D02*
X0293689Y0147485D01*
X0295610Y0148367D02*
X0295610Y0146445D01*
X0295264Y0146445D01*
X0295264Y0148367D01*
X0295610Y0148367D01*
X0295610Y0147485D02*
X0295264Y0147485D01*
X0296445Y0145264D02*
X0298367Y0145264D01*
X0296445Y0145264D02*
X0296445Y0145610D01*
X0298367Y0145610D01*
X0298367Y0145264D01*
X0298367Y0143689D02*
X0296445Y0143689D01*
X0296445Y0144035D01*
X0298367Y0144035D01*
X0298367Y0143689D01*
X0298367Y0142114D02*
X0296445Y0142114D01*
X0296445Y0142460D01*
X0298367Y0142460D01*
X0298367Y0142114D01*
X0298367Y0140540D02*
X0296445Y0140540D01*
X0296445Y0140886D01*
X0298367Y0140886D01*
X0298367Y0140540D01*
X0298367Y0138965D02*
X0296445Y0138965D01*
X0296445Y0139311D01*
X0298367Y0139311D01*
X0298367Y0138965D01*
X0298367Y0137390D02*
X0296445Y0137390D01*
X0296445Y0137736D01*
X0298367Y0137736D01*
X0298367Y0137390D01*
X0295610Y0136555D02*
X0295610Y0134633D01*
X0295264Y0134633D01*
X0295264Y0136555D01*
X0295610Y0136555D01*
X0295610Y0135673D02*
X0295264Y0135673D01*
X0294035Y0136555D02*
X0294035Y0134633D01*
X0293689Y0134633D01*
X0293689Y0136555D01*
X0294035Y0136555D01*
X0294035Y0135673D02*
X0293689Y0135673D01*
X0292460Y0136555D02*
X0292460Y0134633D01*
X0292114Y0134633D01*
X0292114Y0136555D01*
X0292460Y0136555D01*
X0292460Y0135673D02*
X0292114Y0135673D01*
X0290886Y0136555D02*
X0290886Y0134633D01*
X0290540Y0134633D01*
X0290540Y0136555D01*
X0290886Y0136555D01*
X0290886Y0135673D02*
X0290540Y0135673D01*
X0289311Y0136555D02*
X0289311Y0134633D01*
X0288965Y0134633D01*
X0288965Y0136555D01*
X0289311Y0136555D01*
X0289311Y0135673D02*
X0288965Y0135673D01*
X0287736Y0136555D02*
X0287736Y0134633D01*
X0287390Y0134633D01*
X0287390Y0136555D01*
X0287736Y0136555D01*
X0287736Y0135673D02*
X0287390Y0135673D01*
D11*
X0361500Y0241500D03*
X0371500Y0241500D03*
X0381500Y0241500D03*
X0391500Y0241500D03*
X0401500Y0241500D03*
X0411500Y0241500D03*
X0166500Y0241500D03*
X0156500Y0241500D03*
X0146500Y0241500D03*
X0136500Y0241500D03*
X0126500Y0241500D03*
X0116500Y0241500D03*
D12*
X0344768Y0165398D03*
X0344768Y0065398D03*
D13*
X0344768Y0075398D03*
X0354768Y0075398D03*
X0364768Y0075398D03*
X0374768Y0075398D03*
X0384768Y0075398D03*
X0394768Y0075398D03*
X0404768Y0075398D03*
X0414768Y0075398D03*
X0424768Y0075398D03*
X0434768Y0075398D03*
X0444768Y0075398D03*
X0454768Y0075398D03*
X0464768Y0075398D03*
X0474768Y0075398D03*
X0484768Y0075398D03*
X0494768Y0075398D03*
X0504768Y0075398D03*
X0514768Y0075398D03*
X0514768Y0065398D03*
X0504768Y0065398D03*
X0494768Y0065398D03*
X0484768Y0065398D03*
X0474768Y0065398D03*
X0464768Y0065398D03*
X0454768Y0065398D03*
X0444768Y0065398D03*
X0434768Y0065398D03*
X0424768Y0065398D03*
X0414768Y0065398D03*
X0404768Y0065398D03*
X0394768Y0065398D03*
X0384768Y0065398D03*
X0374768Y0065398D03*
X0364768Y0065398D03*
X0354768Y0065398D03*
X0354768Y0165398D03*
X0354768Y0175398D03*
X0364768Y0175398D03*
X0374768Y0175398D03*
X0384768Y0175398D03*
X0394768Y0175398D03*
X0404768Y0175398D03*
X0414768Y0175398D03*
X0424768Y0175398D03*
X0434768Y0175398D03*
X0444768Y0175398D03*
X0454768Y0175398D03*
X0464768Y0175398D03*
X0474768Y0175398D03*
X0484768Y0175398D03*
X0494768Y0175398D03*
X0504768Y0175398D03*
X0514768Y0175398D03*
X0514768Y0165398D03*
X0504768Y0165398D03*
X0494768Y0165398D03*
X0484768Y0165398D03*
X0474768Y0165398D03*
X0464768Y0165398D03*
X0454768Y0165398D03*
X0444768Y0165398D03*
X0434768Y0165398D03*
X0424768Y0165398D03*
X0414768Y0165398D03*
X0404768Y0165398D03*
X0394768Y0165398D03*
X0384768Y0165398D03*
X0374768Y0165398D03*
X0364768Y0165398D03*
X0344768Y0175398D03*
D14*
X0294846Y0124500D03*
X0288154Y0124500D03*
D15*
X0264500Y0124154D03*
X0264500Y0130846D03*
X0264500Y0139154D03*
X0264500Y0145846D03*
D16*
X0295350Y0156500D03*
X0301650Y0156500D03*
X0287650Y0104500D03*
X0281350Y0104500D03*
X0281350Y0094500D03*
X0287650Y0094500D03*
X0287650Y0084500D03*
X0281350Y0084500D03*
D17*
X0287500Y0154350D03*
X0287500Y0160650D03*
X0201500Y0119650D03*
X0201500Y0113350D03*
X0126500Y0113350D03*
X0126500Y0119650D03*
X0126500Y0178350D03*
X0126500Y0184650D03*
X0051500Y0184650D03*
X0051500Y0178350D03*
X0051500Y0119650D03*
X0051500Y0113350D03*
X0111500Y0054650D03*
X0111500Y0048350D03*
D18*
X0296547Y0084500D03*
X0302453Y0084500D03*
X0302453Y0094500D03*
X0296547Y0094500D03*
X0296547Y0104500D03*
X0302453Y0104500D03*
D19*
X0261106Y0106343D03*
X0261106Y0086657D03*
X0211894Y0086657D03*
X0211894Y0106343D03*
X0186106Y0106343D03*
X0186106Y0086657D03*
X0136894Y0086657D03*
X0136894Y0106343D03*
X0111106Y0106343D03*
X0111106Y0086657D03*
X0061894Y0086657D03*
X0061894Y0106343D03*
X0061894Y0151657D03*
X0061894Y0171343D03*
X0111106Y0171343D03*
X0111106Y0151657D03*
X0136894Y0151657D03*
X0136894Y0171343D03*
X0186106Y0171343D03*
X0186106Y0151657D03*
X0471894Y0206657D03*
X0471894Y0226343D03*
X0521106Y0226343D03*
X0521106Y0206657D03*
D20*
X0236500Y0174295D03*
X0236500Y0148705D03*
D21*
X0046500Y0046500D03*
X0046500Y0266500D03*
X0081500Y0266500D03*
X0296500Y0266500D03*
X0326500Y0266500D03*
X0541500Y0266500D03*
X0541500Y0046500D03*
M02*
