G75*
%MOIN*%
%OFA0B0*%
%FSLAX25Y25*%
%IPPOS*%
%LPD*%
%AMOC8*
5,1,8,0,0,1.08239X$1,22.5*
%
%ADD10C,0.06000*%
%ADD11R,0.06000X0.06000*%
%ADD12OC8,0.06000*%
%ADD13C,0.08858*%
%ADD14C,0.05150*%
%ADD15C,0.17500*%
%ADD16C,0.03378*%
%ADD17C,0.01000*%
D10*
X0116500Y0241500D03*
X0126500Y0241500D03*
X0136500Y0241500D03*
X0146500Y0241500D03*
X0156500Y0241500D03*
X0166500Y0241500D03*
X0361500Y0241500D03*
X0371500Y0241500D03*
X0381500Y0241500D03*
X0391500Y0241500D03*
X0401500Y0241500D03*
X0411500Y0241500D03*
D11*
X0344768Y0165398D03*
X0344768Y0065398D03*
D12*
X0344768Y0075398D03*
X0354768Y0075398D03*
X0364768Y0075398D03*
X0374768Y0075398D03*
X0384768Y0075398D03*
X0394768Y0075398D03*
X0404768Y0075398D03*
X0414768Y0075398D03*
X0424768Y0075398D03*
X0434768Y0075398D03*
X0444768Y0075398D03*
X0454768Y0075398D03*
X0464768Y0075398D03*
X0474768Y0075398D03*
X0484768Y0075398D03*
X0494768Y0075398D03*
X0504768Y0075398D03*
X0514768Y0075398D03*
X0514768Y0065398D03*
X0504768Y0065398D03*
X0494768Y0065398D03*
X0484768Y0065398D03*
X0474768Y0065398D03*
X0464768Y0065398D03*
X0454768Y0065398D03*
X0444768Y0065398D03*
X0434768Y0065398D03*
X0424768Y0065398D03*
X0414768Y0065398D03*
X0404768Y0065398D03*
X0394768Y0065398D03*
X0384768Y0065398D03*
X0374768Y0065398D03*
X0364768Y0065398D03*
X0354768Y0065398D03*
X0354768Y0165398D03*
X0354768Y0175398D03*
X0364768Y0175398D03*
X0374768Y0175398D03*
X0384768Y0175398D03*
X0394768Y0175398D03*
X0404768Y0175398D03*
X0414768Y0175398D03*
X0424768Y0175398D03*
X0434768Y0175398D03*
X0444768Y0175398D03*
X0454768Y0175398D03*
X0464768Y0175398D03*
X0474768Y0175398D03*
X0484768Y0175398D03*
X0494768Y0175398D03*
X0504768Y0175398D03*
X0514768Y0175398D03*
X0514768Y0165398D03*
X0504768Y0165398D03*
X0494768Y0165398D03*
X0484768Y0165398D03*
X0474768Y0165398D03*
X0464768Y0165398D03*
X0454768Y0165398D03*
X0444768Y0165398D03*
X0434768Y0165398D03*
X0424768Y0165398D03*
X0414768Y0165398D03*
X0404768Y0165398D03*
X0394768Y0165398D03*
X0384768Y0165398D03*
X0374768Y0165398D03*
X0364768Y0165398D03*
X0344768Y0175398D03*
D13*
X0261106Y0106343D03*
X0261106Y0086657D03*
X0211894Y0086657D03*
X0211894Y0106343D03*
X0186106Y0106343D03*
X0186106Y0086657D03*
X0136894Y0086657D03*
X0136894Y0106343D03*
X0111106Y0106343D03*
X0111106Y0086657D03*
X0061894Y0086657D03*
X0061894Y0106343D03*
X0061894Y0151657D03*
X0061894Y0171343D03*
X0111106Y0171343D03*
X0111106Y0151657D03*
X0136894Y0151657D03*
X0136894Y0171343D03*
X0186106Y0171343D03*
X0186106Y0151657D03*
X0471894Y0206657D03*
X0471894Y0226343D03*
X0521106Y0226343D03*
X0521106Y0206657D03*
D14*
X0236500Y0174295D03*
X0236500Y0148705D03*
D15*
X0046500Y0046500D03*
X0046500Y0266500D03*
X0081500Y0266500D03*
X0296500Y0266500D03*
X0326500Y0266500D03*
X0541500Y0266500D03*
X0541500Y0046500D03*
D16*
X0313500Y0152500D03*
X0307500Y0149500D03*
X0302500Y0145500D03*
X0302500Y0137500D03*
X0286500Y0129500D03*
X0282500Y0132500D03*
X0271500Y0130500D03*
X0271500Y0124500D03*
X0278500Y0118500D03*
X0271500Y0138500D03*
X0277500Y0145500D03*
X0267500Y0152500D03*
X0280500Y0160500D03*
X0301500Y0163500D03*
X0120500Y0060500D03*
X0114500Y0060500D03*
X0108500Y0060500D03*
X0102500Y0060500D03*
D17*
X0231500Y0156500D02*
X0237500Y0156500D01*
X0256500Y0137500D01*
X0256500Y0129500D01*
X0303500Y0082500D01*
X0357665Y0082500D01*
X0364768Y0075398D01*
X0374768Y0075398D02*
X0361165Y0089000D01*
X0341000Y0089000D01*
X0272500Y0157500D01*
X0240500Y0157500D01*
X0156500Y0241500D01*
X0146500Y0241500D02*
X0231500Y0156500D01*
X0307500Y0070500D02*
X0389870Y0070500D01*
X0394768Y0075398D01*
X0307500Y0070500D02*
X0136500Y0241500D01*
M02*
