G75*
%MOIN*%
%OFA0B0*%
%FSLAX25Y25*%
%IPPOS*%
%LPD*%
%AMOC8*
5,1,8,0,0,1.08239X$1,22.5*
%
%ADD10C,0.00591*%
%ADD11R,0.04331X0.03937*%
%ADD12R,0.03937X0.04331*%
%ADD13R,0.03740X0.04060*%
%ADD14R,0.04060X0.03740*%
%ADD15R,0.03150X0.03150*%
D10*
X0284708Y0137465D02*
X0286480Y0137465D01*
X0284708Y0137465D02*
X0284708Y0137661D01*
X0286480Y0137661D01*
X0286480Y0137465D01*
X0286480Y0139040D02*
X0284708Y0139040D01*
X0284708Y0139236D01*
X0286480Y0139236D01*
X0286480Y0139040D01*
X0286480Y0140615D02*
X0284708Y0140615D01*
X0284708Y0140811D01*
X0286480Y0140811D01*
X0286480Y0140615D01*
X0286480Y0142189D02*
X0284708Y0142189D01*
X0284708Y0142385D01*
X0286480Y0142385D01*
X0286480Y0142189D01*
X0286480Y0143764D02*
X0284708Y0143764D01*
X0284708Y0143960D01*
X0286480Y0143960D01*
X0286480Y0143764D01*
X0286480Y0145339D02*
X0284708Y0145339D01*
X0284708Y0145535D01*
X0286480Y0145535D01*
X0286480Y0145339D01*
X0287661Y0146520D02*
X0287661Y0148292D01*
X0287661Y0146520D02*
X0287465Y0146520D01*
X0287465Y0148292D01*
X0287661Y0148292D01*
X0287661Y0147110D02*
X0287465Y0147110D01*
X0287465Y0147700D02*
X0287661Y0147700D01*
X0287661Y0148290D02*
X0287465Y0148290D01*
X0289236Y0148292D02*
X0289236Y0146520D01*
X0289040Y0146520D01*
X0289040Y0148292D01*
X0289236Y0148292D01*
X0289236Y0147110D02*
X0289040Y0147110D01*
X0289040Y0147700D02*
X0289236Y0147700D01*
X0289236Y0148290D02*
X0289040Y0148290D01*
X0290811Y0148292D02*
X0290811Y0146520D01*
X0290615Y0146520D01*
X0290615Y0148292D01*
X0290811Y0148292D01*
X0290811Y0147110D02*
X0290615Y0147110D01*
X0290615Y0147700D02*
X0290811Y0147700D01*
X0290811Y0148290D02*
X0290615Y0148290D01*
X0292385Y0148292D02*
X0292385Y0146520D01*
X0292189Y0146520D01*
X0292189Y0148292D01*
X0292385Y0148292D01*
X0292385Y0147110D02*
X0292189Y0147110D01*
X0292189Y0147700D02*
X0292385Y0147700D01*
X0292385Y0148290D02*
X0292189Y0148290D01*
X0293960Y0148292D02*
X0293960Y0146520D01*
X0293764Y0146520D01*
X0293764Y0148292D01*
X0293960Y0148292D01*
X0293960Y0147110D02*
X0293764Y0147110D01*
X0293764Y0147700D02*
X0293960Y0147700D01*
X0293960Y0148290D02*
X0293764Y0148290D01*
X0295535Y0148292D02*
X0295535Y0146520D01*
X0295339Y0146520D01*
X0295339Y0148292D01*
X0295535Y0148292D01*
X0295535Y0147110D02*
X0295339Y0147110D01*
X0295339Y0147700D02*
X0295535Y0147700D01*
X0295535Y0148290D02*
X0295339Y0148290D01*
X0296520Y0145339D02*
X0298292Y0145339D01*
X0296520Y0145339D02*
X0296520Y0145535D01*
X0298292Y0145535D01*
X0298292Y0145339D01*
X0298292Y0143764D02*
X0296520Y0143764D01*
X0296520Y0143960D01*
X0298292Y0143960D01*
X0298292Y0143764D01*
X0298292Y0142189D02*
X0296520Y0142189D01*
X0296520Y0142385D01*
X0298292Y0142385D01*
X0298292Y0142189D01*
X0298292Y0140615D02*
X0296520Y0140615D01*
X0296520Y0140811D01*
X0298292Y0140811D01*
X0298292Y0140615D01*
X0298292Y0139040D02*
X0296520Y0139040D01*
X0296520Y0139236D01*
X0298292Y0139236D01*
X0298292Y0139040D01*
X0298292Y0137465D02*
X0296520Y0137465D01*
X0296520Y0137661D01*
X0298292Y0137661D01*
X0298292Y0137465D01*
X0295535Y0136480D02*
X0295535Y0134708D01*
X0295339Y0134708D01*
X0295339Y0136480D01*
X0295535Y0136480D01*
X0295535Y0135298D02*
X0295339Y0135298D01*
X0295339Y0135888D02*
X0295535Y0135888D01*
X0295535Y0136478D02*
X0295339Y0136478D01*
X0293960Y0136480D02*
X0293960Y0134708D01*
X0293764Y0134708D01*
X0293764Y0136480D01*
X0293960Y0136480D01*
X0293960Y0135298D02*
X0293764Y0135298D01*
X0293764Y0135888D02*
X0293960Y0135888D01*
X0293960Y0136478D02*
X0293764Y0136478D01*
X0292385Y0136480D02*
X0292385Y0134708D01*
X0292189Y0134708D01*
X0292189Y0136480D01*
X0292385Y0136480D01*
X0292385Y0135298D02*
X0292189Y0135298D01*
X0292189Y0135888D02*
X0292385Y0135888D01*
X0292385Y0136478D02*
X0292189Y0136478D01*
X0290811Y0136480D02*
X0290811Y0134708D01*
X0290615Y0134708D01*
X0290615Y0136480D01*
X0290811Y0136480D01*
X0290811Y0135298D02*
X0290615Y0135298D01*
X0290615Y0135888D02*
X0290811Y0135888D01*
X0290811Y0136478D02*
X0290615Y0136478D01*
X0289236Y0136480D02*
X0289236Y0134708D01*
X0289040Y0134708D01*
X0289040Y0136480D01*
X0289236Y0136480D01*
X0289236Y0135298D02*
X0289040Y0135298D01*
X0289040Y0135888D02*
X0289236Y0135888D01*
X0289236Y0136478D02*
X0289040Y0136478D01*
X0287661Y0136480D02*
X0287661Y0134708D01*
X0287465Y0134708D01*
X0287465Y0136480D01*
X0287661Y0136480D01*
X0287661Y0135298D02*
X0287465Y0135298D01*
X0287465Y0135888D02*
X0287661Y0135888D01*
X0287661Y0136478D02*
X0287465Y0136478D01*
D11*
X0288154Y0124500D03*
X0294846Y0124500D03*
D12*
X0264500Y0124154D03*
X0264500Y0130846D03*
X0264500Y0139154D03*
X0264500Y0145846D03*
D13*
X0295350Y0156500D03*
X0301650Y0156500D03*
X0287650Y0104500D03*
X0281350Y0104500D03*
X0281350Y0094500D03*
X0287650Y0094500D03*
X0287650Y0084500D03*
X0281350Y0084500D03*
D14*
X0051500Y0113350D03*
X0051500Y0119650D03*
X0051500Y0178350D03*
X0051500Y0184650D03*
X0126500Y0184650D03*
X0126500Y0178350D03*
X0126500Y0119650D03*
X0126500Y0113350D03*
X0111500Y0054650D03*
X0111500Y0048350D03*
X0201500Y0113350D03*
X0201500Y0119650D03*
X0287500Y0154350D03*
X0287500Y0160650D03*
D15*
X0296547Y0104500D03*
X0302453Y0104500D03*
X0302453Y0094500D03*
X0296547Y0094500D03*
X0296547Y0084500D03*
X0302453Y0084500D03*
M02*
